<svg xmlns="http://www.w3.org/2000/svg" width="80" height="80" viewBox="0 0 80 80" fill="none"><path d="M40.381 21.9048H48V36.1905H40.381V21.9048Z" fill="#CFCFCF"></path><path d="M59.2381 3.04761H66.8571V16.1905H59.2381V3.04761Z" fill="#CFCFCF"></path><path d="M20.5714 41.9048H28.1905V54.6667H20.5714V41.9048Z" fill="#CFCFCF"></path><path d="M9.33334 71.0475V60.3809H1.71429V76.7618H78.2857V71.0475H9.33334Z" fill="#CFCFCF"></path><path d="M28.9211 18.2165C27.974 18.2165 27.2069 17.4494 27.2069 16.5023V8.69273H19.3973C18.4502 8.69273 17.683 7.92562 17.683 6.97845C17.683 6.03202 18.4502 5.26416 19.3973 5.26416H28.9211C29.8676 5.26416 30.6354 6.03202 30.6354 6.97845V16.5023C30.6354 17.4494 29.8676 18.2165 28.9211 18.2165Z" fill="url(#paint0_linear)"></path><path d="M9.17412 28.6406C8.48141 28.6406 7.85641 28.2225 7.59079 27.5826C7.32516 26.942 7.47174 26.2046 7.96207 25.7143L27.6265 6.04984C28.2962 5.3802 29.3817 5.3802 30.0514 6.04984C30.7203 6.71948 30.7203 7.8043 30.0514 8.47395L10.3869 28.1384C10.0655 28.4606 9.62948 28.6406 9.17412 28.6406Z" fill="url(#paint1_linear)"></path><path d="M78.2857 1.33325H59.2381C58.2917 1.33325 57.5238 2.10111 57.5238 3.04754V20.1904H40.381C39.4345 20.1904 38.6667 20.9583 38.6667 21.9047V40.1904H20.5714C19.625 40.1904 18.8571 40.9583 18.8571 41.9047V58.6666H1.71429C0.767857 58.6666 0 59.4344 0 60.3809V76.7618C0 77.7083 0.767857 78.4761 1.71429 78.4761H78.2857C79.2321 78.4761 80 77.7083 80 76.7618V3.04754C80 2.10111 79.2321 1.33325 78.2857 1.33325ZM76.5714 75.0475H3.42857V62.0952H20.5714C21.5179 62.0952 22.2857 61.3273 22.2857 60.3809V43.619H40.381C41.3274 43.619 42.0952 42.8511 42.0952 41.9047V23.619H59.2381C60.1845 23.619 60.9524 22.8511 60.9524 21.9047V4.76182H76.5714V75.0475Z" fill="black"></path><defs><linearGradient id="paint0_linear" x1="28.276" y1="1.22899" x2="14.001" y2="6.81986" gradientUnits="userSpaceOnUse"><stop stop-color="#F6EA93"></stop><stop offset="0.2458" stop-color="#C49C3C"></stop><stop offset="0.4751" stop-color="#F3DDA2"></stop><stop offset="0.9231" stop-color="#EAC140"></stop><stop offset="1" stop-color="#B4842A"></stop></linearGradient><linearGradient id="paint1_linear" x1="26.3464" y1="-1.64676" x2="0.895161" y2="8.3213" gradientUnits="userSpaceOnUse"><stop stop-color="#F6EA93"></stop><stop offset="0.2458" stop-color="#C49C3C"></stop><stop offset="0.4751" stop-color="#F3DDA2"></stop><stop offset="0.9231" stop-color="#EAC140"></stop><stop offset="1" stop-color="#B4842A"></stop></linearGradient></defs></svg>