<svg xmlns="http://www.w3.org/2000/svg" width="82" height="82" viewBox="0 0 82 82" fill="none"><path d="M15.4823 50.6987H12.2792C12.4828 56.9575 14.7351 62.9765 18.6902 67.8314C19.2828 67.2019 19.9038 66.6035 20.5431 66.0305C17.417 61.5129 15.6599 56.1896 15.4823 50.6987Z" fill="#CFCFCF"></path><path d="M23.16 69.2882C24.1767 68.1961 25.277 67.185 26.4508 66.264C26.192 65.6946 25.944 65.1166 25.7141 64.5251C23.5956 65.855 21.6602 67.4562 19.9571 69.2882C24.2031 73.868 29.8262 76.9389 35.9743 78.0358C35.3753 77.612 34.7952 77.1636 34.2341 76.6905C30.0156 75.1211 26.2231 72.586 23.16 69.2882Z" fill="#CFCFCF"></path><path d="M15.0735 45.696H20.7202C20.975 45.696 21.2195 45.5948 21.3997 45.4146C21.5799 45.2344 21.6811 44.99 21.6811 44.7351C21.6811 44.4803 21.5799 44.2358 21.3997 44.0556C21.2195 43.8754 20.975 43.7742 20.7202 43.7742H15.0735C14.8187 43.7742 14.5743 43.8754 14.3941 44.0556C14.2139 44.2358 14.1126 44.4803 14.1126 44.7351C14.1126 44.99 14.2139 45.2344 14.3941 45.4146C14.5743 45.5948 14.8187 45.696 15.0735 45.696Z" fill="url(#paint0_linear)"></path><path d="M39.3417 22.4253H28.9546C28.6998 22.4253 28.4553 22.5265 28.2751 22.7067C28.0949 22.887 27.9937 23.1314 27.9937 23.3862C27.9937 23.6411 28.0949 23.8855 28.2751 24.0657C28.4553 24.2459 28.6998 24.3472 28.9546 24.3472H39.3417C39.5966 24.3472 39.841 24.2459 40.0212 24.0657C40.2014 23.8855 40.3026 23.6411 40.3026 23.3862C40.3026 23.1314 40.2014 22.887 40.0212 22.7067C39.841 22.5265 39.5966 22.4253 39.3417 22.4253Z" fill="url(#paint1_linear)"></path><path d="M53.9585 31.5781H47.2621C47.0072 31.5781 46.7628 31.6794 46.5826 31.8596C46.4024 32.0398 46.3012 32.2842 46.3012 32.5391C46.3012 32.7939 46.4024 33.0383 46.5826 33.2186C46.7628 33.3988 47.0072 33.5 47.2621 33.5H53.9592C54.214 33.5 54.4585 33.3988 54.6387 33.2186C54.8189 33.0383 54.9201 32.7939 54.9201 32.5391C54.9201 32.2842 54.8189 32.0398 54.6387 31.8596C54.4585 31.6794 54.214 31.5781 53.9592 31.5781H53.9585Z" fill="url(#paint2_linear)"></path><path d="M39.3417 27.8813H28.9546C28.6998 27.8813 28.4553 27.9826 28.2751 28.1628C28.0949 28.343 27.9937 28.5874 27.9937 28.8423C27.9937 29.0971 28.0949 29.3416 28.2751 29.5218C28.4553 29.702 28.6998 29.8032 28.9546 29.8032H39.3417C39.5966 29.8032 39.841 29.702 40.0212 29.5218C40.2014 29.3416 40.3026 29.0971 40.3026 28.8423C40.3026 28.5874 40.2014 28.343 40.0212 28.1628C39.841 27.9826 39.5966 27.8813 39.3417 27.8813Z" fill="url(#paint3_linear)"></path><path d="M39.3417 33.3374H28.9546C28.6998 33.3374 28.4553 33.4386 28.2751 33.6189C28.0949 33.7991 27.9937 34.0435 27.9937 34.2983C27.9937 34.5532 28.0949 34.7976 28.2751 34.9778C28.4553 35.158 28.6998 35.2593 28.9546 35.2593H39.3417C39.5966 35.2593 39.841 35.158 40.0212 34.9778C40.2014 34.7976 40.3026 34.5532 40.3026 34.2983C40.3026 34.0435 40.2014 33.7991 40.0212 33.6189C39.841 33.4386 39.5966 33.3374 39.3417 33.3374Z" fill="url(#paint4_linear)"></path><path d="M39.3417 38.7937H28.9546C28.6998 38.7937 28.4553 38.8949 28.2751 39.0752C28.0949 39.2554 27.9937 39.4998 27.9937 39.7546C27.9937 40.0095 28.0949 40.2539 28.2751 40.4341C28.4553 40.6143 28.6998 40.7156 28.9546 40.7156H39.3417C39.5966 40.7156 39.841 40.6143 40.0212 40.4341C40.2014 40.2539 40.3026 40.0095 40.3026 39.7546C40.3026 39.4998 40.2014 39.2554 40.0212 39.0752C39.841 38.8949 39.5966 38.7937 39.3417 38.7937Z" fill="url(#paint5_linear)"></path><path d="M40.3026 45.2104C40.3026 44.9556 40.2014 44.7112 40.0212 44.531C39.841 44.3508 39.5966 44.2495 39.3417 44.2495H28.9546C28.6998 44.2495 28.4553 44.3508 28.2751 44.531C28.0949 44.7112 27.9937 44.9556 27.9937 45.2104C27.9937 45.4653 28.0949 45.7097 28.2751 45.8899C28.4553 46.0701 28.6998 46.1714 28.9546 46.1714H39.3417C39.5966 46.1714 39.841 46.0701 40.0212 45.8899C40.2014 45.7097 40.3026 45.4653 40.3026 45.2104Z" fill="url(#paint6_linear)"></path><path d="M53.9585 36.9241H47.2621C47.0072 36.9241 46.7628 37.0253 46.5826 37.2055C46.4024 37.3857 46.3012 37.6302 46.3012 37.885C46.3012 38.1399 46.4024 38.3843 46.5826 38.5645C46.7628 38.7447 47.0072 38.8459 47.2621 38.8459H53.9592C54.214 38.8459 54.4585 38.7447 54.6387 38.5645C54.8189 38.3843 54.9201 38.1399 54.9201 37.885C54.9201 37.6302 54.8189 37.3857 54.6387 37.2055C54.4585 37.0253 54.214 36.9241 53.9592 36.9241H53.9585Z" fill="url(#paint7_linear)"></path><path d="M53.9585 42.2703H47.2621C47.0072 42.2703 46.7628 42.3715 46.5826 42.5517C46.4024 42.7319 46.3012 42.9763 46.3012 43.2312C46.3012 43.4861 46.4024 43.7305 46.5826 43.9107C46.7628 44.0909 47.0072 44.1921 47.2621 44.1921H53.9592C54.214 44.1921 54.4585 44.0909 54.6387 43.9107C54.8189 43.7305 54.9201 43.4861 54.9201 43.2312C54.9201 42.9763 54.8189 42.7319 54.6387 42.5517C54.4585 42.3715 54.214 42.2703 53.9592 42.2703H53.9585Z" fill="url(#paint8_linear)"></path><path d="M53.9585 26.2319H47.2621C47.0072 26.2319 46.7628 26.3332 46.5826 26.5134C46.4024 26.6936 46.3012 26.938 46.3012 27.1929C46.3012 27.4477 46.4024 27.6921 46.5826 27.8724C46.7628 28.0526 47.0072 28.1538 47.2621 28.1538H53.9592C54.214 28.1538 54.4585 28.0526 54.6387 27.8724C54.8189 27.6921 54.9201 27.4477 54.9201 27.1929C54.9201 26.938 54.8189 26.6936 54.6387 26.5134C54.4585 26.3332 54.214 26.2319 53.9592 26.2319H53.9585Z" fill="url(#paint9_linear)"></path><path d="M53.9585 20.886H47.2621C47.0072 20.886 46.7628 20.9872 46.5826 21.1674C46.4024 21.3477 46.3012 21.5921 46.3012 21.8469C46.3012 22.1018 46.4024 22.3462 46.5826 22.5264C46.7628 22.7066 47.0072 22.8079 47.2621 22.8079H53.9592C54.214 22.8079 54.4585 22.7066 54.6387 22.5264C54.8189 22.3462 54.9201 22.1018 54.9201 21.8469C54.9201 21.5921 54.8189 21.3477 54.6387 21.1674C54.4585 20.9872 54.214 20.886 53.9592 20.886H53.9585Z" fill="url(#paint10_linear)"></path><path d="M39.3417 16.969H28.9546C28.6998 16.969 28.4553 17.0702 28.2751 17.2504C28.0949 17.4307 27.9937 17.6751 27.9937 17.9299C27.9937 18.1848 28.0949 18.4292 28.2751 18.6094C28.4553 18.7896 28.6998 18.8909 28.9546 18.8909H39.3417C39.5966 18.8909 39.841 18.7896 40.0212 18.6094C40.2014 18.4292 40.3026 18.1848 40.3026 17.9299C40.3026 17.6751 40.2014 17.4307 40.0212 17.2504C39.841 17.0702 39.5966 16.969 39.3417 16.969Z" fill="url(#paint11_linear)"></path><path d="M63.968 45.447H60.7724C60.5175 45.447 60.2731 45.5483 60.0929 45.7285C59.9127 45.9087 59.8115 46.1531 59.8115 46.408C59.8115 46.6628 59.9127 46.9072 60.0929 47.0874C60.2731 47.2677 60.5175 47.3689 60.7724 47.3689H63.968C64.2228 47.3689 64.4673 47.2677 64.6475 47.0874C64.8277 46.9072 64.9289 46.6628 64.9289 46.408C64.9289 46.1531 64.8277 45.9087 64.6475 45.7285C64.4673 45.5483 64.2228 45.447 63.968 45.447Z" fill="url(#paint12_linear)"></path><path d="M63.968 41.8396H60.7724C60.5175 41.8396 60.2731 41.9408 60.0929 42.1211C59.9127 42.3013 59.8115 42.5457 59.8115 42.8005C59.8115 43.0554 59.9127 43.2998 60.0929 43.48C60.2731 43.6602 60.5175 43.7615 60.7724 43.7615H63.968C64.2228 43.7615 64.4673 43.6602 64.6475 43.48C64.8277 43.2998 64.9289 43.0554 64.9289 42.8005C64.9289 42.5457 64.8277 42.3013 64.6475 42.1211C64.4673 41.9408 64.2228 41.8396 63.968 41.8396Z" fill="url(#paint13_linear)"></path><path d="M63.968 38.2319H60.7724C60.5175 38.2319 60.2731 38.3332 60.0929 38.5134C59.9127 38.6936 59.8115 38.938 59.8115 39.1929C59.8115 39.4477 59.9127 39.6921 60.0929 39.8724C60.2731 40.0526 60.5175 40.1538 60.7724 40.1538H63.968C64.2228 40.1538 64.4673 40.0526 64.6475 39.8724C64.8277 39.6921 64.9289 39.4477 64.9289 39.1929C64.9289 38.938 64.8277 38.6936 64.6475 38.5134C64.4673 38.3332 64.2228 38.2319 63.968 38.2319Z" fill="url(#paint14_linear)"></path><path d="M20.7202 32.7949H15.0735C14.8187 32.7949 14.5743 32.8962 14.3941 33.0764C14.2139 33.2566 14.1126 33.501 14.1126 33.7559C14.1126 34.0107 14.2139 34.2551 14.3941 34.4353C14.5743 34.6156 14.8187 34.7168 15.0735 34.7168H20.7202C20.975 34.7168 21.2195 34.6156 21.3997 34.4353C21.5799 34.2551 21.6811 34.0107 21.6811 33.7559C21.6811 33.501 21.5799 33.2566 21.3997 33.0764C21.2195 32.8962 20.975 32.7949 20.7202 32.7949Z" fill="url(#paint15_linear)"></path><path d="M20.7202 36.4546H15.0735C14.8187 36.4546 14.5743 36.5558 14.3941 36.736C14.2139 36.9163 14.1126 37.1607 14.1126 37.4155C14.1126 37.6704 14.2139 37.9148 14.3941 38.095C14.5743 38.2752 14.8187 38.3765 15.0735 38.3765H20.7202C20.975 38.3765 21.2195 38.2752 21.3997 38.095C21.5799 37.9148 21.6811 37.6704 21.6811 37.4155C21.6811 37.1607 21.5799 36.9163 21.3997 36.736C21.2195 36.5558 20.975 36.4546 20.7202 36.4546Z" fill="url(#paint16_linear)"></path><path d="M20.7202 40.1145H15.0735C14.8187 40.1145 14.5743 40.2157 14.3941 40.396C14.2139 40.5762 14.1126 40.8206 14.1126 41.0755C14.1126 41.3303 14.2139 41.5747 14.3941 41.7549C14.5743 41.9352 14.8187 42.0364 15.0735 42.0364H20.7202C20.975 42.0364 21.2195 41.9352 21.3997 41.7549C21.5799 41.5747 21.6811 41.3303 21.6811 41.0755C21.6811 40.8206 21.5799 40.5762 21.3997 40.396C21.2195 40.2157 20.975 40.1145 20.7202 40.1145Z" fill="url(#paint17_linear)"></path><path d="M67.5925 33.9965H65.9771V32.4374C65.9771 32.1825 65.8759 31.9381 65.6957 31.7579C65.5155 31.5777 65.2711 31.4765 65.0162 31.4765H63.5032V29.6396C63.5032 29.3848 63.402 29.1404 63.2218 28.9602C63.0416 28.7799 62.7971 28.6787 62.5423 28.6787C62.2874 28.6787 62.043 28.7799 61.8628 28.9602C61.6826 29.1404 61.5813 29.3848 61.5813 29.6396V31.4765H60.0683C59.8135 31.4765 59.5691 31.5777 59.3889 31.7579C59.2086 31.9381 59.1074 32.1825 59.1074 32.4374V33.9965H58.4532V16.4375C58.4532 16.1826 58.3519 15.9382 58.1717 15.758C57.9915 15.5778 57.7471 15.4765 57.4922 15.4765H44.9315V11.7979C44.9315 11.5431 44.8303 11.2986 44.65 11.1184C44.4698 10.9382 44.2254 10.837 43.9706 10.837H42.164V6.40705C42.164 6.15219 42.0628 5.90778 41.8825 5.72757C41.7023 5.54735 41.4579 5.44611 41.2031 5.44611H34.7456V2.5625C34.7456 2.30764 34.6443 2.06323 34.4641 1.88301C34.2839 1.7028 34.0395 1.60156 33.7846 1.60156C33.5298 1.60156 33.2853 1.7028 33.1051 1.88301C32.9249 2.06323 32.8237 2.30764 32.8237 2.5625V5.44611H27.0931C26.8383 5.44611 26.5939 5.54735 26.4136 5.72757C26.2334 5.90778 26.1322 6.15219 26.1322 6.40705V10.837H24.3256C24.0708 10.837 23.8264 10.9382 23.6461 11.1184C23.4659 11.2986 23.3647 11.5431 23.3647 11.7979V23.0689L21.3674 24.0518V22.0228C21.3674 21.7679 21.2661 21.5235 21.0859 21.3433C20.9057 21.1631 20.6613 21.0618 20.4065 21.0618H18.5442V20.2782C18.5442 20.0233 18.4429 19.7789 18.2627 19.5987C18.0825 19.4185 17.8381 19.3172 17.5832 19.3172C17.3284 19.3172 17.0839 19.4185 16.9037 19.5987C16.7235 19.7789 16.6223 20.0233 16.6223 20.2782V21.0618H14.7598C14.505 21.0618 14.2605 21.1631 14.0803 21.3433C13.9001 21.5235 13.7989 21.7679 13.7989 22.0228V27.7761L10.876 29.2144C10.715 29.2937 10.5794 29.4165 10.4846 29.5688C10.3898 29.7212 10.3395 29.8971 10.3395 30.0765V49.738H12.2614V30.6746L23.3647 25.2107V49.5496H25.2866V12.7588H43.0096V49.8699H44.9315V17.3984H56.5313V49.8699H58.4532V35.9184H66.6315V49.7388H68.5534V34.9575C68.5534 34.7026 68.4522 34.4582 68.272 34.278C68.0918 34.0978 67.8473 33.9965 67.5925 33.9965ZM19.4455 24.9975L15.7208 26.8303V22.9837H19.4455V24.9975ZM40.2421 10.837H28.0542V7.36799H40.2421V10.837ZM64.0553 33.9965H61.0293V33.3983H64.0553V33.9965Z" fill="url(#paint18_linear)"></path><path d="M68.5534 36.2791V41.5381C69.2528 43.8908 69.6458 46.3239 69.7226 48.7772H11.3004C11.0456 48.7772 10.8012 48.8784 10.621 49.0586C10.4407 49.2388 10.3395 49.4832 10.3395 49.7381C10.3395 66.6442 24.0937 80.3984 41 80.3984C57.9062 80.3984 71.6605 66.6442 71.6605 49.7379C71.6731 45.0725 70.6099 40.4669 68.5534 36.2791ZM18.6902 67.8316C14.7351 62.9766 12.4828 56.9577 12.2792 50.6989H23.0998C23.1569 54.766 23.815 58.8022 25.0527 62.6768C22.7106 64.1023 20.5706 65.8361 18.6902 67.8316ZM19.9571 69.289C21.6601 67.4571 23.5955 65.8558 25.714 64.526C27.9045 70.1555 31.4036 74.8034 35.9744 78.0366C29.8261 76.9396 24.2029 73.8684 19.9569 69.2884L19.9571 69.289ZM40.039 78.255C34.2425 75.2747 29.8899 70.1191 27.3997 63.5476C31.295 61.4573 35.6207 60.2956 40.039 60.1532V78.255ZM40.039 58.2297C35.4084 58.3689 30.8697 59.5578 26.7656 61.7069C25.667 58.1384 25.0801 54.4322 25.0225 50.6989H40.039V58.2297ZM41.9609 50.6989H56.9775C56.9198 54.4207 56.3365 58.1157 55.2449 61.6742C51.1397 59.5219 46.5947 58.3418 41.9609 58.2251V50.6989ZM41.9609 60.1473C46.3833 60.268 50.716 61.4224 54.6123 63.5179C52.124 70.1049 47.7664 75.2709 41.9609 78.2558V60.1473ZM46.0257 78.0368C50.6044 74.7979 54.1077 70.1399 56.2973 64.4973C58.4165 65.8328 60.3495 67.443 62.046 69.286C57.7996 73.8673 52.1753 76.9392 46.0257 78.036V78.0368ZM63.3131 67.8284C61.4392 65.8214 59.3011 64.0786 56.9575 62.6478C58.1886 58.7824 58.8433 54.7565 58.9003 50.7002H69.721C69.5171 56.9567 67.266 62.9736 63.3131 67.8276V67.8284Z" fill="black"></path><defs><linearGradient id="paint0_linear" x1="20.3024" y1="43.1754" x2="17.4551" y2="47.5671" gradientUnits="userSpaceOnUse"><stop stop-color="#F6EA93"></stop><stop offset="0.2458" stop-color="#C49C3C"></stop><stop offset="0.4751" stop-color="#F3DDA2"></stop><stop offset="0.9231" stop-color="#EAC140"></stop><stop offset="1" stop-color="#B4842A"></stop></linearGradient><linearGradient id="paint1_linear" x1="38.0604" y1="21.8266" x2="35.9147" y2="27.2089" gradientUnits="userSpaceOnUse"><stop stop-color="#F6EA93"></stop><stop offset="0.2458" stop-color="#C49C3C"></stop><stop offset="0.4751" stop-color="#F3DDA2"></stop><stop offset="0.9231" stop-color="#EAC140"></stop><stop offset="1" stop-color="#B4842A"></stop></linearGradient><linearGradient id="paint2_linear" x1="53.3501" y1="30.9794" x2="50.6681" y2="35.6902" gradientUnits="userSpaceOnUse"><stop stop-color="#F6EA93"></stop><stop offset="0.2458" stop-color="#C49C3C"></stop><stop offset="0.4751" stop-color="#F3DDA2"></stop><stop offset="0.9231" stop-color="#EAC140"></stop><stop offset="1" stop-color="#B4842A"></stop></linearGradient><linearGradient id="paint3_linear" x1="38.0604" y1="27.2826" x2="35.9147" y2="32.665" gradientUnits="userSpaceOnUse"><stop stop-color="#F6EA93"></stop><stop offset="0.2458" stop-color="#C49C3C"></stop><stop offset="0.4751" stop-color="#F3DDA2"></stop><stop offset="0.9231" stop-color="#EAC140"></stop><stop offset="1" stop-color="#B4842A"></stop></linearGradient><linearGradient id="paint4_linear" x1="38.0604" y1="32.7387" x2="35.9147" y2="38.121" gradientUnits="userSpaceOnUse"><stop stop-color="#F6EA93"></stop><stop offset="0.2458" stop-color="#C49C3C"></stop><stop offset="0.4751" stop-color="#F3DDA2"></stop><stop offset="0.9231" stop-color="#EAC140"></stop><stop offset="1" stop-color="#B4842A"></stop></linearGradient><linearGradient id="paint5_linear" x1="38.0604" y1="38.195" x2="35.9147" y2="43.5773" gradientUnits="userSpaceOnUse"><stop stop-color="#F6EA93"></stop><stop offset="0.2458" stop-color="#C49C3C"></stop><stop offset="0.4751" stop-color="#F3DDA2"></stop><stop offset="0.9231" stop-color="#EAC140"></stop><stop offset="1" stop-color="#B4842A"></stop></linearGradient><linearGradient id="paint6_linear" x1="38.0604" y1="43.6508" x2="35.9147" y2="49.0331" gradientUnits="userSpaceOnUse"><stop stop-color="#F6EA93"></stop><stop offset="0.2458" stop-color="#C49C3C"></stop><stop offset="0.4751" stop-color="#F3DDA2"></stop><stop offset="0.9231" stop-color="#EAC140"></stop><stop offset="1" stop-color="#B4842A"></stop></linearGradient><linearGradient id="paint7_linear" x1="53.3501" y1="36.3253" x2="50.6681" y2="41.0361" gradientUnits="userSpaceOnUse"><stop stop-color="#F6EA93"></stop><stop offset="0.2458" stop-color="#C49C3C"></stop><stop offset="0.4751" stop-color="#F3DDA2"></stop><stop offset="0.9231" stop-color="#EAC140"></stop><stop offset="1" stop-color="#B4842A"></stop></linearGradient><linearGradient id="paint8_linear" x1="53.3501" y1="41.6715" x2="50.6681" y2="46.3823" gradientUnits="userSpaceOnUse"><stop stop-color="#F6EA93"></stop><stop offset="0.2458" stop-color="#C49C3C"></stop><stop offset="0.4751" stop-color="#F3DDA2"></stop><stop offset="0.9231" stop-color="#EAC140"></stop><stop offset="1" stop-color="#B4842A"></stop></linearGradient><linearGradient id="paint9_linear" x1="53.3501" y1="25.6332" x2="50.6681" y2="30.344" gradientUnits="userSpaceOnUse"><stop stop-color="#F6EA93"></stop><stop offset="0.2458" stop-color="#C49C3C"></stop><stop offset="0.4751" stop-color="#F3DDA2"></stop><stop offset="0.9231" stop-color="#EAC140"></stop><stop offset="1" stop-color="#B4842A"></stop></linearGradient><linearGradient id="paint10_linear" x1="53.3501" y1="20.2872" x2="50.6681" y2="24.998" gradientUnits="userSpaceOnUse"><stop stop-color="#F6EA93"></stop><stop offset="0.2458" stop-color="#C49C3C"></stop><stop offset="0.4751" stop-color="#F3DDA2"></stop><stop offset="0.9231" stop-color="#EAC140"></stop><stop offset="1" stop-color="#B4842A"></stop></linearGradient><linearGradient id="paint11_linear" x1="38.0604" y1="16.3703" x2="35.9147" y2="21.7526" gradientUnits="userSpaceOnUse"><stop stop-color="#F6EA93"></stop><stop offset="0.2458" stop-color="#C49C3C"></stop><stop offset="0.4751" stop-color="#F3DDA2"></stop><stop offset="0.9231" stop-color="#EAC140"></stop><stop offset="1" stop-color="#B4842A"></stop></linearGradient><linearGradient id="paint12_linear" x1="63.9967" y1="44.8483" x2="60.8806" y2="48.098" gradientUnits="userSpaceOnUse"><stop stop-color="#F6EA93"></stop><stop offset="0.2458" stop-color="#C49C3C"></stop><stop offset="0.4751" stop-color="#F3DDA2"></stop><stop offset="0.9231" stop-color="#EAC140"></stop><stop offset="1" stop-color="#B4842A"></stop></linearGradient><linearGradient id="paint13_linear" x1="63.9967" y1="41.2409" x2="60.8806" y2="44.4906" gradientUnits="userSpaceOnUse"><stop stop-color="#F6EA93"></stop><stop offset="0.2458" stop-color="#C49C3C"></stop><stop offset="0.4751" stop-color="#F3DDA2"></stop><stop offset="0.9231" stop-color="#EAC140"></stop><stop offset="1" stop-color="#B4842A"></stop></linearGradient><linearGradient id="paint14_linear" x1="63.9967" y1="37.6332" x2="60.8806" y2="40.8829" gradientUnits="userSpaceOnUse"><stop stop-color="#F6EA93"></stop><stop offset="0.2458" stop-color="#C49C3C"></stop><stop offset="0.4751" stop-color="#F3DDA2"></stop><stop offset="0.9231" stop-color="#EAC140"></stop><stop offset="1" stop-color="#B4842A"></stop></linearGradient><linearGradient id="paint15_linear" x1="20.3024" y1="32.1962" x2="17.4551" y2="36.5878" gradientUnits="userSpaceOnUse"><stop stop-color="#F6EA93"></stop><stop offset="0.2458" stop-color="#C49C3C"></stop><stop offset="0.4751" stop-color="#F3DDA2"></stop><stop offset="0.9231" stop-color="#EAC140"></stop><stop offset="1" stop-color="#B4842A"></stop></linearGradient><linearGradient id="paint16_linear" x1="20.3024" y1="35.8559" x2="17.4551" y2="40.2475" gradientUnits="userSpaceOnUse"><stop stop-color="#F6EA93"></stop><stop offset="0.2458" stop-color="#C49C3C"></stop><stop offset="0.4751" stop-color="#F3DDA2"></stop><stop offset="0.9231" stop-color="#EAC140"></stop><stop offset="1" stop-color="#B4842A"></stop></linearGradient><linearGradient id="paint17_linear" x1="20.3024" y1="39.5158" x2="17.455" y2="43.9074" gradientUnits="userSpaceOnUse"><stop stop-color="#F6EA93"></stop><stop offset="0.2458" stop-color="#C49C3C"></stop><stop offset="0.4751" stop-color="#F3DDA2"></stop><stop offset="0.9231" stop-color="#EAC140"></stop><stop offset="1" stop-color="#B4842A"></stop></linearGradient><linearGradient id="paint18_linear" x1="57.9491" y1="-13.4359" x2="-2.55211" y2="15.142" gradientUnits="userSpaceOnUse"><stop stop-color="#F6EA93"></stop><stop offset="0.2458" stop-color="#C49C3C"></stop><stop offset="0.4751" stop-color="#F3DDA2"></stop><stop offset="0.9231" stop-color="#EAC140"></stop><stop offset="1" stop-color="#B4842A"></stop></linearGradient></defs></svg>