<svg xmlns="http://www.w3.org/2000/svg" width="79" height="79" viewBox="0 0 79 79" fill="none"><path d="M27.2077 42.6662C24.7051 42.668 22.4107 41.2737 21.2603 39.0515C20.11 36.8299 20.2951 34.1516 21.7408 32.1094C19.5618 33.6454 18.5031 36.3293 19.045 38.9398C19.5869 41.5503 21.6266 43.5901 24.2378 44.132C26.8483 44.6745 29.5315 43.6151 31.0682 41.4362C29.9405 42.2371 28.5907 42.6674 27.2077 42.6662Z" fill="#CFCFCF"></path><path d="M55.0037 46.5148C52.5017 46.5173 50.2073 45.123 49.057 42.9008C47.9061 40.6791 48.0917 38.0002 49.5375 35.958C47.3585 37.4947 46.2997 40.178 46.8417 42.7885C47.3836 45.3996 49.4239 47.4393 52.0344 47.9813C54.6449 48.5232 57.3282 47.4638 58.8649 45.2848C57.7365 46.0864 56.3874 46.5161 55.0037 46.5148Z" fill="#CFCFCF"></path><path d="M21.998 76.4309V71.8691C21.998 70.4974 21.0346 69.3771 19.5894 69.3069V65.346C21.8161 64.937 23.4356 62.9995 23.4431 60.7353V56.0386H21.5163V60.7353C21.4893 62.282 20.2267 63.5208 18.68 63.5183C18.1374 63.5145 17.6883 63.9398 17.6626 64.4817V69.3659H4.97764V49.1555C4.98329 48.4392 5.26491 47.753 5.76355 47.2387L14.7667 39.7904L13.543 38.3064L4.51099 45.7885C4.48527 45.8099 4.44199 45.8318 4.41941 45.8557C3.54695 46.7325 3.0552 47.9186 3.05081 49.1555V69.3659H2.56911C1.89484 69.3514 1.24316 69.6086 0.760194 70.079C0.277233 70.5501 0.00376334 71.1942 0 71.8691V76.4309C0.00188168 77.849 1.15095 78.9981 2.56911 79H19.4928C20.1677 78.9969 20.8125 78.7228 21.2836 78.2398C21.7546 77.7568 22.0118 77.1052 21.998 76.4309ZM20.0711 76.4309C20.0711 76.7859 19.7839 77.0732 19.4289 77.0732H2.56911C2.2141 77.0732 1.92683 76.7859 1.92683 76.4309V71.935C1.92683 71.58 2.2141 71.2927 2.56911 71.2927H19.4289C19.7839 71.2927 20.0711 71.58 20.0711 71.935V76.4309Z" fill="black"></path><path d="M5.03724 71.6973C4.00295 71.676 3.05835 72.2831 2.64752 73.2334C2.23732 74.1836 2.44242 75.2875 3.16686 76.0264C3.89131 76.7653 4.99083 76.993 5.9486 76.6016C6.90699 76.2102 7.53296 75.2781 7.53296 74.2438C7.54488 72.852 6.42905 71.713 5.03724 71.6973ZM5.03724 74.8629C4.78196 74.8849 4.53923 74.7481 4.42633 74.5179C4.3128 74.2878 4.35231 74.0118 4.52606 73.823C4.69917 73.6342 4.97076 73.5708 5.20973 73.6643C5.4487 73.7571 5.60613 73.9873 5.60613 74.2438C5.61931 74.5713 5.36528 74.8479 5.03724 74.8629Z" fill="black"></path><path d="M76.4309 0H59.5072C58.8323 0.00313611 58.1875 0.277233 57.7164 0.760194C57.2454 1.24316 56.9882 1.89484 57.002 2.56911V7.1309C57.002 8.50264 57.9655 9.62286 59.4106 9.69311V13.654C57.1839 14.063 55.5644 16.0005 55.5569 18.2647V22.9614H57.4837V18.2647C57.5107 16.718 58.7733 15.4792 60.32 15.4817C60.8626 15.4855 61.3117 15.0603 61.3374 14.5183V9.63415H74.0224V29.8445C74.0167 30.5608 73.7351 31.247 73.2365 31.7613L64.2333 39.2096L65.457 40.6936L74.489 33.2115C74.5147 33.1901 74.558 33.1682 74.5806 33.1444C75.4531 32.2675 75.9448 31.0814 75.9492 29.8445V9.63415H76.4309C77.1052 9.64857 77.7569 9.39141 78.2398 8.92099C78.7228 8.44995 78.9962 7.80579 79 7.1309V2.56911C78.9981 1.15095 77.8491 0.00188168 76.4309 0ZM77.0732 7.06504C77.0732 7.42005 76.7859 7.70732 76.4309 7.70732H59.5711C59.2161 7.70732 58.9289 7.42005 58.9289 7.06504V2.56911C58.9289 2.2141 59.2161 1.92683 59.5711 1.92683H76.4309C76.7859 1.92683 77.0732 2.2141 77.0732 2.56911V7.06504Z" fill="black"></path><path d="M73.9628 2.21026C72.9279 2.18894 71.9833 2.79609 71.5731 3.74633C71.1623 4.69595 71.3674 5.79986 72.0918 6.53873C72.8162 7.27823 73.9158 7.50528 74.8735 7.11452C75.8319 6.72313 76.4579 5.79108 76.4579 4.75616C76.4704 3.36498 75.354 2.22594 73.9628 2.21026ZM73.9628 5.37586C73.7069 5.39781 73.4642 5.26108 73.3513 5.03088C73.2377 4.80069 73.2779 4.52471 73.451 4.33592C73.6241 4.14713 73.8957 4.08378 74.1347 4.17661C74.3736 4.27006 74.5311 4.50025 74.5311 4.75616C74.5442 5.0842 74.2902 5.3608 73.9628 5.37586Z" fill="black"></path><path d="M52.3455 71.0198C51.8136 71.0198 51.3821 71.4507 51.3821 71.9832V77.9249C51.3821 78.4574 51.8136 78.8883 52.3455 78.8883C52.8774 78.8883 53.3089 78.4574 53.3089 77.9249V71.9832C53.3089 71.4507 52.8774 71.0198 52.3455 71.0198Z" fill="black"></path><path d="M53.3089 66.3294C53.3089 65.7969 52.8774 65.366 52.3455 65.366C51.8136 65.366 51.3821 65.7969 51.3821 66.3294V67.9508C51.3821 68.4826 51.8136 68.9142 52.3455 68.9142C52.8774 68.9142 53.3089 68.4826 53.3089 67.9508V66.3294Z" fill="black"></path><path d="M60.374 69.4141C59.8421 69.4141 59.4106 69.845 59.4106 70.3775V74.7135C59.4106 75.246 59.8421 75.6769 60.374 75.6769C60.9059 75.6769 61.3374 75.246 61.3374 74.7135V70.3775C61.3374 69.845 60.9059 69.4141 60.374 69.4141Z" fill="black"></path><path d="M61.3374 63.1182C61.3374 62.5857 60.9059 62.1548 60.374 62.1548C59.8421 62.1548 59.4106 62.5857 59.4106 63.1182V66.3453C59.4106 66.8771 59.8421 67.3087 60.374 67.3087C60.9059 67.3087 61.3374 66.8771 61.3374 66.3453V63.1182Z" fill="black"></path><path d="M44.3171 70.6987C43.7852 70.6987 43.3537 71.1296 43.3537 71.6621V74.7136C43.3537 75.2461 43.7852 75.677 44.3171 75.677C44.849 75.677 45.2805 75.2461 45.2805 74.7136V71.6621C45.2805 71.1296 44.849 70.6987 44.3171 70.6987Z" fill="black"></path><path d="M45.2805 63.1182C45.2805 62.5857 44.849 62.1548 44.3171 62.1548C43.7852 62.1548 43.3537 62.5857 43.3537 63.1182V68.2721C43.3537 68.804 43.7852 69.2355 44.3171 69.2355C44.849 69.2355 45.2805 68.804 45.2805 68.2721V63.1182Z" fill="black"></path><path d="M26.1728 2.00394C26.1728 1.47206 25.7412 1.04053 25.2094 1.04053C24.6775 1.04053 24.2459 1.47206 24.2459 2.00394V7.94625C24.2459 8.47814 24.6775 8.90967 25.2094 8.90967C25.7412 8.90967 26.1728 8.47814 26.1728 7.94625V2.00394Z" fill="black"></path><path d="M25.2094 11.0154C24.6775 11.0154 24.2459 11.4463 24.2459 11.9788V13.6002C24.2459 14.1327 24.6775 14.5636 25.2094 14.5636C25.7412 14.5636 26.1728 14.1327 26.1728 13.6002V11.9788C26.1728 11.4463 25.7412 11.0154 25.2094 11.0154Z" fill="black"></path><path d="M17.1809 10.5154C17.7128 10.5154 18.1443 10.0839 18.1443 9.55199V5.21537C18.1443 4.68348 17.7128 4.25195 17.1809 4.25195C16.649 4.25195 16.2175 4.68348 16.2175 5.21537V9.55199C16.2175 10.0839 16.649 10.5154 17.1809 10.5154Z" fill="black"></path><path d="M16.2175 16.8116C16.2175 17.3441 16.649 17.775 17.1809 17.775C17.7128 17.775 18.1443 17.3441 18.1443 16.8116V13.5845C18.1443 13.052 17.7128 12.6211 17.1809 12.6211C16.649 12.6211 16.2175 13.052 16.2175 13.5845V16.8116Z" fill="black"></path><path d="M34.2012 5.21537C34.2012 4.68348 33.7697 4.25195 33.2378 4.25195C32.7059 4.25195 32.2744 4.68348 32.2744 5.21537V8.26744C32.2744 8.79932 32.7059 9.23085 33.2378 9.23085C33.7697 9.23085 34.2012 8.79932 34.2012 8.26744V5.21537Z" fill="black"></path><path d="M33.2378 10.6941C32.7059 10.6941 32.2744 11.125 32.2744 11.6575V16.8114C32.2744 17.3439 32.7059 17.7748 33.2378 17.7748C33.7697 17.7748 34.2012 17.3439 34.2012 16.8114V11.6575C34.2012 11.125 33.7697 10.6941 33.2378 10.6941Z" fill="black"></path><path d="M38.0549 54.4268V21.9278C38.053 20.5498 36.9378 19.4327 35.5598 19.429H15.6442C14.9844 19.4315 14.3521 19.6962 13.8874 20.1647C13.4226 20.6339 13.1635 21.268 13.1667 21.9284V48.0103H15.0935V21.9284C15.0898 21.7792 15.1456 21.6343 15.2491 21.527C15.3526 21.4191 15.4949 21.3577 15.6442 21.3558H35.5598C35.874 21.3583 36.1281 21.6136 36.1281 21.9284V54.4274C36.1281 54.741 35.8728 55.0759 35.5598 55.0759H15.4147V57.0028H35.5598C36.9353 57.0021 38.0549 55.8029 38.0549 54.4268Z" fill="url(#paint0_linear)"></path><path d="M34.2251 37.5757C34.2251 32.8132 30.3645 28.9526 25.6026 28.9526C20.8401 28.9526 16.9796 32.8132 16.9796 37.5757C16.9796 42.3376 20.8401 46.1981 25.6026 46.1981C30.362 46.1925 34.2194 42.3351 34.2251 37.5757ZM18.9058 37.5757C18.9058 33.8776 21.9033 30.8795 25.6014 30.8795C29.2995 30.8795 32.297 33.8776 32.297 37.5757C32.297 41.2732 29.2995 44.2713 25.6014 44.2713C21.9051 44.2669 18.9101 41.2713 18.9058 37.5757Z" fill="url(#paint1_linear)"></path><path d="M28.3084 42.926L28.7168 42.7221C29.0272 42.5703 29.233 42.263 29.2549 41.918C29.2762 41.5724 29.1113 41.2419 28.8221 41.0518C28.5336 40.8618 28.1642 40.8417 27.8562 40.9985L27.4479 41.2023C26.8633 41.4934 26.1677 41.4476 25.6264 41.0825C25.5173 41.0092 25.405 40.9414 25.289 40.8799C25.617 40.3531 25.8033 39.7509 25.8309 39.1312C25.8347 39.0528 25.8359 39.0183 25.8384 38.8578H26.2668C26.7987 38.8578 27.2302 38.4262 27.2302 37.8944C27.2302 37.3625 26.7987 36.9309 26.2668 36.9309H25.7776C25.7475 36.6098 25.708 36.3225 25.6584 36.0039L25.6459 35.9456C25.5882 35.6081 25.7368 35.2688 26.0241 35.0825C26.152 34.9997 26.302 34.9558 26.455 34.9577C26.6827 34.9602 26.8997 35.0537 27.0584 35.218C27.2164 35.3817 27.3024 35.6025 27.2967 35.8302V36.1871C27.2967 36.7196 27.7283 37.1505 28.2601 37.1505C28.792 37.1505 29.2236 36.7196 29.2236 36.1871V35.8302C29.2286 35.0919 28.9388 34.3825 28.4195 33.8582C27.9001 33.3338 27.1932 33.0378 26.455 33.0359C25.9388 33.0359 25.4326 33.1814 24.9948 33.4555C24.0471 34.0526 23.551 35.1603 23.736 36.2655L23.7523 36.305C23.7868 36.5251 23.8194 36.7716 23.8426 36.9322H23.2637C22.7312 36.9322 22.3003 37.3631 22.3003 37.8956C22.3003 38.4275 22.7312 38.859 23.2637 38.859H23.9085C23.9072 39.0196 23.9085 38.997 23.906 39.0478C23.8727 39.7585 23.3728 40.3612 22.6804 40.5249C22.2012 40.636 21.88 41.0876 21.934 41.5768C21.9873 42.066 22.3987 42.438 22.8905 42.4424C22.962 42.443 23.0335 42.4361 23.1031 42.421C23.1307 42.4148 23.1571 42.4072 23.1834 42.4003H23.1934C23.6632 42.3094 24.1499 42.4097 24.5457 42.6795C25.6634 43.4334 27.1004 43.5281 28.3072 42.9272L28.3084 42.926Z" fill="url(#paint2_linear)"></path><path d="M63.9065 57.0717C63.9103 57.221 63.8545 57.3659 63.751 57.4732C63.6475 57.581 63.5051 57.6425 63.3558 57.6444H43.4402C43.126 57.6419 42.872 57.3866 42.872 57.0717V24.5728C42.872 24.2592 43.1272 23.9242 43.4402 23.9242H63.5854V21.998H43.4402C42.0647 21.998 40.9451 23.1973 40.9451 24.5734V57.0724C40.947 58.4504 42.0622 59.5675 43.4402 59.5712H63.3558C64.0156 59.5687 64.6479 59.304 65.1127 58.8355C65.5774 58.3663 65.8365 57.7322 65.8333 57.0717V30.9899H63.9065V57.0717Z" fill="url(#paint3_linear)"></path><path d="M44.775 41.4244C44.775 46.1869 48.6355 50.0475 53.3974 50.0475C58.1599 50.0475 62.0205 46.1869 62.0205 41.4244C62.0205 36.6626 58.1599 32.802 53.3974 32.802C48.638 32.8076 44.7806 36.6651 44.775 41.4244ZM60.0943 41.4244C60.0943 45.1225 57.0968 48.1207 53.3987 48.1207C49.7005 48.1207 46.703 45.1225 46.703 41.4244C46.703 37.727 49.7005 34.7288 53.3987 34.7288C57.0949 34.7332 60.0899 37.7288 60.0943 41.4244Z" fill="url(#paint4_linear)"></path><path d="M50.0725 39.3394H49.2477C48.7158 39.3394 48.2843 39.7709 48.2843 40.3028C48.2843 40.8347 48.7158 41.2662 49.2477 41.2662H49.7338C49.7363 41.2662 49.7419 41.4268 49.7495 41.5874H49.247C48.7152 41.5874 48.2836 42.0189 48.2836 42.5508C48.2836 43.0827 48.7152 43.5142 49.247 43.5142H50.3403C51.2272 45.0208 52.8511 45.9397 54.5991 45.9227H55.2684C55.8003 45.9227 56.2318 45.4912 56.2318 44.9593C56.2318 44.4274 55.8003 43.9959 55.2684 43.9959H54.5991C53.9801 44.0097 53.371 43.8422 52.8454 43.5142H54.4624C54.9949 43.5142 55.4258 43.0827 55.4258 42.5508C55.4258 42.0189 54.9949 41.5874 54.4624 41.5874H51.692C51.6782 41.4268 51.6688 41.2662 51.6637 41.2662H54.463C54.9955 41.2662 55.4264 40.8347 55.4264 40.3028C55.4264 39.7709 54.9955 39.3394 54.463 39.3394H52.269C52.8078 38.5365 53.6502 38.2154 54.5998 38.2154H55.269C55.8009 38.2154 56.2324 37.7839 56.2324 37.252C56.2324 36.7201 55.8009 36.2886 55.269 36.2886H54.5998C52.5462 36.2886 50.7881 37.4126 50.0725 39.3394Z" fill="url(#paint5_linear)"></path><path d="M19.6233 50.0204C21.0941 48.5465 21.0941 46.1593 19.6233 44.6847L18.961 44.0223C18.6147 43.6767 18.0647 43.6447 17.6814 43.9483L8.68454 51.0723C8.41295 51.2856 8.27622 51.6274 8.32639 51.9692C8.37595 52.3104 8.60488 52.599 8.92539 52.7257C9.24653 52.853 9.61095 52.7984 9.88065 52.5833L18.2052 45.9918L18.2603 46.047C18.9804 46.7689 18.9804 47.9368 18.2603 48.6581L14.2875 52.6316C14.1201 52.799 14.0203 53.0217 14.0065 53.2582L13.9563 54.125C13.9551 54.1432 13.9545 54.162 13.9545 54.1808C13.9589 54.8739 14.1169 55.5582 14.4167 56.1829C15.0251 57.4825 14.9141 59.0042 14.1238 60.2015C14.0209 60.3602 13.967 60.5459 13.9695 60.7353V62.6082C13.9695 63.1407 14.401 63.5716 14.9329 63.5716C15.4648 63.5716 15.8963 63.1407 15.8963 62.6082V61.0132C16.8598 59.3065 17.0166 57.1695 16.1679 55.3638C15.9917 55.0025 15.8951 54.6067 15.8857 54.2047L15.9108 53.7349L19.6233 50.0204Z" fill="black"></path><path d="M60.8751 26.5879C59.4934 27.9697 59.4934 30.2108 60.8751 31.5926L61.4823 32.1997C61.8279 32.5453 62.378 32.5773 62.7618 32.2737L71.0092 25.7437C71.2801 25.5304 71.4169 25.1886 71.3667 24.8468C71.3171 24.5056 71.0888 24.217 70.7677 24.0897C70.4465 23.963 70.0828 24.0176 69.8131 24.2327L62.2381 30.2309C61.6084 29.6011 61.6084 28.58 62.2381 27.9503L65.881 24.308C66.0478 24.1411 66.1476 23.9179 66.1614 23.682L66.2072 22.8873C66.2084 22.8691 66.209 22.8503 66.209 22.8321C66.2053 22.1842 66.0579 21.5457 65.7775 20.9618C65.2255 19.7995 65.3171 18.434 66.0202 17.3571C66.1175 17.1959 66.1645 17.0102 66.1551 16.8227V15.106C66.1551 14.5741 65.7236 14.1426 65.1917 14.1426C64.6598 14.1426 64.2283 14.5741 64.2283 15.106V16.5467C63.4254 18.1305 63.2209 20.1087 64.0069 21.7809C64.1662 22.1008 64.2552 22.4502 64.2684 22.807L64.2521 23.2047L60.8751 26.5879Z" fill="black"></path><defs><linearGradient id="paint0_linear" x1="33.5212" y1="7.72326" x2="3.87889" y2="15.4132" gradientUnits="userSpaceOnUse"><stop stop-color="#F6EA93"></stop><stop offset="0.2458" stop-color="#C49C3C"></stop><stop offset="0.4751" stop-color="#F3DDA2"></stop><stop offset="0.9231" stop-color="#EAC140"></stop><stop offset="1" stop-color="#B4842A"></stop></linearGradient><linearGradient id="paint1_linear" x1="31.0836" y1="23.58" x2="12.077" y2="31.024" gradientUnits="userSpaceOnUse"><stop stop-color="#F6EA93"></stop><stop offset="0.2458" stop-color="#C49C3C"></stop><stop offset="0.4751" stop-color="#F3DDA2"></stop><stop offset="0.9231" stop-color="#EAC140"></stop><stop offset="1" stop-color="#B4842A"></stop></linearGradient><linearGradient id="paint2_linear" x1="27.9218" y1="29.8321" x2="19.279" y2="32.2445" gradientUnits="userSpaceOnUse"><stop stop-color="#F6EA93"></stop><stop offset="0.2458" stop-color="#C49C3C"></stop><stop offset="0.4751" stop-color="#F3DDA2"></stop><stop offset="0.9231" stop-color="#EAC140"></stop><stop offset="1" stop-color="#B4842A"></stop></linearGradient><linearGradient id="paint3_linear" x1="61.2997" y1="10.2925" x2="31.6574" y2="17.9826" gradientUnits="userSpaceOnUse"><stop stop-color="#F6EA93"></stop><stop offset="0.2458" stop-color="#C49C3C"></stop><stop offset="0.4751" stop-color="#F3DDA2"></stop><stop offset="0.9231" stop-color="#EAC140"></stop><stop offset="1" stop-color="#B4842A"></stop></linearGradient><linearGradient id="paint4_linear" x1="58.879" y1="27.4294" x2="39.8724" y2="34.8734" gradientUnits="userSpaceOnUse"><stop stop-color="#F6EA93"></stop><stop offset="0.2458" stop-color="#C49C3C"></stop><stop offset="0.4751" stop-color="#F3DDA2"></stop><stop offset="0.9231" stop-color="#EAC140"></stop><stop offset="1" stop-color="#B4842A"></stop></linearGradient><linearGradient id="paint5_linear" x1="54.7845" y1="33.2871" x2="45.6354" y2="36.2434" gradientUnits="userSpaceOnUse"><stop stop-color="#F6EA93"></stop><stop offset="0.2458" stop-color="#C49C3C"></stop><stop offset="0.4751" stop-color="#F3DDA2"></stop><stop offset="0.9231" stop-color="#EAC140"></stop><stop offset="1" stop-color="#B4842A"></stop></linearGradient></defs></svg>