<svg xmlns="http://www.w3.org/2000/svg" width="97" height="97" viewBox="0 0 97 97" fill="none"><path d="M16.2286 64.4101H16.5995L15.8417 62.2144L15.8152 62.2409C15.8152 62.5258 15.7591 62.8079 15.6501 63.0711C15.5411 63.3343 15.3814 63.5734 15.1799 63.7749C14.9785 63.9763 14.7393 64.1361 14.4761 64.2451C14.2129 64.3541 13.9308 64.4102 13.6459 64.4101H10.545C8.30106 64.4104 6.14916 65.3019 4.56248 66.8886C2.9758 68.4753 2.08429 70.6272 2.08398 72.8711V86.1688H7.76758V72.8711C7.76788 70.6272 8.6594 68.4753 10.2461 66.8886C11.8327 65.3019 13.9847 64.4104 16.2286 64.4101Z" fill="#CFCFCF"></path><path d="M37.3488 64.5997C39.052 63.0739 41.2592 62.2318 43.5458 62.2353H44.5228L43.6892 59.8179L43.6589 59.8482C43.6589 60.481 43.4077 61.0878 42.9604 61.5355C42.5132 61.9831 41.9065 62.2348 41.2737 62.2353H37.8622C35.3939 62.2357 33.0269 63.2165 31.2817 64.9621C29.5365 66.7076 28.5562 69.0748 28.5563 71.5431V86.1689H34.2399V71.5431C34.2382 70.2318 34.5144 68.9351 35.0503 67.7383C35.5862 66.5414 36.3695 65.4718 37.3488 64.5997Z" fill="#CFCFCF"></path><path d="M39.3856 44.57V49.8885C39.3856 52.3058 40.3459 54.6241 42.0552 56.3333C43.7644 58.0426 46.0827 59.0029 48.5 59.0029C50.9173 59.0029 53.2356 58.0426 54.9449 56.3333C56.6541 54.6241 57.6144 52.3058 57.6144 49.8885V44.57C57.6144 42.1527 56.6541 39.8344 54.9449 38.1251C53.2356 36.4158 50.9173 35.4556 48.5 35.4556C46.0827 35.4556 43.7644 36.4158 42.0552 38.1251C40.3459 39.8344 39.3856 42.1527 39.3856 44.57ZM55.341 44.57V49.8885C55.341 51.7028 54.6202 53.4428 53.3373 54.7258C52.0544 56.0087 50.3143 56.7294 48.5 56.7294C46.6857 56.7294 44.9457 56.0087 43.6627 54.7258C42.3798 53.4428 41.6591 51.7028 41.6591 49.8885V44.57C41.6591 42.7556 42.3798 41.0156 43.6627 39.7327C44.9457 38.4497 46.6857 37.729 48.5 37.729C50.3143 37.729 52.0544 38.4497 53.3373 39.7327C54.6202 41.0156 55.341 42.7556 55.341 44.57Z" fill="black"></path><path d="M76.7853 39.9624C74.5612 39.9649 72.4288 40.8496 70.8561 42.4223C69.2833 43.995 68.3987 46.1274 68.3962 48.3516V53.1864C68.3962 55.4114 69.28 57.5452 70.8533 59.1185C72.4266 60.6917 74.5604 61.5756 76.7853 61.5756C79.0103 61.5756 81.1441 60.6917 82.7174 59.1185C84.2907 57.5452 85.1745 55.4114 85.1745 53.1864V48.3516C85.172 46.1274 84.2874 43.995 82.7146 42.4223C81.1419 40.8496 79.0095 39.9649 76.7853 39.9624ZM82.9011 53.1862C82.9011 54.8082 82.2568 56.3638 81.1098 57.5107C79.9629 58.6576 78.4073 59.302 76.7853 59.302C75.1634 59.302 73.6078 58.6576 72.4609 57.5107C71.3139 56.3638 70.6696 54.8082 70.6696 53.1862V48.3514C70.6696 46.7294 71.3139 45.1738 72.4609 44.0269C73.6078 42.88 75.1634 42.2356 76.7853 42.2356C78.4073 42.2356 79.9629 42.88 81.1098 44.0269C82.2568 45.1738 82.9011 46.7294 82.9011 48.3514V53.1862Z" fill="black"></path><path d="M86.4548 63.2739H83.3984C83.1246 63.2736 82.8621 63.1647 82.6684 62.9711C82.4748 62.7775 82.3659 62.515 82.3655 62.2412C82.3654 61.9735 82.2709 61.7145 82.0986 61.5097C81.9263 61.3049 81.6873 61.1674 81.4236 61.1216C81.1599 61.0757 80.8885 61.1243 80.6572 61.2589C80.4258 61.3935 80.2494 61.6054 80.1589 61.8573L78.9434 65.244C78.7842 65.6876 78.4912 66.0709 78.1048 66.3409C77.7184 66.6109 77.2578 66.7542 76.7864 66.7512C76.3151 66.7481 75.8563 66.5989 75.4735 66.3239C75.0906 66.049 74.8026 65.662 74.6491 65.2163L73.4868 61.8441C73.424 61.6618 73.3158 61.4985 73.1725 61.3696C73.0292 61.2406 72.8555 61.1503 72.6676 61.1069C72.4798 61.0636 72.284 61.0688 72.0987 61.1219C71.9134 61.1751 71.7447 61.2745 71.6084 61.4108L71.5809 61.4381C71.3678 61.6512 71.248 61.9403 71.248 62.2417C71.2477 62.5155 71.1387 62.778 70.9451 62.9716C70.7515 63.1652 70.4889 63.2741 70.2151 63.2744H67.1147C66.624 63.2745 66.134 63.3119 65.6489 63.3862C63.8023 61.9041 61.5049 61.097 59.137 61.0986H55.775C55.4434 61.0986 55.1253 60.9668 54.8908 60.7323C54.6563 60.4978 54.5246 60.1798 54.5246 59.8482C54.5245 59.5805 54.43 59.3215 54.2577 59.1167C54.0854 58.9119 53.8464 58.7745 53.5827 58.7286C53.319 58.6827 53.0476 58.7314 52.8163 58.866C52.5849 59.0005 52.4085 59.2124 52.3181 59.4643L50.9818 63.1899C50.7987 63.7001 50.4618 64.1408 50.0175 64.4512C49.5732 64.7617 49.0435 64.9265 48.5015 64.9231C47.9595 64.9196 47.4319 64.7479 46.9917 64.4318C46.5514 64.1157 46.2201 63.6707 46.0435 63.1583L44.7649 59.4479C44.7021 59.2655 44.5938 59.1021 44.4504 58.9732C44.307 58.8442 44.1331 58.7538 43.9451 58.7106C43.7571 58.6673 43.5613 58.6726 43.3759 58.726C43.1905 58.7793 43.0218 58.879 42.8856 59.0155L42.8554 59.0457C42.6429 59.2587 42.5235 59.5474 42.5235 59.8484C42.5235 60.18 42.3918 60.498 42.1573 60.7325C41.9228 60.967 41.6047 61.0988 41.2731 61.0988H37.863C35.4946 61.0971 33.1967 61.9044 31.3499 63.3872C30.8653 63.3125 30.3757 63.2748 29.8853 63.2744H26.8288C26.555 63.2741 26.2925 63.1652 26.0989 62.9716C25.9052 62.778 25.7963 62.5155 25.7959 62.2417C25.7959 61.9741 25.7014 61.715 25.5291 61.5102C25.3568 61.3054 25.1177 61.168 24.854 61.1221C24.5903 61.0763 24.3189 61.1249 24.0876 61.2595C23.8563 61.3941 23.6798 61.606 23.5894 61.8579L22.3744 65.244C22.2151 65.6876 21.9221 66.0708 21.5357 66.3408C21.1493 66.6108 20.6887 66.7541 20.2174 66.7511C19.746 66.748 19.2873 66.5988 18.9044 66.3238C18.5215 66.0489 18.2334 65.662 18.0799 65.2163L16.9176 61.8441C16.8548 61.6618 16.7466 61.4984 16.6033 61.3694C16.4599 61.2405 16.2861 61.1501 16.0982 61.1068C15.9103 61.0634 15.7145 61.0686 15.5292 61.1219C15.3438 61.1751 15.1751 61.2746 15.0388 61.411L15.0115 61.4383C14.7985 61.6514 14.6788 61.9404 14.6788 62.2417C14.6785 62.5155 14.5696 62.778 14.376 62.9716C14.1824 63.1652 13.9199 63.2741 13.6461 63.2744H10.5453C8.00076 63.2773 5.56123 64.2894 3.76189 66.0887C1.96255 67.8879 0.950324 70.3274 0.947266 72.8719V86.1681C0.947266 86.4696 1.06703 86.7587 1.2802 86.9719C1.49338 87.1851 1.78251 87.3048 2.08398 87.3048H94.916C95.2175 87.3048 95.5066 87.1851 95.7198 86.9719C95.933 86.7587 96.0527 86.4696 96.0527 86.1681V72.8719C96.0499 70.3273 95.0378 67.8877 93.2384 66.0883C91.4391 64.2889 88.9995 63.2768 86.4548 63.2739ZM27.419 71.5424V85.0314H3.2207V72.8719C3.22291 70.93 3.99532 69.0682 5.36848 67.6951C6.74163 66.3219 8.6034 65.5495 10.5453 65.5473H13.6457C14.3381 65.5483 15.0131 65.3307 15.5746 64.9255L15.9302 65.9578C16.2372 66.8485 16.813 67.6219 17.5783 68.1712C18.3436 68.7206 19.2606 69.0189 20.2026 69.0249C21.1447 69.0309 22.0653 68.7443 22.8375 68.2047C23.6098 67.6651 24.1954 66.8991 24.5137 66.0124L24.903 64.9278C25.4342 65.3104 26.0675 65.5257 26.7218 65.5464C26.7424 65.5464 26.7635 65.5479 26.7845 65.5479H29.3183C28.0808 67.3017 27.4173 69.3959 27.419 71.5424ZM67.3076 85.0314H29.6924V71.5424C29.6949 69.3762 30.5566 67.2994 32.0883 65.7677C33.62 64.236 35.6968 63.3745 37.863 63.372H41.2731C42.0638 63.3729 42.8316 63.1066 43.4518 62.6163L43.8938 63.8994C44.2238 64.857 44.8428 65.6884 45.6655 66.2791C46.4883 66.8697 47.474 67.1904 48.4868 67.1968C49.4995 67.2033 50.4893 66.8952 51.3195 66.3151C52.1496 65.7349 52.7792 64.9114 53.1213 63.9582L53.6016 62.6199C54.1906 63.084 54.9129 63.3469 55.6625 63.3701C55.6837 63.3714 55.7051 63.372 55.7265 63.372H59.1367C61.3029 63.3745 63.3797 64.2361 64.9115 65.7679C66.4432 67.2997 67.3048 69.3765 67.3072 71.5427L67.3076 85.0314ZM93.7793 85.0314H69.581V71.5424C69.5827 69.3957 68.9191 67.3012 67.6814 65.5473H70.2151C70.9074 65.5482 71.5824 65.3306 72.1437 64.9255L72.4994 65.9578C72.8063 66.8485 73.3822 67.6219 74.1475 68.1712C74.9128 68.7206 75.8298 69.0189 76.7718 69.0249C77.7139 69.0309 78.6345 68.7443 79.4067 68.2047C80.179 67.6651 80.7646 66.8991 81.0829 66.0124L81.4722 64.9278C82.0034 65.3104 82.6367 65.5257 83.291 65.5464C83.3116 65.5464 83.3327 65.5479 83.3535 65.5479H86.4541C88.396 65.5499 90.2579 66.3222 91.6311 67.6952C93.0044 69.0683 93.7769 70.93 93.7793 72.8719V85.0314Z" fill="black"></path><path d="M11.826 48.3516V53.1864C11.826 54.2881 12.043 55.379 12.4646 56.3968C12.8862 57.4146 13.5042 58.3395 14.2832 59.1185C15.0622 59.8975 15.987 60.5154 17.0048 60.937C18.0226 61.3586 19.1135 61.5756 20.2152 61.5756C21.3169 61.5756 22.4078 61.3586 23.4256 60.937C24.4434 60.5154 25.3683 59.8975 26.1473 59.1185C26.9263 58.3395 27.5442 57.4146 27.9658 56.3968C28.3874 55.379 28.6044 54.2881 28.6044 53.1864V48.3516C28.6044 46.1266 27.7205 43.9928 26.1473 42.4195C24.574 40.8463 22.4402 39.9624 20.2152 39.9624C17.9903 39.9624 15.8565 40.8463 14.2832 42.4195C12.7099 43.9928 11.826 46.1266 11.826 48.3516ZM26.331 48.3516V53.1864C26.331 54.8084 25.6866 56.364 24.5397 57.5109C23.3928 58.6578 21.8372 59.3022 20.2152 59.3022C18.5932 59.3022 17.0377 58.6578 15.8907 57.5109C14.7438 56.364 14.0995 54.8084 14.0995 53.1864V48.3516C14.0995 46.7296 14.7438 45.174 15.8907 44.0271C17.0377 42.8802 18.5932 42.2358 20.2152 42.2358C21.8372 42.2358 23.3928 42.8802 24.5397 44.0271C25.6866 45.174 26.331 46.7296 26.331 48.3516Z" fill="black"></path><path d="M58.6183 17.0184L52.2815 16.0821L49.4605 10.3311C49.3671 10.1407 49.2223 9.9802 49.0424 9.86781C48.8626 9.75542 48.6549 9.69558 48.4428 9.69507H48.4399C48.2283 9.69507 48.0208 9.75417 47.841 9.8657C47.6611 9.97722 47.5159 10.1368 47.4218 10.3263L44.5732 16.0633L38.2316 16.9691C38.0217 16.9991 37.8243 17.0873 37.6618 17.2236C37.4993 17.3599 37.3782 17.539 37.3122 17.7405C37.2461 17.9421 37.2378 18.1581 37.2881 18.3642C37.3385 18.5702 37.4454 18.758 37.597 18.9065L42.173 23.3887L41.0742 29.6996C41.0379 29.9086 41.0608 30.1235 41.1402 30.3201C41.2197 30.5167 41.3525 30.6872 41.5238 30.8123C41.6951 30.9373 41.8979 31.012 42.1094 31.0278C42.3209 31.0436 42.5326 30.9999 42.7205 30.9017L48.3975 27.9347L54.0601 30.9292C54.2475 31.0283 54.4589 31.0729 54.6704 31.0582C54.8819 31.0434 55.0851 30.9698 55.257 30.8457C55.4288 30.7215 55.5625 30.5518 55.643 30.3556C55.7235 30.1594 55.7475 29.9447 55.7123 29.7356L54.6447 23.4196L59.2424 18.9595C59.3946 18.8118 59.5025 18.6245 59.5538 18.4187C59.6051 18.2129 59.5979 17.9969 59.5328 17.795C59.4678 17.5931 59.3475 17.4135 59.1857 17.2764C59.0239 17.1393 58.827 17.0502 58.6172 17.0191L58.6183 17.0184ZM52.6339 22.2039C52.5016 22.3322 52.4025 22.4908 52.3451 22.666C52.2878 22.8411 52.2739 23.0276 52.3046 23.2093L53.088 27.8435L48.9331 25.6459C48.7702 25.5597 48.5887 25.5145 48.4044 25.5141C48.2201 25.5137 48.0385 25.558 47.8752 25.6434L43.7099 27.8202L44.5156 23.1898C44.5472 23.0083 44.5341 22.8218 44.4776 22.6464C44.421 22.471 44.3227 22.312 44.1911 22.1831L40.8336 18.8942L45.4862 18.2297C45.6686 18.2037 45.842 18.1336 45.9914 18.0256C46.1408 17.9177 46.2617 17.775 46.3436 17.6099L48.4339 13.4004L50.5036 17.6191C50.5848 17.7846 50.705 17.9278 50.8538 18.0365C51.0026 18.1452 51.1756 18.216 51.3579 18.243L56.0075 18.93L52.6339 22.2039Z" fill="url(#paint0_linear)"></path><path d="M86.4785 21.7243L80.9117 20.9017L78.4336 15.8494C78.3402 15.6589 78.1953 15.4985 78.0154 15.3861C77.8355 15.2737 77.6278 15.2139 77.4157 15.2134H77.413C77.2014 15.2134 76.9939 15.2725 76.8141 15.384C76.6342 15.4955 76.489 15.6551 76.3949 15.8446L73.8922 20.8841L68.3214 21.6798C68.1114 21.7098 67.914 21.7979 67.7516 21.9342C67.5891 22.0705 67.468 22.2495 67.4019 22.4511C67.3359 22.6526 67.3275 22.8686 67.3778 23.0746C67.4281 23.2807 67.535 23.4685 67.6865 23.6169L71.7069 27.5547L70.7418 33.0998C70.7055 33.3088 70.7283 33.5237 70.8077 33.7204C70.8872 33.917 71.0201 34.0876 71.1913 34.2126C71.3626 34.3377 71.5655 34.4124 71.777 34.4282C71.9885 34.444 72.2002 34.4003 72.3882 34.3021L77.3757 31.6954L82.3504 34.3262C82.5378 34.4253 82.7492 34.4699 82.9607 34.4552C83.1722 34.4404 83.3754 34.3668 83.5473 34.2427C83.7191 34.1185 83.8529 33.9488 83.9333 33.7526C84.0138 33.5564 84.0378 33.3417 84.0026 33.1326L83.0648 27.5839L87.1039 23.6655C87.2562 23.5178 87.364 23.3304 87.4154 23.1247C87.4667 22.9189 87.4594 22.7028 87.3944 22.501C87.3293 22.2991 87.2091 22.1194 87.0473 21.9823C86.8855 21.8452 86.6886 21.7561 86.4787 21.7251L86.4785 21.7243ZM81.0528 26.3674C80.9206 26.4957 80.8215 26.6543 80.7641 26.8294C80.7068 27.0045 80.6928 27.191 80.7235 27.3727L81.3771 31.2398L77.9102 29.4064C77.7473 29.3202 77.5658 29.2749 77.3815 29.2744C77.1972 29.2739 77.0156 29.3183 76.8522 29.4038L73.3765 31.2203L74.0489 27.3554C74.0805 27.1739 74.0674 26.9874 74.0109 26.812C73.9543 26.6366 73.856 26.4776 73.7244 26.3487L70.9227 23.6058L74.805 23.0512C74.9875 23.0252 75.1609 22.9551 75.3103 22.8471C75.4596 22.7392 75.5805 22.5965 75.6625 22.4314L77.4066 18.9189L79.1338 22.4399C79.215 22.6053 79.3351 22.7486 79.484 22.8572C79.6328 22.9659 79.8058 23.0368 79.9881 23.0637L83.8677 23.637L81.0528 26.3674Z" fill="url(#paint1_linear)"></path><path d="M28.5292 21.7243L22.9617 20.9017L20.4839 15.8494C20.3904 15.659 20.2456 15.4985 20.0658 15.3861C19.8859 15.2737 19.6782 15.2139 19.4661 15.2134H19.4633C19.2516 15.2134 19.0442 15.2725 18.8643 15.384C18.6844 15.4955 18.5393 15.6551 18.4451 15.8446L15.9425 20.8841L10.3716 21.6798C10.1617 21.7098 9.96433 21.798 9.80188 21.9343C9.63942 22.0706 9.51834 22.2496 9.45231 22.4512C9.38629 22.6527 9.37795 22.8687 9.42825 23.0747C9.47855 23.2807 9.58547 23.4685 9.73694 23.617L13.7571 27.5547L12.7924 33.0991C12.7561 33.3081 12.7789 33.5231 12.8583 33.7197C12.9378 33.9164 13.0707 34.0869 13.242 34.212C13.4133 34.3371 13.6162 34.4118 13.8277 34.4276C14.0393 34.4433 14.251 34.3996 14.439 34.3014L19.4263 31.6954L24.4016 34.3262C24.589 34.4253 24.8004 34.47 25.012 34.4553C25.2235 34.4406 25.4267 34.367 25.5986 34.2428C25.7705 34.1187 25.9042 33.9489 25.9847 33.7527C26.0652 33.5565 26.0892 33.3417 26.054 33.1326L25.116 27.5839L29.1551 23.6655C29.3074 23.5178 29.4152 23.3305 29.4666 23.1247C29.5179 22.9189 29.5106 22.7028 29.4456 22.501C29.3805 22.2991 29.2603 22.1194 29.0985 21.9823C28.9367 21.8452 28.7397 21.7561 28.5299 21.7251L28.5292 21.7243ZM23.1034 26.3674C22.9711 26.4957 22.872 26.6543 22.8146 26.8294C22.7572 27.0045 22.7433 27.191 22.774 27.3727L23.4276 31.2398L19.9606 29.4065C19.7977 29.3202 19.6163 29.2749 19.432 29.2744C19.2476 29.2739 19.066 29.3184 18.9027 29.4038L15.4272 31.2203L16.0993 27.3554C16.1309 27.1739 16.1179 26.9874 16.0614 26.812C16.0049 26.6367 15.9066 26.4776 15.775 26.3487L12.9734 23.6058L16.8556 23.0512C17.0383 23.0253 17.2118 22.9553 17.3614 22.8472C17.5109 22.7392 17.6319 22.5964 17.7139 22.4312L19.4582 18.9187L21.1852 22.4397C21.2664 22.6052 21.3866 22.7484 21.5354 22.8571C21.6843 22.9658 21.8573 23.0366 22.0396 23.0636L25.9193 23.6368L23.1034 26.3674Z" fill="url(#paint2_linear)"></path><defs><linearGradient id="paint0_linear" x1="55.5196" y1="3.03877" x2="31.2062" y2="12.9917" gradientUnits="userSpaceOnUse"><stop stop-color="#F6EA93"></stop><stop offset="0.2458" stop-color="#C49C3C"></stop><stop offset="0.4751" stop-color="#F3DDA2"></stop><stop offset="0.9231" stop-color="#EAC140"></stop><stop offset="1" stop-color="#B4842A"></stop></linearGradient><linearGradient id="paint1_linear" x1="83.787" y1="9.21795" x2="61.8961" y2="18.1744" gradientUnits="userSpaceOnUse"><stop stop-color="#F6EA93"></stop><stop offset="0.2458" stop-color="#C49C3C"></stop><stop offset="0.4751" stop-color="#F3DDA2"></stop><stop offset="0.9231" stop-color="#EAC140"></stop><stop offset="1" stop-color="#B4842A"></stop></linearGradient><linearGradient id="paint2_linear" x1="25.8381" y1="9.21791" x2="3.94649" y2="18.1749" gradientUnits="userSpaceOnUse"><stop stop-color="#F6EA93"></stop><stop offset="0.2458" stop-color="#C49C3C"></stop><stop offset="0.4751" stop-color="#F3DDA2"></stop><stop offset="0.9231" stop-color="#EAC140"></stop><stop offset="1" stop-color="#B4842A"></stop></linearGradient></defs></svg>