<svg xmlns="http://www.w3.org/2000/svg" width="80" height="80" viewBox="0 0 80 80" fill="none"><path d="M6.40625 50.3562V45.9343H1.71875V50.3562C1.71999 51.2591 2.07963 52.1245 2.71863 52.7623C3.35763 53.4001 4.22371 53.7582 5.12656 53.7578H9.81406C8.91121 53.7582 8.04513 53.4001 7.40613 52.7623C6.76713 52.1245 6.40749 51.2591 6.40625 50.3562Z" fill="#CFCFCF"></path><path d="M12.7953 6.82031H17.4828V40.8328H12.7953V6.82031Z" fill="#CFCFCF"></path><path d="M58.9292 28.9941H64.9319C65.1805 28.9941 65.419 28.8954 65.5948 28.7196C65.7706 28.5437 65.8694 28.3053 65.8694 28.0566C65.8694 27.808 65.7706 27.5695 65.5948 27.3937C65.419 27.2179 65.1805 27.1191 64.9319 27.1191H58.9292C58.6806 27.1191 58.4421 27.2179 58.2663 27.3937C58.0905 27.5695 57.9917 27.808 57.9917 28.0566C57.9917 28.3053 58.0905 28.5437 58.2663 28.7196C58.4421 28.8954 58.6806 28.9941 58.9292 28.9941Z" fill="url(#paint0_linear)"></path><path d="M67.6652 29.222C67.8956 29.222 68.1209 29.1536 68.3126 29.0256C68.5042 28.8975 68.6536 28.7155 68.7418 28.5026C68.83 28.2897 68.853 28.0554 68.8081 27.8293C68.7631 27.6033 68.6521 27.3956 68.4892 27.2327C68.3262 27.0697 68.1185 26.9587 67.8925 26.9137C67.6665 26.8688 67.4321 26.8919 67.2192 26.9801C67.0063 27.0683 66.8243 27.2176 66.6962 27.4093C66.5682 27.6009 66.4998 27.8262 66.4998 28.0567C66.5002 28.3656 66.6231 28.6618 66.8415 28.8803C67.06 29.0988 67.3562 29.2217 67.6652 29.222Z" fill="url(#paint1_linear)"></path><path d="M65.6194 0.78125H11.0908C9.9396 0.78162 8.83556 1.23862 8.02091 2.05199C7.20625 2.86535 6.74751 3.96866 6.74531 5.11984V44.997H1.71875C1.47011 44.997 1.23165 45.0958 1.05584 45.2716C0.880022 45.4474 0.78125 45.6859 0.78125 45.9345V50.3564C0.783443 51.5076 1.24221 52.611 2.05689 53.4244C2.87158 54.2378 3.97565 54.6948 5.12687 54.6952H48.9966V52.8202H5.12687C4.47271 52.8203 3.84519 52.561 3.38201 52.099C2.91883 51.6371 2.65782 51.0103 2.65625 50.3561V46.8717H30.6016V47.975C30.6028 48.6749 30.8816 49.3457 31.3768 49.8402C31.872 50.3348 32.5431 50.6128 33.243 50.6131H43.4672C44.1671 50.6129 44.8384 50.3351 45.3337 49.8406C45.8291 49.3461 46.108 48.6752 46.1094 47.9753V46.872H48.9972V44.997H8.62031V5.11984C8.62197 4.46578 8.883 3.83907 9.34614 3.37722C9.80928 2.91537 10.4367 2.65608 11.0908 2.65625H65.6194C66.2734 2.65608 66.9009 2.91537 67.364 3.37722C67.8272 3.83907 68.0882 4.46578 68.0898 5.11984V25.893H69.9648V5.11984C69.9626 3.96866 69.5039 2.86535 68.6892 2.05199C67.8746 1.23862 66.7706 0.78162 65.6194 0.78125ZM44.2344 47.9753C44.2337 48.1781 44.1526 48.3723 44.0089 48.5154C43.8652 48.6585 43.6706 48.7387 43.4678 48.7384H33.243C33.0402 48.7386 32.8456 48.6584 32.702 48.5154C32.5583 48.3723 32.4772 48.1781 32.4766 47.9753V46.872H44.2344V47.9753Z" fill="black"></path><path d="M19.08 12.7068C19.08 12.4581 18.9812 12.2197 18.8054 12.0439C18.6296 11.8681 18.3911 11.7693 18.1425 11.7693C17.8939 11.7693 17.6554 11.8681 17.4796 12.0439C17.3038 12.2197 17.205 12.4581 17.205 12.7068V14.6232C17.205 14.8718 17.3038 15.1103 17.4796 15.2861C17.6554 15.4619 17.8939 15.5607 18.1425 15.5607C18.3911 15.5607 18.6296 15.4619 18.8054 15.2861C18.9812 15.1103 19.08 14.8718 19.08 14.6232V12.7068Z" fill="black"></path><path d="M18.1425 16.9041C17.8939 16.9041 17.6554 17.0028 17.4796 17.1786C17.3038 17.3545 17.205 17.5929 17.205 17.8416V32.0469C17.205 32.2955 17.3038 32.534 17.4796 32.7098C17.6554 32.8856 17.8939 32.9844 18.1425 32.9844C18.3911 32.9844 18.6296 32.8856 18.8054 32.7098C18.9812 32.534 19.08 32.2955 19.08 32.0469V17.8422C19.0801 17.719 19.0559 17.597 19.0088 17.4832C18.9617 17.3694 18.8927 17.266 18.8056 17.1789C18.7186 17.0917 18.6152 17.0226 18.5014 16.9755C18.3876 16.9283 18.2657 16.9041 18.1425 16.9041Z" fill="black"></path><path d="M21.58 40.8325C21.58 41.0812 21.6788 41.3196 21.8546 41.4954C22.0304 41.6713 22.2689 41.77 22.5175 41.77H48.9966V39.895H22.5175C22.2689 39.895 22.0304 39.9938 21.8546 40.1696C21.6788 40.3454 21.58 40.5839 21.58 40.8325Z" fill="black"></path><path d="M63.9153 5.88306H12.7948C12.5462 5.88306 12.3078 5.98183 12.1319 6.15764C11.9561 6.33346 11.8573 6.57192 11.8573 6.82056V40.8327C11.8573 41.0814 11.9561 41.3198 12.1319 41.4957C12.3078 41.6715 12.5462 41.7702 12.7948 41.7702H16.2675C16.5161 41.7702 16.7546 41.6715 16.9304 41.4957C17.1062 41.3198 17.205 41.0814 17.205 40.8327C17.205 40.5841 17.1062 40.3456 16.9304 40.1698C16.7546 39.994 16.5161 39.8952 16.2675 39.8952H13.7323V7.75806H62.9778V25.8931H64.8528V6.82056C64.8528 6.57192 64.754 6.33346 64.5782 6.15764C64.4024 5.98183 64.164 5.88306 63.9153 5.88306Z" fill="black"></path><path d="M78.7631 34.0227V29.3095C78.7618 28.1552 78.3026 27.0485 77.4864 26.2322C76.6701 25.4159 75.5634 24.9567 74.4091 24.9553H52.4131C51.2588 24.9567 50.1521 25.4159 49.3358 26.2322C48.5196 27.0485 48.0604 28.1552 48.0591 29.3095V34.997C47.877 35.062 47.7195 35.1816 47.6081 35.3395C47.4966 35.4974 47.4367 35.686 47.4366 35.8792V38.1569C47.4368 38.3501 47.4967 38.5386 47.6081 38.6965C47.7195 38.8544 47.877 38.974 48.0591 39.0389V40.6916C47.877 40.7565 47.7195 40.8761 47.6081 41.034C47.4967 41.1919 47.4368 41.3804 47.4366 41.5736V43.8514C47.4368 44.0447 47.4967 44.2331 47.6081 44.391C47.7195 44.5489 47.877 44.6685 48.0591 44.7334V74.8645C48.0605 76.0189 48.5196 77.1255 49.3359 77.9418C50.1521 78.758 51.2588 79.2172 52.4131 79.2186H74.4091C75.5634 79.2172 76.6701 78.758 77.4863 77.9418C78.3025 77.1255 78.7617 76.0189 78.7631 74.8645V37.9061C78.9019 37.8231 79.0169 37.7056 79.0967 37.5649C79.1766 37.4243 79.2186 37.2653 79.2188 37.1036V34.8258C79.2187 34.664 79.1767 34.5049 79.0968 34.3642C79.017 34.2234 78.902 34.1057 78.7631 34.0227ZM56.9459 26.8303H69.8763V28.1706C69.8758 28.5259 69.7345 28.8666 69.4833 29.1178C69.232 29.3691 68.8914 29.5104 68.5361 29.5108H58.2861C57.9308 29.5104 57.5902 29.3691 57.3389 29.1178C57.0877 28.8666 56.9464 28.5259 56.9459 28.1706V26.8303ZM76.8881 74.8645C76.8874 75.5218 76.626 76.152 76.1612 76.6167C75.6965 77.0815 75.0663 77.3429 74.4091 77.3436H52.4131C51.7559 77.3429 51.1257 77.0815 50.6609 76.6167C50.1962 76.152 49.9348 75.5218 49.9341 74.8645V29.3095C49.9348 28.6523 50.1962 28.0221 50.6609 27.5573C51.1257 27.0925 51.7558 26.8311 52.4131 26.8303H55.0709V28.1706C55.0719 29.0231 55.4109 29.8403 56.0137 30.443C56.6164 31.0458 57.4337 31.3848 58.2861 31.3858H68.5361C69.3885 31.3848 70.2057 31.0458 70.8085 30.443C71.4113 29.8403 71.7503 29.0231 71.7513 28.1706V26.8303H74.4091C75.0663 26.8311 75.6965 27.0925 76.1613 27.5573C76.626 28.0221 76.8874 28.6523 76.8881 29.3095V74.8645Z" fill="url(#paint2_linear)"></path><defs><linearGradient id="paint0_linear" x1="64.4344" y1="26.535" x2="61.7335" y2="30.9793" gradientUnits="userSpaceOnUse"><stop stop-color="#F6EA93"></stop><stop offset="0.2458" stop-color="#C49C3C"></stop><stop offset="0.4751" stop-color="#F3DDA2"></stop><stop offset="0.9231" stop-color="#EAC140"></stop><stop offset="1" stop-color="#B4842A"></stop></linearGradient><linearGradient id="paint1_linear" x1="68.4059" y1="26.1653" x2="65.8373" y2="27.1713" gradientUnits="userSpaceOnUse"><stop stop-color="#F6EA93"></stop><stop offset="0.2458" stop-color="#C49C3C"></stop><stop offset="0.4751" stop-color="#F3DDA2"></stop><stop offset="0.9231" stop-color="#EAC140"></stop><stop offset="1" stop-color="#B4842A"></stop></linearGradient><linearGradient id="paint2_linear" x1="73.4293" y1="8.05021" x2="35.0482" y2="16.8545" gradientUnits="userSpaceOnUse"><stop stop-color="#F6EA93"></stop><stop offset="0.2458" stop-color="#C49C3C"></stop><stop offset="0.4751" stop-color="#F3DDA2"></stop><stop offset="0.9231" stop-color="#EAC140"></stop><stop offset="1" stop-color="#B4842A"></stop></linearGradient></defs></svg>