<svg xmlns="http://www.w3.org/2000/svg" width="80" height="80" viewBox="0 0 80 80" fill="none"><path d="M4.21875 48.0017V56.1595C4.21875 61.1314 8.125 65.1627 13.125 65.1845V63.8478C11.8329 63.0237 10.7692 61.8875 10.0319 60.5439C9.29457 59.2004 8.90746 57.6928 8.90625 56.1603V48.0017C8.90731 46.4691 9.29435 44.9615 10.0317 43.618C10.769 42.2744 11.8328 41.1382 13.125 40.3142V38.9783C8.125 39.0001 4.21875 43.0314 4.21875 48.0017Z" fill="#CFCFCF"></path><path d="M56.8305 14.3357C59.5098 16.9415 61.6406 20.0572 63.0973 23.4992C64.554 26.9412 65.3072 30.6399 65.3125 34.3774V40.1563H67.1875V34.3774C67.1822 30.3662 66.3695 26.3972 64.7981 22.7066C63.2266 19.0161 60.9283 15.6797 58.0403 12.896C58.448 12.0707 58.5532 11.1286 58.3377 10.2337C58.1222 9.33885 57.5995 8.54795 56.8608 7.99882C51.2187 3.81869 44.3827 1.56226 37.3608 1.56226C30.3389 1.56226 23.5029 3.81869 17.8608 7.99882C17.1266 8.55125 16.6062 9.34064 16.3878 10.2331C16.1694 11.1255 16.2664 12.066 16.6625 12.8951C13.7727 15.6784 11.4724 19.0146 9.89832 22.7052C8.32425 26.3957 7.50863 30.3652 7.5 34.3774V40.3126H9.375V34.3774C9.38365 30.639 10.1399 26.9401 11.5992 23.4983C13.0584 20.0565 15.1913 16.9413 17.8723 14.336C18.5494 14.8315 19.3666 15.0988 20.2056 15.0993C21.0448 15.0994 21.8617 14.8295 22.5356 14.3294C26.8245 11.1525 32.0207 9.43756 37.3581 9.43756C42.6955 9.43756 47.8917 11.1525 52.1806 14.3294C52.8531 14.8277 53.6676 15.0972 54.5045 15.0983C55.3415 15.0995 56.1567 14.8322 56.8305 14.3357ZM21.4242 12.823C21.0155 13.1245 20.5092 13.2629 20.004 13.2114C19.4988 13.1598 19.0308 12.922 18.6914 12.5443C18.4966 12.3304 18.3488 12.0781 18.2575 11.8036C18.1662 11.5291 18.1333 11.2385 18.1611 10.9505C18.187 10.6656 18.2731 10.3894 18.4137 10.1402C18.5544 9.89099 18.7463 9.67451 18.9769 9.50507C24.2958 5.56452 30.7401 3.43741 37.3597 3.43741C43.9792 3.43741 50.4236 5.56452 55.7425 9.50507C55.9731 9.67449 56.165 9.89094 56.3056 10.1401C56.4463 10.3893 56.5324 10.6654 56.5583 10.9504C56.586 11.2383 56.5532 11.5289 56.4618 11.8034C56.3705 12.0779 56.2227 12.3302 56.028 12.5441C55.6885 12.9218 55.2205 13.1596 54.7153 13.2111C54.2101 13.2626 53.7038 13.1242 53.295 12.8229C48.6844 9.40657 43.098 7.56241 37.3596 7.56241C31.6213 7.56241 26.0348 9.40657 21.4242 12.8229V12.823Z" fill="url(#paint0_linear)"></path><path d="M18.5938 65.1842V38.978C18.5938 38.4603 18.1532 37.9688 17.6353 37.9688H13.1753C7.68253 37.9688 3.28128 42.5092 3.28128 48.0022V56.16C3.27572 57.4627 3.52756 58.7537 4.02232 59.9589C4.51709 61.164 5.24504 62.2595 6.16437 63.1826C7.08371 64.1056 8.17632 64.8379 9.37947 65.3375C10.5826 65.8371 11.8726 66.0941 13.1753 66.0937H17.6353C17.7581 66.0972 17.8803 66.0765 17.9949 66.0326C18.1096 65.9887 18.2145 65.9226 18.3035 65.8381C18.3926 65.7536 18.4641 65.6523 18.5139 65.5401C18.5637 65.4279 18.5908 65.307 18.5938 65.1842ZM5.15628 56.16V48.0022C5.15628 43.8742 8.12503 40.4611 12.1875 39.9767V64.1855C8.12503 63.7011 5.15628 60.288 5.15628 56.16ZM16.7188 64.2187H14.0625V39.8437H16.7188V64.2187Z" fill="black"></path><path d="M70.119 42.9034C69.2408 41.4078 67.9885 40.1663 66.4852 39.3012C64.9819 38.436 63.2794 37.9768 61.545 37.9688H57.085C56.8236 37.9828 56.5769 38.0942 56.3935 38.281C56.21 38.4677 56.1031 38.7164 56.0937 38.978V65.1842C56.0937 65.7019 56.5672 66.0938 57.085 66.0938H58.9062V69.0094C58.896 70.3544 58.354 71.6407 57.3986 72.5874C56.4432 73.5342 55.1521 74.0645 53.807 74.0625H44.6875V72.5187C44.6741 72.2619 44.5632 72.0199 44.3773 71.8421C44.1914 71.6644 43.9447 71.5643 43.6875 71.5625H34.2764C33.3647 71.5625 32.4904 71.9247 31.8457 72.5693C31.2011 73.214 30.8389 74.0883 30.8389 75C30.8389 75.9117 31.2011 76.786 31.8457 77.4307C32.4904 78.0753 33.3647 78.4375 34.2764 78.4375H43.6875C44.2051 78.4375 44.6875 78.0177 44.6875 77.5V75.9375H53.807C57.6323 75.9375 60.7812 72.8347 60.7812 69.0094V66.0938H61.545C63.2755 66.0953 64.9765 65.6455 66.4801 64.7889C67.9837 63.9322 69.2379 62.6983 70.119 61.2089C72.0558 60.5849 73.7446 59.3626 74.9426 57.7179C76.1407 56.0733 76.7861 54.0909 76.7861 52.0562C76.7861 50.0214 76.1407 48.0391 74.9426 46.3944C73.7446 44.7497 72.0558 43.5274 70.119 42.9034ZM32.7233 75C32.7233 74.5872 32.8866 74.1912 33.1776 73.8984C33.4686 73.6057 33.8636 73.44 34.2764 73.4375H37.3437V76.5625H34.2764C33.8636 76.56 33.4686 76.3943 33.1776 76.1016C32.8866 75.8088 32.7233 75.4128 32.7233 75ZM42.8125 76.5625H39.2187V73.4375H42.8125V76.5625ZM57.9687 39.8438H60.625V64.2188H57.9687V39.8438ZM62.5 64.1855V39.9767C64.4725 40.2032 66.2935 41.1451 67.6182 42.6242C68.9428 44.1033 69.679 46.0167 69.6875 48.0022V56.16C69.679 58.1455 68.9428 60.0589 67.6182 61.538C66.2935 63.017 64.4725 63.959 62.5 64.1855ZM71.2076 58.6914C71.4342 57.8664 71.5534 57.0156 71.5625 56.1602V48.0023C71.5534 47.1469 71.4342 46.2961 71.2076 45.4711C72.3463 46.1583 73.2881 47.1279 73.9419 48.286C74.5956 49.4441 74.9392 50.7515 74.9392 52.0814C74.9392 53.4113 74.5956 54.7187 73.9419 55.8768C73.2881 57.0349 72.3463 58.0046 71.2076 58.6917V58.6914Z" fill="black"></path><path d="M9.21875 46.2666C8.97011 46.2666 8.73165 46.3654 8.55584 46.5412C8.38002 46.717 8.28125 46.9555 8.28125 47.2041V59.0489C8.28125 59.2976 8.38002 59.536 8.55584 59.7119C8.73165 59.8877 8.97011 59.9864 9.21875 59.9864C9.46739 59.9864 9.70585 59.8877 9.88166 59.7119C10.0575 59.536 10.1562 59.2976 10.1562 59.0489V47.2041C10.1562 46.9555 10.0575 46.717 9.88166 46.5412C9.70585 46.3654 9.46739 46.2666 9.21875 46.2666Z" fill="black"></path><path d="M9.21875 42.3269C8.97011 42.3269 8.73165 42.4257 8.55584 42.6015C8.38002 42.7773 8.28125 43.0158 8.28125 43.2644V44.0197C8.28125 44.2684 8.38002 44.5068 8.55584 44.6826C8.73165 44.8584 8.97011 44.9572 9.21875 44.9572C9.46739 44.9572 9.70585 44.8584 9.88166 44.6826C10.0575 44.5068 10.1562 44.2684 10.1562 44.0197V43.2644C10.1562 43.0158 10.0575 42.7773 9.88166 42.6015C9.70585 42.4257 9.46739 42.3269 9.21875 42.3269Z" fill="black"></path><defs><linearGradient id="paint0_linear" x1="56.3147" y1="-10.51" x2="0.686452" y2="23.0488" gradientUnits="userSpaceOnUse"><stop stop-color="#F6EA93"></stop><stop offset="0.2458" stop-color="#C49C3C"></stop><stop offset="0.4751" stop-color="#F3DDA2"></stop><stop offset="0.9231" stop-color="#EAC140"></stop><stop offset="1" stop-color="#B4842A"></stop></linearGradient></defs></svg>