<svg xmlns="http://www.w3.org/2000/svg" width="19" height="15" viewBox="0 0 19 15" fill="none">
  <path d="M8.39747 7.40236C8.88367 7.73312 9.73678 7.73316 10.2231 7.40233C10.2232 7.40229 10.2233 7.40222 10.2233 7.40218L18.5103 1.7648C18.2385 0.962639 17.4913 0.384766 16.614 0.384766H2.00643C1.12906 0.384766 0.381956 0.962639 0.110107 1.7648L8.39721 7.40222C8.39732 7.40229 8.3974 7.40229 8.39747 7.40236Z" fill="white"></path>
  <path d="M10.8283 8.32884C10.8282 8.32892 10.8282 8.32899 10.8281 8.32903C10.4025 8.61852 9.85619 8.76328 9.31006 8.76328C8.76382 8.76328 8.21772 8.61856 7.79211 8.32899C7.79203 8.32895 7.792 8.32892 7.79192 8.32888L0 3.02832V12.5682C0 13.6969 0.899991 14.6153 2.00626 14.6153H16.6139C17.7202 14.6153 18.6201 13.6969 18.6201 12.5682V3.02832L10.8283 8.32884Z" fill="white"></path>
</svg>