<svg xmlns="http://www.w3.org/2000/svg" width="19" height="19" viewBox="0 0 19 19" fill="none">
  <path d="M17.9904 13.4867L16.0124 11.5506C15.5593 11.107 14.9561 10.8871 14.3574 10.9473C13.8409 10.9992 13.3861 11.2657 13.1096 11.6783L12.4012 12.7351C11.5815 12.5659 9.45114 12.0018 7.90483 10.4882C6.35835 8.97446 5.78196 6.88881 5.60925 6.08709L6.68904 5.3937C7.11057 5.12299 7.38274 4.67785 7.43584 4.17238C7.49737 3.58645 7.27266 2.99601 6.81945 2.55236L4.84146 0.61632C4.23158 0.0193256 3.34691 -0.165386 2.64007 0.156694C1.30837 0.763335 0.410749 2.00755 0.112464 3.65999C-0.160474 5.1719 0.0656223 6.91867 0.766313 8.71154C1.50501 10.6016 2.73797 12.4253 4.33196 13.9855C5.9259 15.5457 7.78911 16.7526 9.72004 17.4756C11.0474 17.9726 12.3499 18.2256 13.5545 18.2256C14.0121 18.2256 14.4557 18.189 14.8808 18.1155C16.569 17.8235 17.8402 16.9449 18.4599 15.6415C18.7889 14.9496 18.6003 14.0836 17.9904 13.4867Z" fill="white"></path>
</svg>