<svg xmlns="http://www.w3.org/2000/svg" width="100" height="100" viewBox="0 0 100 100" fill="none"><path d="M47.6314 51.8044C45.0894 48.5209 43.4613 44.6234 42.9122 40.5074C42.3631 36.3913 42.9127 32.2033 44.5051 28.3683C46.0974 24.5333 48.676 21.1878 51.9791 18.6712C55.2821 16.1547 59.1921 14.5568 63.3122 14.0396C62.3404 13.9181 61.362 13.8568 60.3826 13.856C57.1696 13.8627 53.992 14.5271 51.0454 15.8082C48.0989 17.0894 45.4459 18.9602 43.2497 21.3054C41.0535 23.6507 39.3607 26.4207 38.2754 29.4448C37.1902 32.469 36.7356 35.6834 36.9396 38.8899C37.1435 42.0964 38.0018 45.2272 39.4614 48.0895C40.9211 50.9518 42.9512 53.485 45.4269 55.5331C47.9025 57.5811 50.7712 59.1007 53.8563 59.9982C56.9414 60.8957 60.1776 61.1521 63.3656 60.7517C60.2816 60.3748 57.303 59.39 54.6022 57.8542C51.9014 56.3184 49.5321 54.2621 47.6314 51.8044V51.8044Z" fill="#CFCFCF"></path><path d="M91.3625 89.8438H76.6061L76.7152 56.9531C76.7158 56.7992 76.6859 56.6467 76.6275 56.5043C76.5691 56.3619 76.4832 56.2325 76.3747 56.1233C76.2662 56.0141 76.1373 55.9273 75.9953 55.868C75.8533 55.8086 75.701 55.7778 75.5471 55.7773H75.5434C75.2332 55.7773 74.9358 55.9003 74.7161 56.1192C74.4964 56.3381 74.3725 56.6352 74.3715 56.9453L74.2623 89.8438H62.5322V62.1174C62.5322 61.8066 62.4088 61.5085 62.189 61.2887C61.9692 61.069 61.6712 60.9455 61.3604 60.9455C61.0496 60.9455 60.7515 61.069 60.5317 61.2887C60.3119 61.5085 60.1885 61.8066 60.1885 62.1174V89.8438H52.2783V60.3061C52.2783 59.9953 52.1549 59.6972 51.9351 59.4774C51.7153 59.2576 51.4172 59.1342 51.1064 59.1342C50.7956 59.1342 50.4976 59.2576 50.2778 59.4774C50.058 59.6972 49.9346 59.9953 49.9346 60.3061V89.8438H38.2031L38.1102 45.133C38.1095 44.8226 37.9857 44.5252 37.766 44.306C37.5463 44.0868 37.2486 43.9637 36.9383 43.9637H36.9357C36.7818 43.964 36.6295 43.9946 36.4875 44.0538C36.3454 44.113 36.2164 44.1996 36.1078 44.3087C35.9993 44.4178 35.9132 44.5471 35.8546 44.6894C35.7961 44.8317 35.7661 44.9842 35.7664 45.1381L35.8594 89.8438H27.9512V23.4914C27.9531 23.0004 27.7602 22.5287 27.4148 22.1797C27.0693 21.8308 26.5996 21.6331 26.1086 21.6301H13.3742C12.8832 21.6331 12.4135 21.8308 12.0681 22.1797C11.7226 22.5287 11.5297 23.0004 11.5316 23.4914V89.8438H4.29688V8.98438C4.29688 8.67357 4.17341 8.3755 3.95364 8.15573C3.73387 7.93596 3.4358 7.8125 3.125 7.8125C2.8142 7.8125 2.51613 7.93596 2.29636 8.15573C2.07659 8.3755 1.95313 8.67357 1.95313 8.98438V90.56C1.95281 90.9906 2.1233 91.4038 2.4272 91.7089C2.73109 92.014 3.14359 92.1861 3.57422 92.1875H91.3625C91.6733 92.1875 91.9714 92.064 92.1911 91.8443C92.4109 91.6245 92.5344 91.3264 92.5344 91.0156C92.5344 90.7048 92.4109 90.4068 92.1911 90.187C91.9714 89.9672 91.6733 89.8438 91.3625 89.8438V89.8438ZM13.8758 23.9738H25.6074V89.8438H13.8758V23.9738Z" fill="black"></path><path d="M75.3059 58.5777L83.3269 68.8972C82.7495 69.6632 82.4401 70.5979 82.4466 71.5571C82.453 72.5163 82.7748 73.4468 83.3625 74.205L90.2023 83.0419C90.5537 83.4982 90.9916 83.8807 91.491 84.1676C91.9903 84.4544 92.5414 84.64 93.1126 84.7136C93.6837 84.7872 94.2638 84.7474 94.8196 84.5965C95.3754 84.4457 95.896 84.1867 96.3515 83.8343C96.8071 83.482 97.1887 83.0433 97.4745 82.5434C97.7603 82.0434 97.9447 81.4919 98.0171 80.9206C98.0895 80.3493 98.0485 79.7693 97.8964 79.2138C97.7444 78.6584 97.4843 78.1383 97.131 77.6835L90.2912 68.8476C89.7059 68.0941 88.8908 67.5521 87.9696 67.3037C87.0484 67.0553 86.0713 67.1141 85.1865 67.4712L77.1611 57.1462C82.2489 52.8371 85.4775 46.7308 86.174 40.0999C86.8705 33.469 84.9812 26.8251 80.8998 21.5528C72.159 10.2607 55.8559 8.18077 44.5576 16.9161C39.2291 21.065 35.7319 27.131 34.8116 33.8212C33.8912 40.5114 35.6204 47.2965 39.6307 52.7301C43.6409 58.1636 49.6149 61.8159 56.2792 62.9082C62.9435 64.0006 69.7708 62.4466 75.3059 58.5777V58.5777ZM88.4377 70.2812L95.2779 79.1183C95.608 79.5456 95.7548 80.0866 95.6861 80.6222C95.6173 81.1578 95.3386 81.6441 94.9112 81.9742C94.4839 82.3043 93.9429 82.4511 93.4073 82.3824C92.8717 82.3136 92.3854 82.0349 92.0553 81.6075L85.2152 72.7706C84.8851 72.3433 84.7383 71.8023 84.807 71.2667C84.8757 70.7311 85.1544 70.2448 85.5817 69.9147C86.0091 69.5845 86.55 69.4377 87.0856 69.5064C87.6212 69.5752 88.1076 69.8538 88.4377 70.2812V70.2812ZM41.7723 51.8046C38.5043 47.5928 36.7589 42.3985 36.8205 37.068C36.882 31.7374 38.7468 26.5848 42.1112 22.4496C45.4755 18.3144 50.141 15.4403 55.3475 14.2956C60.5541 13.1509 65.9948 13.8031 70.7834 16.1459C75.5719 18.4886 79.4259 22.3839 81.7176 27.1971C84.0093 32.0103 84.6036 37.4577 83.4035 42.6518C82.2035 47.8459 79.28 52.4805 75.1092 55.8006C70.9384 59.1207 65.7662 60.9306 60.4353 60.9355C56.8312 60.9547 53.2713 60.1405 50.0339 58.5565C46.7964 56.9725 43.9688 54.6616 41.7721 51.8042L41.7723 51.8046Z" fill="url(#paint0_linear)"></path><path d="M61.981 24.2002V22.2715C61.981 21.9607 61.8576 21.6626 61.6378 21.4428C61.418 21.2231 61.12 21.0996 60.8092 21.0996C60.4984 21.0996 60.2003 21.2231 59.9805 21.4428C59.7607 21.6626 59.6373 21.9607 59.6373 22.2715V24.2031C58.3714 24.3597 57.1902 24.9223 56.2709 25.8064C54.3793 27.6477 54.2675 30.2631 54.2787 31.0213C54.3197 33.917 56.4828 36.3627 59.539 36.9689L59.8552 37.0322C60.0828 37.0777 60.3498 37.1313 60.5174 37.1639C60.6293 37.1855 60.8914 37.2658 61.017 37.3043C61.0653 37.319 61.1127 37.3367 61.159 37.357C61.174 37.3637 61.1896 37.3701 61.205 37.3766L61.6367 37.5449C61.6824 37.5627 61.727 37.5829 61.7705 37.6055C61.9802 37.7141 62.0359 37.7471 62.1841 37.8352C62.2441 37.8707 62.3158 37.9133 62.4117 37.9693L62.4642 38.0029C62.4773 38.0115 62.4922 38.0211 62.509 38.0313C62.9718 38.3168 65.2851 39.8559 65.3785 42.1242C65.4343 43.4809 65.0709 44.5598 64.2984 45.3307C63.2619 46.3658 61.5336 46.7744 60.2826 46.7201C58.8306 46.6578 56.1117 45.4008 55.8611 43.1178C55.8466 42.963 55.8014 42.8127 55.7283 42.6755C55.6551 42.5384 55.5554 42.4171 55.4349 42.3189C55.3144 42.2207 55.1756 42.1474 55.0265 42.1033C54.8775 42.0593 54.7211 42.0453 54.5666 42.0622C54.4121 42.0792 54.2625 42.1267 54.1265 42.202C53.9905 42.2774 53.8709 42.379 53.7745 42.501C53.6782 42.623 53.6071 42.763 53.5654 42.9127C53.5237 43.0625 53.5122 43.219 53.5316 43.3732C53.8929 46.6695 57.1423 48.6617 59.6375 49.0105V50.6719C59.6375 50.9827 59.7609 51.2807 59.9807 51.5005C60.2005 51.7203 60.4985 51.8438 60.8093 51.8438C61.1201 51.8438 61.4182 51.7203 61.638 51.5005C61.8578 51.2807 61.9812 50.9827 61.9812 50.6719V48.9367C63.3531 48.6975 64.8328 48.1084 65.9541 46.9896C67.1922 45.7539 67.8029 44.0381 67.7203 42.0287C67.582 38.6703 64.6519 36.6014 63.7359 36.0344L63.6519 35.9803C63.6402 35.973 63.6283 35.9656 63.6164 35.9588C63.5158 35.9002 63.4427 35.8568 63.382 35.8209C63.2051 35.7158 63.1086 35.6594 62.8509 35.526C62.7336 35.4652 62.6131 35.4107 62.49 35.3627L62.0785 35.2021C61.9564 35.1498 61.8315 35.1042 61.7045 35.0654C61.4381 34.9838 61.181 34.907 60.9662 34.8654C60.8021 34.8334 60.54 34.7809 60.3168 34.7361L59.9963 34.6723C57.6959 34.2158 56.6447 32.4941 56.6234 30.9902C56.6082 29.916 56.9373 28.4326 57.9072 27.4887C58.656 26.7598 59.722 26.4186 61.0861 26.4746C62.1522 26.4863 63.1859 26.8426 64.0327 27.4904C64.8795 28.1381 65.494 29.0425 65.7843 30.0684C65.856 30.3708 66.0449 30.6324 66.3094 30.7956C66.5739 30.9587 66.8925 31.0101 67.1949 30.9385C67.4973 30.8668 67.7589 30.6779 67.9221 30.4134C68.0853 30.1489 68.1367 29.8304 68.065 29.5279C67.6946 28.1361 66.9182 26.8861 65.8346 25.9372C64.7511 24.9884 63.4096 24.3837 61.981 24.2002V24.2002Z" fill="url(#paint1_linear)"></path><defs><linearGradient id="paint0_linear" x1="86.4878" y1="-11.3018" x2="14.1307" y2="13.2629" gradientUnits="userSpaceOnUse"><stop stop-color="#F6EA93"></stop><stop offset="0.2458" stop-color="#C49C3C"></stop><stop offset="0.4751" stop-color="#F3DDA2"></stop><stop offset="0.9231" stop-color="#EAC140"></stop><stop offset="1" stop-color="#B4842A"></stop></linearGradient><linearGradient id="paint1_linear" x1="65.4417" y1="11.5216" x2="47.5328" y2="14.8466" gradientUnits="userSpaceOnUse"><stop stop-color="#F6EA93"></stop><stop offset="0.2458" stop-color="#C49C3C"></stop><stop offset="0.4751" stop-color="#F3DDA2"></stop><stop offset="0.9231" stop-color="#EAC140"></stop><stop offset="1" stop-color="#B4842A"></stop></linearGradient></defs></svg>