<svg xmlns="http://www.w3.org/2000/svg" width="100" height="100" viewBox="0 0 100 100" fill="none"><path d="M34.9609 63.2772V36.9141L34.9961 36.9232C34.9961 35.9762 35.9746 35.0762 37.6289 34.373C39.4777 33.5844 42.1695 33.0111 45.2762 32.7867C45.0588 32.7711 44.8402 32.7564 44.6191 32.7441C43.877 32.7031 43.1152 32.6816 42.3379 32.6816C38.0137 32.6816 34.1777 33.3457 31.7695 34.373C30.1152 35.0762 29.1367 35.9762 29.1367 36.9232L29.1016 36.9141V63.2772H34.9609Z" fill="#CFCFCF"></path><path d="M15.2344 88.7012V69.9915L15.1844 69.9809C15.6694 69.9608 16.1528 69.9105 16.6316 69.8305C16.9656 69.7749 17.2941 69.7034 17.618 69.6202C16.8154 69.4157 16.0369 69.1262 15.2959 68.7563C13.1934 67.717 11.4609 66.057 10.3326 64.0009C9.20439 61.9447 8.73493 59.5917 8.98774 57.26C9.24054 54.9283 10.2034 52.7306 11.7461 50.964C13.2888 49.1975 15.3369 47.9474 17.6133 47.3829C16.6561 47.1373 15.6718 47.0133 14.6836 47.0139C8.26621 47.0139 3.0625 52.1586 3.0625 58.5034C3.06737 60.6358 3.66635 62.7246 4.79223 64.5356C5.91812 66.3465 7.52636 67.8079 9.43652 68.7557C9.44531 68.7602 9.45449 68.7637 9.46308 68.7682L9.375 68.7501V88.7012C9.375 91.0294 15.3662 92.918 22.6572 92.918C23.6629 92.918 24.6426 92.8809 25.5869 92.8128C19.6875 92.3872 15.2344 90.7081 15.2344 88.7012Z" fill="#CFCFCF"></path><path d="M31.2082 10.0726H27.3102C26.8508 10.0731 26.4105 10.2558 26.0857 10.5806C25.7608 10.9054 25.5781 11.3457 25.5775 11.805V41.5335H23.4258V21.3183C23.4253 20.859 23.2426 20.4186 22.9177 20.0937C22.5929 19.7689 22.1525 19.5862 21.6932 19.5857H17.7951C17.3358 19.5863 16.8954 19.769 16.5706 20.0938C16.2458 20.4186 16.0631 20.859 16.0625 21.3183V41.5332H14.1016V27.0263C14.101 26.567 13.9183 26.1266 13.5935 25.8017C13.2687 25.4769 12.8283 25.2942 12.3689 25.2937H8.47051C8.01113 25.2942 7.5707 25.4769 7.24588 25.8017C6.92105 26.1265 6.73836 26.5669 6.73789 27.0263V41.5335H4.29688V10.0701C4.29688 9.75927 4.17341 9.4612 3.95364 9.24143C3.73387 9.02166 3.4358 8.89819 3.125 8.89819C2.8142 8.89819 2.51613 9.02166 2.29636 9.24143C2.07659 9.4612 1.95313 9.75927 1.95312 10.0701V42.7054C1.95312 43.0162 2.07659 43.3143 2.29636 43.5341C2.51613 43.7538 2.8142 43.8773 3.125 43.8773H29.1365C29.4473 43.8773 29.7454 43.7538 29.9652 43.5341C30.1849 43.3143 30.3084 43.0162 30.3084 42.7054C30.3084 42.3946 30.1849 42.0965 29.9652 41.8768C29.7454 41.657 29.4473 41.5335 29.1365 41.5335H27.9213V12.4164H30.5971V34.3716H32.9408V11.805C32.9403 11.3457 32.7575 10.9054 32.4327 10.5806C32.1079 10.2558 31.6675 10.0731 31.2082 10.0726ZM18.4062 21.9294H21.082V41.5335H18.4062V21.9294ZM9.08203 27.6367H11.7578V41.5328H9.08203V27.6367Z" fill="url(#paint0_linear)"></path><path d="M26.991 9.29952C27.0156 9.30108 27.04 9.30186 27.0642 9.30186C27.3622 9.3016 27.6489 9.18783 27.866 8.98371C28.0831 8.77958 28.2142 8.50043 28.2328 8.20304L28.4058 5.39268L28.407 5.37139C28.4252 4.93785 28.2745 4.51415 27.9865 4.18956C27.9795 4.18116 27.9746 4.17139 27.967 4.163C27.9543 4.14874 27.9387 4.13858 27.9254 4.12511C27.6335 3.82393 27.2392 3.64332 26.8205 3.61905C26.8074 3.61905 26.7945 3.61788 26.7814 3.61768L23.7221 3.54815C23.5682 3.54466 23.4151 3.57152 23.2716 3.62719C23.1281 3.68286 22.9969 3.76625 22.8856 3.8726C22.6609 4.08739 22.5307 4.38266 22.5236 4.69347C22.5166 5.00427 22.6333 5.30514 22.8481 5.52989C23.0629 5.75464 23.3581 5.88486 23.6689 5.8919L24.2709 5.90577L6.39803 21.9409C6.28192 22.0433 6.18723 22.1676 6.11943 22.3067C6.05163 22.4458 6.01205 22.597 6.00299 22.7515C5.99392 22.906 6.01555 23.0607 6.06663 23.2068C6.1177 23.3529 6.19721 23.4874 6.30055 23.6026C6.4039 23.7178 6.52904 23.8114 6.66875 23.878C6.80846 23.9446 6.95998 23.9828 7.11455 23.9905C7.26912 23.9982 7.42369 23.9752 7.56932 23.9229C7.71496 23.8705 7.84878 23.7898 7.96307 23.6855L25.9232 7.57218L25.8931 8.06046C25.8748 8.37027 25.98 8.67472 26.1859 8.90701C26.3917 9.1393 26.6812 9.28046 26.991 9.29952Z" fill="url(#paint1_linear)"></path><path d="M84.4421 4.49487H40.9888C39.7149 4.49606 38.4935 5.00265 37.5927 5.90345C36.6919 6.80424 36.1853 8.02564 36.1841 9.29956V14.5453C36.1841 14.8561 36.3075 15.1541 36.5273 15.3739C36.7471 15.5937 37.0452 15.7171 37.356 15.7171H43.4489V32.7103H45.7927V9.29858C45.7936 8.43208 45.5585 7.58168 45.1128 6.83862H84.4421C86.9065 6.83862 88.9112 8.74409 88.9112 11.0867L88.9276 58.1937H91.2714L91.255 11.0871C91.255 7.45171 88.1987 4.49487 84.4421 4.49487ZM43.4489 9.29858V13.3734H38.5286V9.29858C38.5448 8.65684 38.8111 8.04683 39.2707 7.59866C39.7303 7.15049 40.3468 6.89965 40.9888 6.89965C41.6307 6.89965 42.2472 7.15049 42.7069 7.59866C43.1665 8.04683 43.4328 8.65684 43.4489 9.29858Z" fill="url(#paint2_linear)"></path><path d="M61.707 14.2119H82.2434C82.5542 14.2119 82.8522 14.0884 83.072 13.8687C83.2918 13.6489 83.4152 13.3508 83.4152 13.04C83.4152 12.7292 83.2918 12.4312 83.072 12.2114C82.8522 11.9916 82.5542 11.8682 82.2434 11.8682H61.707C61.3962 11.8682 61.0982 11.9916 60.8784 12.2114C60.6586 12.4312 60.5352 12.7292 60.5352 13.04C60.5352 13.3508 60.6586 13.6489 60.8784 13.8687C61.0982 14.0884 61.3962 14.2119 61.707 14.2119Z" fill="url(#paint3_linear)"></path><path d="M61.707 21.6487H82.2434C82.5542 21.6487 82.8522 21.5252 83.072 21.3054C83.2918 21.0857 83.4152 20.7876 83.4152 20.4768C83.4152 20.166 83.2918 19.8679 83.072 19.6482C82.8522 19.4284 82.5542 19.3049 82.2434 19.3049H61.707C61.3962 19.3049 61.0982 19.4284 60.8784 19.6482C60.6586 19.8679 60.5352 20.166 60.5352 20.4768C60.5352 20.7876 60.6586 21.0857 60.8784 21.3054C61.0982 21.5252 61.3962 21.6487 61.707 21.6487Z" fill="url(#paint4_linear)"></path><path d="M83.1368 26.5518H83.1226L51.0958 26.9334C50.785 26.9352 50.4877 27.0604 50.2692 27.2814C50.0507 27.5024 49.9289 27.8012 49.9307 28.112C49.9325 28.4228 50.0576 28.7202 50.2787 28.9387C50.4997 29.1572 50.7985 29.2789 51.1093 29.2771H51.1236L83.1505 28.8965C83.4613 28.8947 83.7587 28.7695 83.9771 28.5484C84.1956 28.3274 84.3174 28.0286 84.3155 27.7178C84.3137 27.407 84.1885 27.1096 83.9675 26.8911C83.7464 26.6726 83.4476 26.5509 83.1368 26.5527V26.5518Z" fill="url(#paint5_linear)"></path><path d="M83.1276 34.1797H59.6733C59.3625 34.1797 59.0645 34.3032 58.8447 34.5229C58.6249 34.7427 58.5015 35.0408 58.5015 35.3516C58.5015 35.6624 58.6249 35.9604 58.8447 36.1802C59.0645 36.4 59.3625 36.5234 59.6733 36.5234H83.1276C83.4384 36.5234 83.7365 36.4 83.9563 36.1802C84.176 35.9604 84.2995 35.6624 84.2995 35.3516C84.2995 35.0408 84.176 34.7427 83.9563 34.5229C83.7365 34.3032 83.4384 34.1797 83.1276 34.1797Z" fill="url(#paint6_linear)"></path><path d="M83.1274 41.616H60.8149C60.5041 41.616 60.2061 41.7394 59.9863 41.9592C59.7665 42.179 59.6431 42.477 59.6431 42.7878C59.6431 43.0986 59.7665 43.3967 59.9863 43.6165C60.2061 43.8363 60.5041 43.9597 60.8149 43.9597H83.1274C83.4382 43.9597 83.7363 43.8363 83.9561 43.6165C84.1759 43.3967 84.2993 43.0986 84.2993 42.7878C84.2993 42.477 84.1759 42.179 83.9561 41.9592C83.7363 41.7394 83.4382 41.616 83.1274 41.616Z" fill="url(#paint7_linear)"></path><path d="M75.3251 49.053H60.8149C60.5041 49.053 60.2061 49.1764 59.9863 49.3962C59.7665 49.616 59.6431 49.9141 59.6431 50.2249C59.6431 50.5357 59.7665 50.8337 59.9863 51.0535C60.2061 51.2733 60.5041 51.3967 60.8149 51.3967H75.3251C75.6359 51.3967 75.934 51.2733 76.1537 51.0535C76.3735 50.8337 76.497 50.5357 76.497 50.2249C76.497 49.9141 76.3735 49.616 76.1537 49.3962C75.934 49.1764 75.6359 49.053 75.3251 49.053Z" fill="url(#paint8_linear)"></path><path d="M53.965 9.78027C53.6542 9.78027 53.3562 9.90374 53.1364 10.1235C52.9166 10.3433 52.7931 10.6413 52.7931 10.9521V11.0936C51.983 11.3529 51.2932 11.895 50.8495 12.6207C50.4058 13.3465 50.2379 14.2076 50.3764 15.0469C50.5149 15.8862 50.9506 16.6477 51.604 17.1924C52.2574 17.7372 53.0848 18.0288 53.9353 18.0141C54.0995 18.0055 54.2636 18.0304 54.4178 18.0872C54.572 18.1441 54.7131 18.2318 54.8323 18.345C54.9515 18.4581 55.0464 18.5943 55.1113 18.7453C55.1762 18.8963 55.2097 19.059 55.2097 19.2233C55.2097 19.3877 55.1762 19.5503 55.1113 19.7014C55.0464 19.8524 54.9515 19.9886 54.8323 20.1017C54.7131 20.2149 54.572 20.3025 54.4178 20.3594C54.2636 20.4163 54.0995 20.4412 53.9353 20.4326C53.7406 20.4344 53.548 20.3914 53.3725 20.307C53.1969 20.2226 53.0431 20.0991 52.9228 19.9459C52.8291 19.8221 52.7117 19.7182 52.5775 19.6402C52.4432 19.5622 52.2948 19.5117 52.1409 19.4915C51.987 19.4714 51.8306 19.482 51.6808 19.5228C51.531 19.5636 51.3908 19.6337 51.2683 19.7292C51.1459 19.8246 51.0436 19.9434 50.9674 20.0787C50.8913 20.214 50.8428 20.3631 50.8248 20.5173C50.8067 20.6715 50.8195 20.8277 50.8623 20.977C50.9052 21.1262 50.9773 21.2654 51.0744 21.3865C51.514 21.9515 52.1126 22.3719 52.7931 22.5938C52.7952 22.9046 52.9207 23.2018 53.1419 23.4201C53.2514 23.5282 53.3812 23.6137 53.5238 23.6716C53.6664 23.7295 53.8189 23.7588 53.9728 23.7578C54.1267 23.7568 54.2789 23.7255 54.4207 23.6656C54.5625 23.6058 54.6911 23.5186 54.7992 23.4091C54.9073 23.2995 54.9927 23.1698 55.0507 23.0272C55.1086 22.8846 55.1379 22.732 55.1369 22.5781V22.5684C55.9373 22.2968 56.6143 21.748 57.0457 21.0212C57.4771 20.2943 57.6345 19.4372 57.4894 18.6045C57.3444 17.7718 56.9065 17.0183 56.2548 16.4801C55.6031 15.9419 54.7804 15.6543 53.9353 15.6693C53.774 15.6762 53.6128 15.6506 53.4615 15.5942C53.3102 15.5377 53.1717 15.4515 53.0542 15.3406C52.9367 15.2297 52.8427 15.0965 52.7776 14.9486C52.7125 14.8008 52.6777 14.6414 52.6752 14.4799C52.6728 14.3184 52.7027 14.158 52.7632 14.0083C52.8238 13.8585 52.9137 13.7224 53.0277 13.608C53.1418 13.4936 53.2776 13.4032 53.4271 13.3421C53.5766 13.2811 53.7369 13.2506 53.8984 13.2525C53.9207 13.2537 53.9426 13.2559 53.965 13.2559C53.9762 13.2559 53.9871 13.2545 53.9982 13.2543C54.1821 13.2611 54.3624 13.3079 54.5264 13.3914C54.6904 13.4749 54.8343 13.593 54.948 13.7377C55.1393 13.9827 55.42 14.1417 55.7284 14.1798C56.0369 14.2178 56.3478 14.1317 56.5929 13.9405C56.8379 13.7493 56.9969 13.4686 57.0349 13.1601C57.073 12.8517 56.9869 12.5407 56.7957 12.2957C56.3693 11.7476 55.7931 11.335 55.1369 11.1078V10.9516C55.1367 10.6409 55.0132 10.3429 54.7935 10.1233C54.5737 9.90366 54.2757 9.78027 53.965 9.78027Z" fill="url(#paint9_linear)"></path><path d="M40.3174 17.0999C40.0066 17.0999 39.7085 17.2233 39.4887 17.4431C39.269 17.6629 39.1455 17.9609 39.1455 18.2717V18.9358C39.1455 19.2466 39.269 19.5447 39.4887 19.7644C39.7085 19.9842 40.0066 20.1077 40.3174 20.1077C40.6282 20.1077 40.9263 19.9842 41.146 19.7644C41.3658 19.5447 41.4893 19.2466 41.4893 18.9358V18.2717C41.4893 17.9609 41.3658 17.6629 41.146 17.4431C40.9263 17.2233 40.6282 17.0999 40.3174 17.0999Z" fill="url(#paint10_linear)"></path><path d="M40.3174 21.2742C40.0066 21.2742 39.7085 21.3976 39.4887 21.6174C39.269 21.8372 39.1455 22.1352 39.1455 22.446V28.883C39.1455 29.1938 39.269 29.4918 39.4887 29.7116C39.7085 29.9314 40.0066 30.0548 40.3174 30.0548C40.6282 30.0548 40.9263 29.9314 41.146 29.7116C41.3658 29.4918 41.4893 29.1938 41.4893 28.883V22.446C41.4893 22.1352 41.3658 21.8372 41.146 21.6174C40.9263 21.3976 40.6282 21.2742 40.3174 21.2742Z" fill="url(#paint11_linear)"></path><path d="M97.8059 71.737L87.3914 49.7317C87.1154 49.155 86.6317 48.7038 86.0371 48.4686C85.4425 48.2334 84.781 48.2315 84.1852 48.4634L79.7686 50.1872C79.4469 50.3117 79.1544 50.5013 78.9093 50.744C78.6642 50.9867 78.4719 51.2774 78.3443 51.5979C78.2166 51.9183 78.1565 52.2616 78.1676 52.6064C78.1787 52.9511 78.2608 53.2899 78.4088 53.6015L78.8518 54.5317L78.7541 54.5726C77.077 54.9163 75.9059 54.8655 74.1707 54.3829L69.7584 53.1544C68.4436 52.7874 67.0505 52.8097 65.748 53.2187L61.4902 54.553C60.6416 54.8185 59.8512 55.2427 59.1607 55.803C58.2991 55.5465 57.4034 55.4233 56.5045 55.4378L56.7092 36.9122C56.7092 36.9079 56.7092 36.9036 56.7092 36.8993C56.7092 35.7122 55.8971 34.0376 52.0275 32.8017C49.4219 31.9696 45.9803 31.5112 42.3365 31.5112C38.693 31.5112 35.251 31.9696 32.6455 32.8017C28.776 34.0376 27.9639 35.7118 27.9639 36.8993V60.8399C27.712 60.8065 27.4597 60.7758 27.2068 60.7479C27.3431 60.0076 27.4121 59.2565 27.4131 58.5038C27.4131 51.5569 21.7023 45.9052 14.6826 45.9052C7.66289 45.9052 1.95312 51.5567 1.95312 58.5036C1.95911 60.7159 2.54838 62.8874 3.6615 64.7992C4.77462 66.7111 6.37222 68.2956 8.29316 69.3929V88.7007C8.29316 89.888 9.10547 91.5626 12.975 92.7985C15.5805 93.6308 19.0221 94.089 22.666 94.089C26.31 94.089 29.7516 93.6308 32.357 92.7985C36.2266 91.5626 37.0389 89.8884 37.0389 88.7007V88.1317C38.5196 88.4127 40.0239 88.5512 41.5311 88.5454C43.7517 88.5429 45.9643 88.2779 48.1227 87.7558C48.4116 88.3267 48.835 88.8189 49.3564 89.1899C50.0304 89.6713 50.8382 89.9296 51.6664 89.9284C51.8855 89.928 52.1042 89.9099 52.3203 89.8741C52.4045 90.3893 52.5902 90.8827 52.8666 91.3256C53.1429 91.7685 53.5045 92.1521 53.9303 92.4542C54.6038 92.9354 55.4111 93.1935 56.2389 93.1923C56.4574 93.192 56.6755 93.1739 56.891 93.1382C57.0456 94.0655 57.5244 94.9078 58.2421 95.515C58.9597 96.1222 59.8697 96.455 60.8098 96.454C61.4403 96.4556 62.0622 96.3079 62.6246 96.023C63.187 95.738 63.6739 95.3239 64.0455 94.8145L64.841 93.7208L66.3387 94.9087C67.197 95.6313 68.3044 95.9888 69.4232 95.9046C70.5421 95.8203 71.5834 95.3009 72.3238 94.4579C72.8607 93.8443 73.2069 93.0874 73.3199 92.28C74.1005 92.5039 74.9286 92.5013 75.7077 92.2724C76.4868 92.0435 77.1847 91.5977 77.7201 90.9872C78.257 90.3736 78.6031 89.6167 78.7162 88.8093C79.4968 89.0332 80.3249 89.0305 81.104 88.8016C81.8831 88.5727 82.5811 88.1269 83.1164 87.5163C83.6182 86.9417 83.9537 86.2411 84.0867 85.4899C84.9046 85.7947 85.7959 85.8434 86.6422 85.6296C87.4884 85.4158 88.2496 84.9496 88.8246 84.2929L88.876 84.2343C89.2351 83.8232 89.509 83.3449 89.6819 82.8271C89.8547 82.3093 89.9231 81.7624 89.8829 81.218C89.8428 80.6736 89.695 80.1426 89.4481 79.6557C89.2012 79.1689 88.8601 78.7359 88.4445 78.3819L87.5445 77.6122C88.1539 77.1964 88.7103 76.7078 89.2014 76.1573C89.4357 76.4706 89.7398 76.7249 90.0896 76.9001C90.4394 77.0753 90.8252 77.1665 91.2164 77.1665C91.5624 77.1662 91.9046 77.0954 92.2223 76.9583L96.5191 75.114C96.8295 74.9817 97.1099 74.7882 97.3437 74.545C97.5774 74.3018 97.7597 74.014 97.8796 73.6987C97.9995 73.3834 98.0546 73.0471 98.0414 72.7101C98.0283 72.373 97.9473 72.042 97.8033 71.737H97.8059ZM42.3371 33.8544C50.2717 33.8544 54.3641 35.9874 54.366 36.8979V36.8995C54.3639 37.8104 50.2713 39.9433 42.3371 39.9433C34.4029 39.9433 30.308 37.8093 30.308 36.8987C30.308 35.9882 34.401 33.8544 42.3375 33.8544H42.3371ZM30.3084 40.0157C31.0531 40.4196 31.8363 40.7481 32.6463 40.9964C35.252 41.8286 38.6936 42.287 42.3375 42.287C45.9814 42.287 49.423 41.8286 52.0285 40.9964C52.8257 40.7515 53.597 40.4294 54.3316 40.0347L54.2846 44.3017C54.282 44.5288 53.7287 45.3368 51.2881 46.0845C48.9547 46.7985 45.776 47.1919 42.3375 47.1919C34.401 47.1919 30.3084 45.0579 30.3084 44.1476V40.0157ZM42.549 75.3712C42.5378 75.3921 42.5225 75.4105 42.5039 75.4254C42.4854 75.4402 42.4641 75.4512 42.4412 75.4575C42.4168 75.4651 42.3911 75.4676 42.3657 75.4648C42.3403 75.4621 42.3157 75.454 42.2936 75.4413L38.2135 73.1636C38.1945 73.1539 38.1776 73.1405 38.1638 73.1243C38.15 73.108 38.1396 73.0892 38.1331 73.0689C38.1266 73.0486 38.1242 73.0272 38.126 73.006C38.1279 72.9848 38.1339 72.9641 38.1437 72.9452L49.5764 51.2616C49.5878 51.2402 49.6035 51.2213 49.6226 51.2063C49.6416 51.1912 49.6636 51.1803 49.6871 51.1741C49.7045 51.1693 49.7224 51.1669 49.7404 51.1669C49.7749 51.1667 49.8087 51.1761 49.8381 51.194L53.893 53.6386C53.9296 53.6592 53.9568 53.6932 53.9688 53.7335C53.9807 53.7738 53.9766 53.8171 53.9572 53.8544L42.549 75.3712ZM45.0387 75.679L46.443 76.8393L44.4313 79.606C42.1336 80.3052 38.6783 79.8849 37.0383 79.619V75.189C37.0496 75.1954 37.0598 75.203 37.0711 75.2085L41.151 77.4862C41.527 77.698 41.9512 77.8095 42.3828 77.8101C42.6275 77.8099 42.8709 77.7745 43.1055 77.705C43.428 77.6111 43.7284 77.4532 43.9886 77.2408C44.2489 77.0284 44.4638 76.7658 44.6205 76.4687L45.0387 75.679ZM51.0475 49.1872C50.7178 48.9899 50.3476 48.8702 49.9648 48.8372C51.6389 48.4933 53.1143 48.0169 54.2502 47.405L54.2094 51.0933L51.0475 49.1872ZM30.3084 47.2651C31.0532 47.6689 31.8363 47.9974 32.6463 48.2458C35.252 49.0778 38.6936 49.5362 42.3375 49.5362C44.4491 49.5442 46.5582 49.3898 48.6461 49.0745C48.1581 49.3075 47.7578 49.6908 47.5039 50.1683L45.3393 54.2737C44.3677 54.3644 43.3915 54.397 42.416 54.3714H42.3379C34.4014 54.3714 30.3088 52.2374 30.3088 51.3269L30.3084 47.2651ZM30.3084 54.4433C31.0532 54.847 31.8364 55.1755 32.6463 55.4239C35.252 56.256 38.6936 56.7144 42.3375 56.7144H42.4881C43.1104 56.7144 43.5988 56.7144 44.0586 56.7013L41.5094 61.5362C40.2025 61.4972 38.0566 61.3583 35.9104 61.064C32.5836 60.6073 31.0211 60.0202 30.3084 59.6315V54.4433ZM4.29688 58.5036C4.29688 52.8491 8.95625 48.2487 14.6834 48.2487C20.4105 48.2487 25.0701 52.8491 25.0701 58.5036C25.0701 64.1581 20.4107 68.7575 14.6834 68.7575C8.95606 68.7575 4.29688 64.1581 4.29688 58.5036ZM34.6943 88.7007C34.6943 89.6114 30.6018 91.7452 22.6652 91.7452C14.7287 91.7452 10.6361 89.6114 10.6361 88.7007V84.7462C11.3809 85.1499 12.1641 85.4783 12.974 85.7267C15.5795 86.5589 19.0211 87.0171 22.665 87.0171C26.309 87.0171 29.7506 86.5589 32.3561 85.7267C33.1661 85.4783 33.9493 85.1498 34.6941 84.746L34.6943 88.7007ZM34.6943 81.629C34.6943 82.5394 30.6018 84.6731 22.6652 84.6731C14.7355 84.6731 10.6434 82.5429 10.6365 81.6313V77.1438C11.3812 77.5478 12.1643 77.8765 12.9742 78.1251C15.5797 78.9573 19.0213 79.4157 22.6652 79.4157C26.3092 79.4157 29.7508 78.9573 32.3563 78.1251C33.1663 77.8768 33.9495 77.5483 34.6943 77.1446V81.629ZM34.6943 74.0267C34.6943 74.937 30.6018 77.071 22.6652 77.071C14.7424 77.071 10.651 74.9446 10.6367 74.0315V70.4458C12.5594 71.0851 14.606 71.2606 16.6094 70.9579C18.3549 71.2638 19.8754 71.2823 21.868 71.2823H22.665C26.3088 71.2823 29.7506 70.8239 32.3561 69.9917C33.1661 69.7435 33.9493 69.415 34.6941 69.0112L34.6943 74.0267ZM22.6652 68.9382H21.8094C23.9565 67.5001 25.6134 65.4407 26.5584 63.0354C32.3359 63.6019 34.6943 65.2581 34.6943 65.8938C34.6943 66.8042 30.6018 68.9382 22.6652 68.9382ZM35.6477 63.3925C37.3166 63.6194 38.9908 63.7571 40.3004 63.8286L37.0387 70.0161V65.8938C37.0381 64.9136 36.5178 64.0849 35.6477 63.3925ZM37.0381 85.7376V81.9923C38.4218 82.2045 39.8191 82.3162 41.2189 82.3265C41.8644 82.3278 42.5095 82.2942 43.1514 82.2257C43.1074 82.5939 43.115 82.9665 43.174 83.3327C43.2568 83.851 43.4421 84.3475 43.7191 84.7932C43.9961 85.239 44.3593 85.625 44.7873 85.9286C44.8143 85.9481 44.8426 85.9642 44.8699 85.9827C42.4424 86.3028 39.668 86.3229 37.0381 85.7376ZM48.4521 83.6247L48.451 83.6267L48.4338 83.6501C48.178 83.9997 47.7949 84.2346 47.3673 84.3041C46.9397 84.3735 46.5019 84.2719 46.1486 84.0212C45.9736 83.8963 45.8251 83.738 45.7116 83.5554C45.598 83.3728 45.5218 83.1695 45.4873 82.9573C45.4528 82.7451 45.4607 82.5282 45.5105 82.319C45.5603 82.1099 45.6511 81.9127 45.7775 81.7388L50.0172 75.9091C50.2732 75.5591 50.6566 75.324 51.0845 75.2546C51.5125 75.1851 51.9506 75.2869 52.3041 75.538C52.479 75.6627 52.6275 75.8209 52.7409 76.0033C52.8544 76.1857 52.9306 76.3888 52.9651 76.6009C52.9996 76.8129 52.9917 77.0297 52.942 77.2387C52.8922 77.4476 52.8015 77.6447 52.6752 77.8185L48.4521 83.6247ZM53.0078 86.9104C52.7515 87.2605 52.3677 87.4957 51.9394 87.5651C51.5112 87.6346 51.0727 87.5327 50.7189 87.2815C50.5441 87.1569 50.3958 86.9989 50.2824 86.8166C50.169 86.6344 50.0929 86.4314 50.0584 86.2195C50.0239 86.0077 50.0317 85.7911 50.0814 85.5822C50.1311 85.3734 50.2216 85.1765 50.3479 85.0028L53.4213 80.7769C53.677 80.4271 54.0601 80.192 54.4877 80.1226C54.9154 80.0531 55.3532 80.1549 55.7064 80.4058C55.8815 80.5306 56.0301 80.6889 56.1436 80.8715C56.2572 81.0541 56.3334 81.2574 56.3679 81.4696C56.4024 81.6818 56.3945 81.8988 56.3447 82.1079C56.2948 82.3171 56.204 82.5143 56.0775 82.6882L53.0078 86.9104ZM57.5961 90.1503L57.5947 90.1522L57.5777 90.1757C57.3219 90.5253 56.9388 90.7602 56.5112 90.8297C56.0836 90.8991 55.6459 90.7975 55.2926 90.5468C55.1177 90.4219 54.9692 90.2636 54.8558 90.0811C54.7423 89.8985 54.6662 89.6953 54.6317 89.4832C54.5972 89.271 54.605 89.0542 54.6548 88.8451C54.7045 88.636 54.7952 88.4388 54.9215 88.2649L57.0369 85.3561C57.2928 85.0062 57.6762 84.7711 58.1042 84.7017C58.5321 84.6322 58.9702 84.734 59.3236 84.9851C59.4986 85.1098 59.647 85.268 59.7605 85.4504C59.8739 85.6329 59.9501 85.836 59.9846 86.048C60.0191 86.2601 60.0113 86.4769 59.9615 86.6859C59.9118 86.8949 59.8211 87.092 59.6947 87.2657L57.5961 90.1503ZM63.3094 91.8431L62.151 93.4362C61.8946 93.7862 61.5108 94.0213 61.0826 94.0908C60.6543 94.1602 60.2159 94.0584 59.8621 93.8073C59.6873 93.6827 59.5389 93.5247 59.4256 93.3424C59.3122 93.1601 59.236 92.9572 59.2015 92.7453C59.167 92.5335 59.1748 92.3168 59.2245 92.108C59.2742 91.8992 59.3648 91.7022 59.491 91.5286L60.6516 89.9327C60.9076 89.5829 61.2909 89.3479 61.7188 89.2785C62.1466 89.209 62.5846 89.3107 62.9381 89.5616C63.113 89.6863 63.2616 89.8444 63.375 90.0269C63.4885 90.2093 63.5647 90.4124 63.5992 90.6245C63.6337 90.8365 63.6259 91.0533 63.5761 91.2623C63.5263 91.4713 63.4356 91.6684 63.3092 91.8421L63.3094 91.8431ZM87.5477 81.3923C87.5652 81.6273 87.5357 81.8634 87.4608 82.0869C87.386 82.3103 87.2673 82.5166 87.1117 82.6936L87.0605 82.7522C86.7247 83.1376 86.2507 83.3752 85.741 83.4139C85.2313 83.4526 84.7269 83.2893 84.3367 82.9591L78.3316 77.819L78.3041 77.7954C78.0674 77.5979 77.7624 77.5017 77.4552 77.5275C77.148 77.5534 76.8633 77.6992 76.6629 77.9335C76.4625 78.1678 76.3625 78.4716 76.3845 78.7791C76.4066 79.0865 76.5489 79.373 76.7807 79.5763L76.8072 79.5989L81.1627 83.3267C81.3502 83.4874 81.504 83.6838 81.6152 83.9044C81.7263 84.125 81.7926 84.3654 81.8103 84.6118C81.8279 84.8582 81.7965 85.1056 81.7179 85.3398C81.6393 85.574 81.5151 85.7902 81.3523 85.9761C81.0164 86.3583 80.5436 86.593 80.036 86.6295C79.5285 86.6661 79.0269 86.5015 78.6396 86.1714L74.2646 82.4278C74.0277 82.2319 73.7234 82.1369 73.4171 82.1634C73.1108 82.1898 72.8272 82.3355 72.6274 82.5691C72.4275 82.8027 72.3275 83.1054 72.3488 83.4121C72.3701 83.7188 72.511 84.0048 72.7412 84.2085L75.7582 86.7903C75.9472 86.9507 76.1024 87.1471 76.2148 87.368C76.3272 87.5889 76.3945 87.83 76.4128 88.0772C76.4312 88.3244 76.4002 88.5728 76.3216 88.8078C76.2431 89.0429 76.1185 89.2601 75.9553 89.4466C75.6193 89.8287 75.1465 90.0634 74.639 90.0999C74.1315 90.1365 73.63 89.972 73.2428 89.6419L70.2258 87.0601C69.9889 86.8642 69.6845 86.7692 69.3782 86.7956C69.072 86.822 68.7883 86.9677 68.5885 87.2013C68.3887 87.4349 68.2886 87.7376 68.3099 88.0443C68.3312 88.351 68.4721 88.637 68.7023 88.8407L70.3625 90.2608C70.5515 90.4212 70.7067 90.6176 70.8191 90.8385C70.9315 91.0594 70.9989 91.3005 71.0172 91.5477C71.0356 91.7949 71.0045 92.0433 70.926 92.2784C70.8474 92.5135 70.7229 92.7306 70.5596 92.9171C70.2237 93.2994 69.7508 93.5341 69.2433 93.5707C68.7357 93.6072 68.2341 93.4426 67.8469 93.1124L65.9041 91.5694C66.0005 91.0244 65.9815 90.4651 65.8483 89.9279C65.715 89.3906 65.4706 88.8873 65.1307 88.4504C64.7908 88.0135 64.3631 87.6528 63.8751 87.3915C63.3871 87.1303 62.8497 86.9743 62.2977 86.9337C62.385 86.3922 62.3588 85.8385 62.2209 85.3076C62.0829 84.7768 61.8361 84.2804 61.4961 83.85C61.1561 83.4196 60.7304 83.0646 60.2459 82.8074C59.7615 82.5502 59.2288 82.3966 58.6818 82.3561C58.7666 81.8276 58.7434 81.2873 58.6138 80.7679C58.4841 80.2485 58.2506 79.7608 57.9273 79.3341C57.604 78.9074 57.1977 78.5506 56.7328 78.2851C56.2679 78.0197 55.7541 77.8512 55.2223 77.7897C55.4351 76.8936 55.3308 75.9514 54.9271 75.1236C54.5234 74.2957 53.8453 73.6333 53.0082 73.2491C52.1711 72.8649 51.2268 72.7827 50.3359 73.0164C49.445 73.2501 48.6626 73.7853 48.1219 74.531L47.8242 74.9411L46.1596 73.5657L54.3699 58.0796C55.3758 57.802 56.4249 57.7162 57.4625 57.8267C57.3416 58.0432 57.2322 58.266 57.1348 58.494L55.8336 61.6347C55.4996 62.4407 55.1914 63.2694 54.9172 64.0983L53.6188 68.0241C53.5273 68.3007 53.5421 68.6014 53.6603 68.8676C53.7786 69.1339 53.9917 69.3465 54.2582 69.4642L54.5379 69.5876C55.5819 70.0604 56.7283 70.2625 57.8711 70.1752C59.014 70.0878 60.1163 69.7138 61.0764 69.0878C61.9044 68.5477 62.6006 67.8285 63.1136 66.9834C63.6267 66.1383 63.9434 65.1888 64.0404 64.205C64.0467 64.1397 64.0525 64.0739 64.0576 64.0075C64.1176 63.7247 64.5055 62.1179 65.5615 61.986L67.3721 62.4919C68.0399 62.6786 68.65 63.0304 69.1461 63.5149L80.7617 74.8903L86.923 80.1638C87.1036 80.3167 87.2518 80.5042 87.3591 80.7151C87.4663 80.926 87.5303 81.1563 87.5475 81.3923H87.5477ZM85.6768 76.0134L82.3734 73.1884L70.7863 61.8396C70.008 61.0792 69.0508 60.527 68.0029 60.2337L66.007 59.6761C65.9031 59.6455 65.7952 59.6309 65.6869 59.6327C64.3215 59.6384 63.1574 60.3978 62.409 61.7712C62.0915 62.3615 61.8655 62.9966 61.7389 63.6548L61.708 63.9761C61.6442 64.6122 61.4383 65.2258 61.1057 65.7718C60.773 66.3177 60.322 66.782 59.7859 67.1304C59.2595 67.4678 58.6685 67.6918 58.0507 67.7881C57.4329 67.8845 56.8018 67.8511 56.1977 67.6901L57.1426 64.8325C57.3988 64.0581 57.6869 63.2835 57.999 62.5304L59.2957 59.4007C59.5605 58.7818 59.9566 58.2277 60.4566 57.7769C60.9566 57.3261 61.5485 56.9893 62.1914 56.7897L66.4492 55.4554C67.3198 55.1819 68.2511 55.1669 69.1301 55.4124L73.5426 56.6407C75.674 57.2343 77.2477 57.2888 79.3492 56.8425L79.8602 56.6497L88.0389 73.8294C87.4404 74.7384 86.6296 75.488 85.6766 76.0134H85.6768ZM95.6928 72.863C95.6844 72.8849 95.6717 72.9049 95.6553 72.9217C95.6389 72.9385 95.6192 72.9518 95.5975 72.9606L91.3006 74.805C91.2571 74.8243 91.2079 74.8262 91.163 74.8104C91.1181 74.7946 91.081 74.7623 91.0592 74.72L80.525 52.5938C80.5153 52.5744 80.5099 52.5531 80.5092 52.5313C80.5084 52.5096 80.5124 52.4879 80.5207 52.4679C80.5295 52.4455 80.543 52.4252 80.5603 52.4083C80.5775 52.3915 80.5981 52.3785 80.6207 52.3702L85.0373 50.6464C85.0805 50.6292 85.1285 50.6286 85.1721 50.6448C85.2156 50.661 85.2516 50.6928 85.273 50.7341L95.6875 72.7395C95.6969 72.7586 95.7021 72.7795 95.703 72.8007C95.7039 72.822 95.7003 72.8432 95.6926 72.863H95.6928Z" fill="black"></path><path d="M14.8633 65.6406C15.1741 65.6406 15.4722 65.5171 15.6919 65.2973C15.9117 65.0776 16.0352 64.7795 16.0352 64.4687C16.8404 64.2031 17.5237 63.6577 17.9611 62.9314C18.3986 62.2051 18.5612 61.346 18.4194 60.5101C18.2776 59.6742 17.8409 58.9167 17.1884 58.3753C16.536 57.8338 15.711 57.5442 14.8633 57.5589C14.7024 57.566 14.5417 57.5409 14.3906 57.4849C14.2395 57.429 14.1012 57.3435 13.9836 57.2333C13.8661 57.1231 13.7718 56.9906 13.7062 56.8435C13.6407 56.6963 13.6052 56.5376 13.6018 56.3765C13.5985 56.2155 13.6274 56.0554 13.6868 55.9057C13.7462 55.7559 13.835 55.6196 13.9479 55.5047C14.0607 55.3897 14.1954 55.2985 14.3441 55.2364C14.4927 55.1743 14.6522 55.1425 14.8133 55.1429C14.8299 55.1429 14.8465 55.1455 14.8633 55.1455C14.8801 55.1455 14.8945 55.1437 14.9102 55.1429C15.0969 55.1476 15.2802 55.1935 15.4472 55.2771C15.6141 55.3608 15.7605 55.4803 15.876 55.6271C16.0684 55.8686 16.3483 56.0244 16.6549 56.0607C16.9615 56.097 17.2701 56.0108 17.5135 55.8208C17.7569 55.6309 17.9156 55.3525 17.9549 55.0463C17.9943 54.74 17.9111 54.4306 17.7236 54.1853C17.2907 53.629 16.7034 53.2127 16.0352 52.9884V52.8416C16.0352 52.5308 15.9117 52.2327 15.6919 52.0129C15.4722 51.7931 15.1741 51.6697 14.8633 51.6697C14.5525 51.6697 14.2544 51.7931 14.0347 52.0129C13.8149 52.2327 13.6914 52.5308 13.6914 52.8416V52.9935C12.8861 53.259 12.2027 53.8044 11.7651 54.5307C11.3276 55.257 11.165 56.1161 11.3067 56.9521C11.4485 57.7881 11.8853 58.5456 12.5379 59.087C13.1904 59.6284 14.0155 59.918 14.8633 59.9031C15.0274 59.8945 15.1916 59.9194 15.3458 59.9763C15.5 60.0331 15.641 60.1208 15.7602 60.234C15.8795 60.3471 15.9744 60.4833 16.0393 60.6343C16.1042 60.7854 16.1376 60.948 16.1376 61.1124C16.1376 61.2767 16.1042 61.4394 16.0393 61.5904C15.9744 61.7414 15.8795 61.8776 15.7602 61.9907C15.641 62.1039 15.5 62.1916 15.3458 62.2484C15.1916 62.3053 15.0274 62.3302 14.8633 62.3216C14.6685 62.3234 14.4759 62.2804 14.3004 62.196C14.1248 62.1116 13.9709 61.9881 13.8506 61.8349C13.6576 61.5952 13.3781 61.4411 13.0724 61.4058C12.7668 61.3704 12.4594 61.4567 12.2169 61.646C11.9743 61.8354 11.8159 62.1125 11.7759 62.4176C11.7359 62.7227 11.8175 63.0313 12.0031 63.2767C12.4359 63.8333 13.0231 64.25 13.6914 64.4748C13.693 64.7845 13.8172 65.081 14.0368 65.2995C14.2564 65.5179 14.5535 65.6406 14.8633 65.6406Z" fill="black"></path><defs><linearGradient id="paint0_linear" x1="27.296" y1="-1.99915" x2="-7.86224" y2="10.1995" gradientUnits="userSpaceOnUse"><stop stop-color="#F6EA93"></stop><stop offset="0.2458" stop-color="#C49C3C"></stop><stop offset="0.4751" stop-color="#F3DDA2"></stop><stop offset="0.9231" stop-color="#EAC140"></stop><stop offset="1" stop-color="#B4842A"></stop></linearGradient><linearGradient id="paint1_linear" x1="24.3267" y1="-2.82128" x2="0.274878" y2="7.50336" gradientUnits="userSpaceOnUse"><stop stop-color="#F6EA93"></stop><stop offset="0.2458" stop-color="#C49C3C"></stop><stop offset="0.4751" stop-color="#F3DDA2"></stop><stop offset="0.9231" stop-color="#EAC140"></stop><stop offset="1" stop-color="#B4842A"></stop></linearGradient><linearGradient id="paint2_linear" x1="81.2366" y1="-12.2344" x2="20.9439" y2="11.99" gradientUnits="userSpaceOnUse"><stop stop-color="#F6EA93"></stop><stop offset="0.2458" stop-color="#C49C3C"></stop><stop offset="0.4751" stop-color="#F3DDA2"></stop><stop offset="0.9231" stop-color="#EAC140"></stop><stop offset="1" stop-color="#B4842A"></stop></linearGradient><linearGradient id="paint3_linear" x1="79.2474" y1="11.138" x2="77.3851" y2="18.258" gradientUnits="userSpaceOnUse"><stop stop-color="#F6EA93"></stop><stop offset="0.2458" stop-color="#C49C3C"></stop><stop offset="0.4751" stop-color="#F3DDA2"></stop><stop offset="0.9231" stop-color="#EAC140"></stop><stop offset="1" stop-color="#B4842A"></stop></linearGradient><linearGradient id="paint4_linear" x1="79.2474" y1="18.5748" x2="77.3851" y2="25.6947" gradientUnits="userSpaceOnUse"><stop stop-color="#F6EA93"></stop><stop offset="0.2458" stop-color="#C49C3C"></stop><stop offset="0.4751" stop-color="#F3DDA2"></stop><stop offset="0.9231" stop-color="#EAC140"></stop><stop offset="1" stop-color="#B4842A"></stop></linearGradient><linearGradient id="paint5_linear" x1="78.052" y1="25.7027" x2="76.3322" y2="34.2004" gradientUnits="userSpaceOnUse"><stop stop-color="#F6EA93"></stop><stop offset="0.2458" stop-color="#C49C3C"></stop><stop offset="0.4751" stop-color="#F3DDA2"></stop><stop offset="0.9231" stop-color="#EAC140"></stop><stop offset="1" stop-color="#B4842A"></stop></linearGradient><linearGradient id="paint6_linear" x1="79.6001" y1="33.4495" x2="77.9256" y2="40.6681" gradientUnits="userSpaceOnUse"><stop stop-color="#F6EA93"></stop><stop offset="0.2458" stop-color="#C49C3C"></stop><stop offset="0.4751" stop-color="#F3DDA2"></stop><stop offset="0.9231" stop-color="#EAC140"></stop><stop offset="1" stop-color="#B4842A"></stop></linearGradient><linearGradient id="paint7_linear" x1="79.8079" y1="40.8858" x2="78.0643" y2="48.0696" gradientUnits="userSpaceOnUse"><stop stop-color="#F6EA93"></stop><stop offset="0.2458" stop-color="#C49C3C"></stop><stop offset="0.4751" stop-color="#F3DDA2"></stop><stop offset="0.9231" stop-color="#EAC140"></stop><stop offset="1" stop-color="#B4842A"></stop></linearGradient><linearGradient id="paint8_linear" x1="73.4268" y1="48.3228" x2="71.0282" y2="55.0782" gradientUnits="userSpaceOnUse"><stop stop-color="#F6EA93"></stop><stop offset="0.2458" stop-color="#C49C3C"></stop><stop offset="0.4751" stop-color="#F3DDA2"></stop><stop offset="0.9231" stop-color="#EAC140"></stop><stop offset="1" stop-color="#B4842A"></stop></linearGradient><linearGradient id="paint9_linear" x1="56.2281" y1="5.42572" x2="47.4191" y2="7.20608" gradientUnits="userSpaceOnUse"><stop stop-color="#F6EA93"></stop><stop offset="0.2458" stop-color="#C49C3C"></stop><stop offset="0.4751" stop-color="#F3DDA2"></stop><stop offset="0.9231" stop-color="#EAC140"></stop><stop offset="1" stop-color="#B4842A"></stop></linearGradient><linearGradient id="paint10_linear" x1="41.0623" y1="16.1628" x2="38.3368" y2="16.9946" gradientUnits="userSpaceOnUse"><stop stop-color="#F6EA93"></stop><stop offset="0.2458" stop-color="#C49C3C"></stop><stop offset="0.4751" stop-color="#F3DDA2"></stop><stop offset="0.9231" stop-color="#EAC140"></stop><stop offset="1" stop-color="#B4842A"></stop></linearGradient><linearGradient id="paint11_linear" x1="41.0623" y1="18.5387" x2="38.1152" y2="18.8467" gradientUnits="userSpaceOnUse"><stop stop-color="#F6EA93"></stop><stop offset="0.2458" stop-color="#C49C3C"></stop><stop offset="0.4751" stop-color="#F3DDA2"></stop><stop offset="0.9231" stop-color="#EAC140"></stop><stop offset="1" stop-color="#B4842A"></stop></linearGradient></defs></svg>