<svg xmlns="http://www.w3.org/2000/svg" width="100" height="100" viewBox="0 0 100 100" fill="none"><path d="M43.6414 58.5726C42.1834 57.1178 41.028 55.3885 40.2421 53.4847C39.4562 51.5809 39.0553 49.5402 39.0625 47.4806V40.187C39.0594 38.4528 39.4788 36.744 40.2844 35.2083C41.0902 33.6741 42.2659 32.3651 43.7051 31.3997C44.0227 31.187 44.3604 30.9769 44.7084 30.772C44.9817 30.6104 45.2033 30.3741 45.3471 30.091C45.4908 29.8079 45.5508 29.4896 45.5199 29.1735C45.4955 28.8974 45.4042 28.6315 45.2539 28.3985C45.2508 28.3937 45.248 28.3886 45.2445 28.3835L45.2391 28.3856L34.1453 27.8169C33.5678 28.9124 33.2285 33.995 33.0674 37.379C33.0063 38.663 33.0088 39.7032 33.0088 40.1868V44.5062L35.8803 55.6251L35.8912 55.6173C37.503 57.6636 39.5393 59.3361 41.8598 60.5196C41.9184 60.5509 41.9727 60.5802 42.0313 60.6095C44.5107 61.8377 47.241 62.4748 50.008 62.4708C50.0432 62.4708 50.0768 62.4694 50.1117 62.4692C47.6682 61.7203 45.4462 60.3821 43.6414 58.5726Z" fill="#CFCFCF"></path><path d="M31.6956 38.2371C31.7804 38.2804 31.8702 38.3132 31.963 38.3347C36.7974 39.4707 37.0411 39.2918 37.4868 38.9674C37.6263 38.8658 37.7421 38.7353 37.8264 38.5848C37.9107 38.4342 37.9614 38.2673 37.9751 38.0953L38.5731 30.6174L39.5626 30.724C42.5736 31.0455 45.6173 30.6104 48.4177 29.4582C51.2181 28.3059 53.6866 26.473 55.5995 24.1256C59.2746 26.9256 61.8736 30.9056 62.9595 35.3965L63.8331 38.9982C63.874 39.1669 63.9519 39.3244 64.0612 39.4593C64.1704 39.5942 64.3082 39.7032 64.4647 39.7783C64.6212 39.8534 64.7924 39.8929 64.966 39.8937C65.1396 39.8946 65.3112 39.8569 65.4685 39.7834L68.4915 38.3693C68.6025 38.3174 68.7047 38.2484 68.7942 38.1648C69.354 37.644 69.6943 36.9294 69.7458 36.1666L70.1638 30.1172C70.3543 27.3532 69.9744 24.5796 69.0477 21.9686C68.121 19.3577 66.6672 16.9653 64.7767 14.9399C62.8862 12.9146 60.5994 11.2997 58.0584 10.1956C55.5174 9.09149 52.7765 8.52173 50.006 8.52173C47.2354 8.52173 44.4945 9.09149 41.9535 10.1956C39.4125 11.2997 37.1257 12.9146 35.2352 14.9399C33.3447 16.9653 31.8909 19.3577 30.9642 21.9686C30.0375 24.5796 29.6576 27.3532 29.8481 30.1172L30.2583 36.0558C30.2913 36.512 30.4407 36.9521 30.6924 37.334C30.944 37.7159 31.2895 38.0268 31.6956 38.2371ZM36.9495 16.5379C39.4675 13.8403 42.7591 11.9888 46.372 11.2378C49.9849 10.4868 53.7417 10.8733 57.1261 12.344C60.5105 13.8147 63.3563 16.2975 65.2724 19.4511C67.1885 22.6048 68.0809 26.2745 67.8269 29.9558L67.4093 36.0072C67.4011 36.129 67.3598 36.2463 67.2897 36.3463L65.7749 37.0549L65.2382 34.8437C63.9256 29.4167 60.6384 24.6733 56.0177 21.5388C55.7642 21.3667 55.4533 21.3006 55.1517 21.3549C54.8501 21.4091 54.5818 21.5793 54.4042 21.8291C52.7734 24.1193 50.5626 25.9343 47.9986 27.0879C45.4347 28.2415 42.61 28.692 39.8144 28.3933L38.3814 28.2392C38.1276 28.212 37.871 28.2358 37.6266 28.3094C37.3822 28.383 37.1551 28.5048 36.9586 28.6676C36.7621 28.8305 36.6003 29.0311 36.4826 29.2575C36.3649 29.484 36.2938 29.7317 36.2735 29.9861L35.7333 36.741C34.9245 36.5939 33.748 36.3433 32.6923 36.098C32.636 36.0438 32.6018 35.9707 32.5962 35.8927L32.186 29.9552C32.0067 27.5109 32.3375 25.0559 33.1573 22.7461C33.9772 20.4363 35.2682 18.3222 36.9485 16.5379H36.9495Z" fill="black"></path><path d="M76.6932 70.676C76.6422 70.6518 76.5897 70.631 76.5359 70.6139L59.375 64.8215V61.2C61.5808 59.9492 63.5223 58.2812 65.0912 56.2891L63.25 54.8438C61.6801 56.8507 59.6747 58.4747 57.3852 59.5931C55.0957 60.7116 52.582 61.2951 50.034 61.2998C47.4859 61.3045 44.9701 60.7302 42.6766 59.6202C40.383 58.5102 38.3716 56.8936 36.7943 54.8924L34.9527 56.3447C36.5094 58.3179 38.4362 59.9684 40.625 61.2037V64.8211L23.4537 70.6137C23.4029 70.631 23.3534 70.6518 23.3055 70.676C21.1293 71.7685 19.2681 73.3984 17.8979 75.4113C16.5278 77.4242 15.6941 79.7535 15.4758 82.1787C15.4732 82.2109 15.4297 82.2434 15.4297 82.2764V96.4316C15.447 96.7565 15.5859 97.0629 15.819 97.2898C16.052 97.5167 16.362 97.6476 16.6871 97.6562H83.3129C83.6381 97.6476 83.948 97.5167 84.181 97.2898C84.4141 97.0629 84.553 96.7565 84.5703 96.4316V82.276C84.5703 82.2434 84.5262 82.2109 84.5234 82.1783C84.305 79.7532 83.4711 77.4239 82.1009 75.4111C80.7306 73.3982 78.8693 71.7684 76.6932 70.676ZM75.7074 72.8078C76.3644 73.145 76.9875 73.5444 77.5682 74.0006C75.1494 77.1739 73.8359 81.0518 73.8281 85.0418V95.3125H59.375V67.2953L75.7074 72.8078ZM42.9688 73.5711C45.1424 74.6941 47.5534 75.2802 50 75.2802C52.4466 75.2802 54.8576 74.6941 57.0312 73.5711V95.3125H42.9688V73.5711ZM49.9957 63.6428C52.4041 63.6513 54.792 63.2001 57.0312 62.3133V70.868C54.9345 72.2178 52.4936 72.9355 50 72.9355C47.5064 72.9355 45.0655 72.2178 42.9688 70.868V62.3156C45.2055 63.2004 47.5903 63.6508 49.9957 63.6428ZM17.7734 82.326C18.1641 79.7895 19.0879 77.4131 20.7324 75.54C22.3345 77.661 23.3691 80.1555 23.7385 82.7877C23.7842 83.0946 23.9493 83.371 24.1979 83.5567C24.4465 83.7424 24.7584 83.8223 25.0656 83.7791C25.3729 83.7358 25.6506 83.5729 25.8382 83.3257C26.0259 83.0786 26.1082 82.7674 26.0674 82.4598C25.6135 79.3622 24.3836 76.4298 22.4922 73.9352C23.0528 73.506 23.6513 73.1288 24.2803 72.808L40.625 67.2947V95.3125H26.1719V90.4258C26.1719 90.2724 26.1417 90.1205 26.083 89.9788C26.0244 89.8371 25.9384 89.7084 25.8299 89.5999C25.7215 89.4915 25.5927 89.4054 25.451 89.3467C25.3093 89.288 25.1575 89.2578 25.0041 89.2578H24.9959C24.8425 89.2578 24.6907 89.288 24.549 89.3467C24.4073 89.4054 24.2785 89.4915 24.1701 89.5999C24.0616 89.7084 23.9756 89.8371 23.917 89.9788C23.8583 90.1205 23.8281 90.2724 23.8281 90.4258V95.3125H17.7734V82.326ZM82.2266 95.3125H76.1719V85.0418C76.1958 81.6487 77.2998 78.3513 79.3236 75.6277C80.9252 77.4871 81.8359 79.8287 82.2266 82.327V95.3125Z" fill="black"></path><path d="M30.8594 78.7224C31.1702 78.7224 31.4682 78.5989 31.688 78.3792C31.9078 78.1594 32.0312 77.8613 32.0312 77.5505V76.3201C32.0312 76.0093 31.9078 75.7112 31.688 75.4914C31.4682 75.2717 31.1702 75.1482 30.8594 75.1482C30.5486 75.1482 30.2505 75.2717 30.0307 75.4914C29.811 75.7112 29.6875 76.0093 29.6875 76.3201V77.5505C29.6875 77.8613 29.811 78.1594 30.0307 78.3792C30.2505 78.5989 30.5486 78.7224 30.8594 78.7224Z" fill="black"></path><path d="M30.8594 91.4175C31.1702 91.4175 31.4682 91.294 31.688 91.0742C31.9078 90.8545 32.0312 90.5564 32.0312 90.2456V81.2612C32.0312 80.9504 31.9078 80.6524 31.688 80.4326C31.4682 80.2128 31.1702 80.0894 30.8594 80.0894C30.5486 80.0894 30.2505 80.2128 30.0307 80.4326C29.811 80.6524 29.6875 80.9504 29.6875 81.2612V90.2456C29.6875 90.5564 29.811 90.8545 30.0307 91.0742C30.2505 91.294 30.5486 91.4175 30.8594 91.4175Z" fill="black"></path><path d="M75.781 35.9197V28.1561C75.781 13.9521 64.2039 2.39648 49.9998 2.39648C35.7957 2.39648 24.2185 13.9521 24.2185 28.1561V35.9197C21.4842 37.3357 19.8461 40.5854 20.6765 43.7635L23.3982 54.1627C23.6254 55.0321 24.0216 55.8483 24.5642 56.5645C25.1069 57.2808 25.7853 57.8831 26.5608 58.3371C27.3363 58.7911 28.1936 59.0879 29.0838 59.2105C29.974 59.3331 30.8797 59.2791 31.749 59.0516L36.4213 57.8309C36.5702 57.792 36.71 57.7242 36.8327 57.6313C36.9554 57.5384 37.0586 57.4222 37.1364 57.2894C37.2142 57.1566 37.2651 57.0098 37.2862 56.8573C37.3072 56.7048 37.2981 56.5497 37.2592 56.4008L31.6765 35.0336C31.598 34.7329 31.4033 34.4757 31.1351 34.3186C30.8632 34.1617 30.5407 34.1176 30.2367 34.1959L26.5623 35.1533V28.1561C26.5623 15.2445 37.0883 4.74023 49.9998 4.74023C62.9113 4.74023 73.4373 15.2445 73.4373 28.1561V35.1533L69.7629 34.1963C69.4611 34.1172 69.1403 34.161 68.8707 34.318C68.6012 34.475 68.4048 34.7325 68.3248 35.034L62.7406 56.4012C62.6969 56.5469 62.6827 56.6998 62.6988 56.851C62.715 57.0023 62.7611 57.1488 62.8346 57.2819C62.9081 57.4151 63.0074 57.5323 63.1267 57.6266C63.246 57.7209 63.3829 57.7905 63.5295 57.8313L66.992 58.7492V62.4211C66.992 63.8805 65.9006 65.0396 64.4412 65.0396H58.0076V64.1637C58.0162 63.9483 57.9812 63.7334 57.9047 63.5319C57.8281 63.3304 57.7117 63.1464 57.5623 62.991C57.4129 62.8356 57.2336 62.712 57.0353 62.6276C56.8369 62.5433 56.6235 62.4999 56.408 62.5H48.8625C48.6471 62.4999 48.4339 62.5434 48.2358 62.6278C48.0376 62.7122 47.8586 62.8358 47.7094 62.9911C47.5603 63.1465 47.444 63.3303 47.3677 63.5317C47.2914 63.7331 47.2566 63.9479 47.2654 64.1631V68.351C47.2654 69.2777 47.9355 70.1172 48.8625 70.1172H56.408C57.3349 70.1172 58.0076 69.2773 58.0076 68.351V67.3828H64.4412C65.0898 67.3833 65.7321 67.2549 66.3306 67.0048C66.9291 66.7548 67.4719 66.3882 67.9274 65.9264C68.3829 65.4646 68.742 64.9168 68.9837 64.3149C69.2255 63.7131 69.3452 63.0691 69.3357 62.4205V59.2498C69.531 59.2645 69.7474 59.2744 69.9283 59.2744C71.444 59.2731 72.9168 58.7713 74.118 57.847C75.3192 56.9226 76.1816 55.6275 76.5711 54.1627L79.3111 43.7635C80.1416 40.5859 78.5154 37.3357 75.781 35.9197ZM25.6718 53.5703L22.9547 43.1711C22.6866 42.1389 22.7935 41.0451 23.2564 40.0844C23.7193 39.1237 24.5081 38.3584 25.4824 37.9248L30.4433 56.9092C29.3814 57.0078 28.319 56.7264 27.4452 56.1149C26.5714 55.5035 25.943 54.6018 25.6718 53.5703ZM34.6953 55.8594L32.7242 56.3746L27.7342 37.275L29.7068 36.7598L34.6953 55.8594ZM55.6638 67.7734H49.6092V64.8438H55.6638V67.7734ZM70.2927 36.7598L72.2654 37.275L67.275 56.3746L65.3033 55.8594L70.2927 36.7598ZM77.0443 43.1711L74.3277 53.5703C74.0569 54.6019 73.4287 55.5039 72.555 56.1155C71.6813 56.7272 70.6188 57.0088 69.5568 56.9102L74.5177 37.9258C75.4917 38.3594 76.2803 39.1246 76.743 40.0851C77.2058 41.0456 77.3127 42.1391 77.0449 43.1711H77.0443Z" fill="url(#paint0_linear)"></path><defs><linearGradient id="paint0_linear" x1="68.7686" y1="-18.7011" x2="1.52896" y2="4.26899" gradientUnits="userSpaceOnUse"><stop stop-color="#F6EA93"></stop><stop offset="0.2458" stop-color="#C49C3C"></stop><stop offset="0.4751" stop-color="#F3DDA2"></stop><stop offset="0.9231" stop-color="#EAC140"></stop><stop offset="1" stop-color="#B4842A"></stop></linearGradient></defs></svg>