<svg xmlns="http://www.w3.org/2000/svg" width="100" height="100" viewBox="0 0 100 100" fill="none"><path d="M17.6472 10.4071C17.6525 6.16065 21.093 2.71926 25.3395 2.71484H18.5522C14.3057 2.71926 10.8652 6.16065 10.8599 10.4071V13.5746H17.6472V10.4071Z" fill="#CFCFCF"></path><path d="M10.8599 16.2896H17.6472V80.9954H10.8599V16.2896Z" fill="#CFCFCF"></path><path d="M17.6472 89.5928V83.7104H10.8599V89.5928C10.8652 93.8393 14.3057 97.2807 18.5522 97.2851H25.3395C21.093 97.2807 17.6525 93.8393 17.6472 89.5928Z" fill="#CFCFCF"></path><path d="M18.9083 100H55.1074C60.8466 100 65.611 95.3311 65.611 89.5928V75.5656H62.896V80.9955H11.3123V16.2896H48.0938C48.8442 16.2896 49.4513 15.6816 49.4513 14.9321C49.4513 14.1827 48.8442 13.5747 48.0938 13.5747H11.3123V10.4072C11.2929 8.37811 12.0839 6.42499 13.5103 4.98091C14.9358 3.53684 16.8792 2.72112 18.9083 2.71493H55.1074C59.3495 2.71493 62.896 6.16604 62.896 10.4072V13.5747H59.6323C58.8829 13.5747 58.2748 14.1827 58.2748 14.9321C58.2748 15.6816 58.8829 16.2896 59.6323 16.2896H62.896V23.7557H65.611V10.4072C65.611 4.66894 60.8466 0 55.1074 0H18.9083C16.1598 0.00707014 13.5262 1.10913 11.5916 3.06137C9.65616 5.01449 8.57884 7.65784 8.5974 10.4072V89.5928C8.57884 92.3422 9.65616 94.9855 11.5916 96.9386C13.5262 98.8909 16.1598 99.9929 18.9083 100ZM11.3123 83.7104H62.896V89.5928C62.896 93.834 59.3495 97.2851 55.1074 97.2851H18.9083C16.8792 97.2789 14.9358 96.4632 13.5103 95.0191C12.0839 93.575 11.2929 91.6219 11.3123 89.5928V83.7104Z" fill="black"></path><path d="M52.5498 13.5747C51.8004 13.5747 51.1924 14.1827 51.1924 14.9322C51.1924 15.6816 51.8004 16.2896 52.5498 16.2896H55.0651C55.8145 16.2896 56.4225 15.6816 56.4225 14.9322C56.4225 14.1827 55.8145 13.5747 55.0651 13.5747H52.5498Z" fill="black"></path><path d="M37.008 95.2488C39.6328 95.2488 41.7591 93.1216 41.7591 90.4977C41.7591 87.8738 39.6328 85.7466 37.008 85.7466C34.3841 85.7466 32.2568 87.8738 32.2568 90.4977C32.2604 93.1207 34.3858 95.2462 37.008 95.2488ZM37.008 88.4615C38.133 88.4615 39.0442 89.3736 39.0442 90.4977C39.0442 91.6219 38.133 92.5339 37.008 92.5339C35.8838 92.5339 34.9718 91.6219 34.9718 90.4977C34.9735 89.3736 35.8847 88.4624 37.008 88.4615Z" fill="black"></path><path d="M30.7041 45.7014C29.9547 45.7014 29.3467 46.3094 29.3467 47.0589C29.3467 47.8083 29.9547 48.4163 30.7041 48.4163H32.5795C33.3298 48.4163 33.937 47.8083 33.937 47.0589C33.937 46.3094 33.3298 45.7014 32.5795 45.7014H30.7041Z" fill="black"></path><path d="M16.5162 48.4163H24.7016C25.451 48.4163 26.0591 47.8083 26.0591 47.0589C26.0591 46.3094 25.451 45.7014 24.7016 45.7014H16.5162C15.7667 45.7014 15.1587 46.3094 15.1587 47.0589C15.1587 47.8083 15.7667 48.4163 16.5162 48.4163Z" fill="black"></path><path d="M33.9367 58.371C33.9367 57.6216 33.3296 57.0135 32.5792 57.0135H23.9165C23.1671 57.0135 22.5591 57.6216 22.5591 58.371C22.5591 59.1205 23.1671 59.7285 23.9165 59.7285H32.5792C33.3296 59.7285 33.9367 59.1205 33.9367 58.371Z" fill="black"></path><path d="M16.5162 59.7285H17.9143C18.6637 59.7285 19.2717 59.1205 19.2717 58.371C19.2717 57.6216 18.6637 57.0135 17.9143 57.0135H16.5162C15.7667 57.0135 15.1587 57.6216 15.1587 58.371C15.1587 59.1205 15.7667 59.7285 16.5162 59.7285Z" fill="black"></path><path d="M33.0318 71.0407H39.3666C40.1169 71.0407 40.7241 70.4327 40.7241 69.6833C40.7241 68.9338 40.1169 68.3258 39.3666 68.3258H33.0318C32.2823 68.3258 31.6743 68.9338 31.6743 69.6833C31.6743 70.4327 32.2823 71.0407 33.0318 71.0407Z" fill="black"></path><path d="M16.5162 71.0407H26.964C27.7135 71.0407 28.3215 70.4327 28.3215 69.6833C28.3215 68.9338 27.7135 68.3258 26.964 68.3258H16.5162C15.7667 68.3258 15.1587 68.9338 15.1587 69.6833C15.1587 70.4327 15.7667 71.0407 16.5162 71.0407Z" fill="black"></path><path d="M36.1994 34.8416C36.1994 34.0922 35.5923 33.4841 34.842 33.4841H26.2447C25.4952 33.4841 24.8872 34.0922 24.8872 34.8416C24.8872 35.591 25.4952 36.1991 26.2447 36.1991H34.842C35.5923 36.1991 36.1994 35.591 36.1994 34.8416Z" fill="black"></path><path d="M16.5162 36.1991H20.1767C20.9262 36.1991 21.5342 35.591 21.5342 34.8416C21.5342 34.0922 20.9262 33.4841 20.1767 33.4841H16.5162C15.7667 33.4841 15.1587 34.0922 15.1587 34.8416C15.1587 35.591 15.7667 36.1991 16.5162 36.1991Z" fill="black"></path><path d="M38.0748 55.1656L42.75 55.6181C43.2678 57.5774 44.0562 59.4563 45.0911 61.199L42.1048 64.8004C41.6576 65.3395 41.6939 66.1296 42.1888 66.6254L47.5683 72.0066C48.0632 72.5015 48.8541 72.5387 49.3932 72.0924L53.0025 69.1035C54.7444 70.1366 56.6198 70.9284 58.5756 71.4569L59.0281 76.148C59.0952 76.8435 59.6794 77.3746 60.3776 77.3755H68.0063C68.7053 77.3755 69.2904 76.8444 69.3575 76.148L69.81 71.4578C71.7702 70.9373 73.6482 70.1472 75.391 69.1096L78.9924 72.0915C79.5315 72.5387 80.3224 72.5015 80.8173 72.0057L86.1986 66.6254C86.6935 66.1296 86.7306 65.3386 86.2834 64.7995L83.2945 61.1902C84.3286 59.4474 85.1213 57.5721 85.6489 55.6163L90.2268 55.1647C90.9126 55.0922 91.4252 54.5027 91.4031 53.8143V46.1856C91.4252 45.4954 90.9109 44.9059 90.2242 44.8343L85.5579 44.3818C85.0418 42.4225 84.2552 40.5436 83.2212 38.8009L86.2092 35.1995C86.6546 34.6639 86.6219 33.8774 86.1323 33.3798L80.8218 27.9995C80.3277 27.4992 79.5323 27.4595 78.9906 27.9075L75.3813 30.8964C73.6394 29.8624 71.7649 29.0706 69.8091 28.5421L69.3567 23.8511C69.2895 23.1555 68.7044 22.6244 68.0063 22.6244H60.3776C59.6785 22.6244 59.0935 23.1555 59.0263 23.8519L58.5738 28.5421C56.6145 29.0626 54.7356 29.8527 52.9937 30.8903L49.3924 27.9084C48.8524 27.4612 48.0614 27.4984 47.5665 27.9942L42.1861 33.3745C41.6903 33.8703 41.6532 34.6613 42.1004 35.2004L45.0893 38.8097C44.0553 40.5516 43.2634 42.427 42.7349 44.3827L38.0739 44.8352C37.3846 44.905 36.8641 45.4927 36.8782 46.1856V53.8143C36.8641 54.5072 37.3846 55.0949 38.0748 55.1656ZM39.5931 47.4185L43.9881 46.9916C44.5723 46.9342 45.0513 46.5038 45.1697 45.9284C45.6814 43.6156 46.6076 41.4133 47.9041 39.4301C48.224 38.9325 48.1842 38.2839 47.8051 37.8287L44.9815 34.4218L48.6138 30.7886L52.0207 33.6105C52.482 33.9923 53.1404 34.0268 53.6389 33.6945C55.6114 32.3891 57.8085 31.4629 60.1195 30.9627C60.6966 30.8372 61.127 30.3538 61.1836 29.7661L61.6104 25.3393H66.7734L67.1994 29.7652C67.2568 30.3529 67.6872 30.8372 68.2643 30.9618C70.578 31.4762 72.7795 32.4059 74.7627 33.7042C75.2602 34.0259 75.908 33.987 76.364 33.6096L79.7648 30.7922L83.3414 34.4138L80.5142 37.8278C80.1324 38.29 80.098 38.9476 80.4303 39.4469C81.7356 41.4186 82.6618 43.6165 83.162 45.9276C83.2654 46.4976 83.7338 46.9315 84.3109 46.9907L88.6882 47.4185V52.5823L84.3772 53.0092C83.7956 53.0675 83.3202 53.4988 83.2062 54.0724C82.6954 56.3852 81.7709 58.5866 80.4753 60.5707C80.1563 61.0691 80.1978 61.7169 80.577 62.1721L83.4015 65.579L79.7701 69.2122L76.3632 66.3903C75.9018 66.0085 75.2434 65.974 74.745 66.3063C72.7733 67.6117 70.5754 68.5378 68.2643 69.0381C67.6872 69.1636 67.2568 69.647 67.2003 70.2347L66.7734 74.6606H61.6104L61.1845 70.2347C61.1279 69.647 60.6975 69.1636 60.1204 69.0381C57.8067 68.5237 55.6052 67.594 53.6229 66.2957C53.1254 65.974 52.4767 66.0129 52.0207 66.3903L48.6138 69.2122L44.9797 65.579L47.8016 62.1721C48.1834 61.7099 48.2178 61.0523 47.8855 60.553C46.5802 58.5813 45.654 56.3834 45.1538 54.0724C45.0425 53.4997 44.5688 53.0675 43.9881 53.0092L39.5931 52.5814V47.4185Z" fill="url(#paint0_linear)"></path><path d="M64.1916 66.2091C73.1441 66.2091 80.4008 58.9525 80.4008 49.9999C80.4008 41.0474 73.1441 33.7908 64.1916 33.7908C55.239 33.7908 47.9824 41.0474 47.9824 49.9999C47.9921 58.9481 55.2435 66.1994 64.1916 66.2091ZM64.1916 36.5057C71.6444 36.5057 77.6858 42.5471 77.6858 49.9999C77.6858 57.4527 71.6444 63.4942 64.1916 63.4942C56.7388 63.4942 50.6974 57.4527 50.6974 49.9999C50.7053 42.5507 56.7423 36.5137 64.1916 36.5057Z" fill="url(#paint1_linear)"></path><path d="M61.4487 54.8353C61.9763 55.3505 62.8176 55.3505 63.3452 54.8353L71.2602 47.1076C71.6111 46.77 71.7534 46.2698 71.6341 45.7979C71.5148 45.325 71.1515 44.953 70.6823 44.8222C70.213 44.6923 69.7101 44.8231 69.3637 45.1651L62.3969 51.9665L58.952 48.6029C58.4147 48.085 57.5592 48.0983 57.0378 48.6321C56.5164 49.1668 56.5243 50.0214 57.0555 50.5463L61.4487 54.8353Z" fill="url(#paint2_linear)"></path><defs><linearGradient id="paint0_linear" x1="81.4713" y1="5.56729" x2="21.3117" y2="29.0321" gradientUnits="userSpaceOnUse"><stop stop-color="#F6EA93"></stop><stop offset="0.2458" stop-color="#C49C3C"></stop><stop offset="0.4751" stop-color="#F3DDA2"></stop><stop offset="0.9231" stop-color="#EAC140"></stop><stop offset="1" stop-color="#B4842A"></stop></linearGradient><linearGradient id="paint1_linear" x1="74.4954" y1="23.6912" x2="38.7666" y2="37.6845" gradientUnits="userSpaceOnUse"><stop stop-color="#F6EA93"></stop><stop offset="0.2458" stop-color="#C49C3C"></stop><stop offset="0.4751" stop-color="#F3DDA2"></stop><stop offset="0.9231" stop-color="#EAC140"></stop><stop offset="1" stop-color="#B4842A"></stop></linearGradient><linearGradient id="paint2_linear" x1="68.9388" y1="41.5176" x2="54.4392" y2="49.6828" gradientUnits="userSpaceOnUse"><stop stop-color="#F6EA93"></stop><stop offset="0.2458" stop-color="#C49C3C"></stop><stop offset="0.4751" stop-color="#F3DDA2"></stop><stop offset="0.9231" stop-color="#EAC140"></stop><stop offset="1" stop-color="#B4842A"></stop></linearGradient></defs></svg>