<svg xmlns="http://www.w3.org/2000/svg" width="100" height="100" viewBox="0 0 100 100" fill="none"><path d="M24.6387 10.1802H17.7307C15.9451 10.1739 14.23 10.8758 12.9612 12.1321C11.6923 13.3884 10.9734 15.0965 10.9619 16.882V58.7671H17.8709V16.882C17.8824 15.0967 18.6012 13.3887 19.8698 12.1325C21.1384 10.8763 22.8533 10.1742 24.6387 10.1802Z" fill="#CFCFCF"></path><path d="M24.4434 69.353C20.7312 69.353 17.6746 66.2399 17.6746 62.5278V58.9908H10.7666V64.8307C10.7666 68.543 13.823 71.6561 17.5354 71.6561H90.2096V69.3533L24.4434 69.353Z" fill="#CFCFCF"></path><path d="M26.2075 42.1935C28.0351 42.1934 29.8327 41.7285 31.4312 40.8426C33.0298 39.9566 34.3768 38.6787 35.3456 37.129C36.3144 35.5793 36.8732 33.8086 36.9695 31.9835C37.0658 30.1584 36.6963 28.3388 35.8959 26.6958C35.0955 25.0527 33.8905 23.6402 32.394 22.591C30.8975 21.5418 29.1588 20.8904 27.3413 20.698C25.5239 20.5056 23.6873 20.7785 22.0043 21.4911C20.3213 22.2037 18.8472 23.3326 17.7205 24.7717C16.1303 26.8033 15.3216 29.338 15.4413 31.9152C15.561 34.4925 16.6012 36.9413 18.3729 38.8168C19.3819 39.8811 20.5966 40.7292 21.9434 41.3097C23.2902 41.8901 24.7409 42.1908 26.2075 42.1935ZM19.8727 26.459C21.0453 24.9602 22.7112 23.9258 24.5745 23.5394C26.4378 23.153 28.3777 23.4397 30.0496 24.3485C31.7214 25.2574 33.017 26.7295 33.7059 28.5033C34.3949 30.2771 34.4326 32.2378 33.8125 34.0368C33.1924 35.8359 31.9545 37.3568 30.3189 38.3294C28.6833 39.3019 26.7559 39.6631 24.8791 39.3488C23.0023 39.0344 21.2977 38.0649 20.0683 36.6124C18.8389 35.16 18.1642 33.3187 18.1641 31.4158C18.1607 29.6185 18.7626 27.8724 19.8727 26.459Z" fill="url(#paint0_linear)"></path><path d="M23.6672 34.4435C23.899 34.7149 24.2278 34.885 24.5833 34.9172C24.9388 34.9495 25.2928 34.8414 25.5697 34.6161L30.8297 30.3368C31.1109 30.108 31.2898 29.7768 31.3269 29.4161C31.3639 29.0553 31.2562 28.6947 31.0273 28.4134C30.7985 28.1321 30.4673 27.9533 30.1065 27.9162C29.7458 27.8792 29.3852 27.9869 29.1039 28.2158L24.8797 31.6532L23.4881 30.0236C23.3715 29.887 23.2291 29.7748 23.0691 29.6933C22.9092 29.6117 22.7347 29.5625 22.5557 29.5484C22.3767 29.5343 22.1967 29.5556 22.0259 29.6111C21.8551 29.6665 21.697 29.7551 21.5604 29.8717C21.4239 29.9883 21.3117 30.1307 21.2301 30.2906C21.1486 30.4506 21.0994 30.6251 21.0853 30.8041C21.0568 31.1656 21.1731 31.5236 21.4086 31.7993L23.6672 34.4435Z" fill="url(#paint1_linear)"></path><path d="M16.7969 47.2656H33.3984C33.761 47.2656 34.1088 47.1216 34.3652 46.8652C34.6216 46.6088 34.7656 46.261 34.7656 45.8984C34.7656 45.5358 34.6216 45.1881 34.3652 44.9317C34.1088 44.6753 33.761 44.5312 33.3984 44.5312H16.7969C16.4343 44.5313 16.0865 44.6753 15.8301 44.9317C15.5737 45.1881 15.4297 45.5358 15.4297 45.8984C15.4297 46.261 15.5737 46.6088 15.8301 46.8652C16.0865 47.1216 16.4343 47.2656 16.7969 47.2656Z" fill="url(#paint2_linear)"></path><path d="M16.7969 53.125H27.7344C28.097 53.125 28.4447 52.981 28.7011 52.7246C28.9575 52.4682 29.1016 52.1204 29.1016 51.7578C29.1016 51.3952 28.9575 51.0475 28.7011 50.7911C28.4447 50.5347 28.097 50.3906 27.7344 50.3906H16.7969C16.4343 50.3906 16.0865 50.5347 15.8301 50.7911C15.5737 51.0475 15.4297 51.3952 15.4297 51.7578C15.4297 52.1204 15.5737 52.4682 15.8301 52.7246C16.0865 52.981 16.4343 53.125 16.7969 53.125Z" fill="url(#paint3_linear)"></path><path d="M83.7372 18.3594H44.6747C44.4963 18.3639 44.3205 18.4037 44.1576 18.4765C43.9947 18.5493 43.8478 18.6537 43.7255 18.7836C43.6032 18.9136 43.5078 19.0665 43.445 19.2335C43.3821 19.4005 43.353 19.5783 43.3592 19.7566V27.8658C43.3592 28.6211 43.9196 29.2969 44.6747 29.2969H46.4842V49.3455C46.4824 49.7157 46.6243 50.0721 46.8799 50.3399C47.1354 50.6076 47.4849 50.7658 47.8547 50.7812H80.6053C80.9809 50.7679 81.3374 50.6121 81.6022 50.3454C81.867 50.0787 82.0204 49.7212 82.0311 49.3455V29.2969H83.7372C84.1116 29.2845 84.4672 29.1294 84.731 28.8634C84.9949 28.5973 85.1469 28.2404 85.1561 27.8658V19.7566C85.1456 19.3856 84.9921 19.0331 84.7276 18.7727C84.4632 18.5123 84.1083 18.3642 83.7372 18.3594ZM79.2967 48.0469H49.2186V29.2969H58.5936V38.8672C58.5851 39.1069 58.642 39.3443 58.758 39.5542C58.8741 39.764 59.0451 39.9383 59.2527 40.0584C59.4602 40.1786 59.6966 40.24 59.9363 40.2361C60.1761 40.2323 60.4103 40.1633 60.6139 40.0365L64.1915 37.8631L67.8829 40.0445C68.0921 40.1686 68.3308 40.2342 68.5741 40.2344C68.8086 40.2344 69.039 40.1724 69.2419 40.0547C69.4501 39.9346 69.6228 39.7614 69.7423 39.5528C69.8617 39.3442 69.9236 39.1076 69.9217 38.8672V29.2969H79.2967V48.0469ZM61.328 29.2969H67.1874V36.473L64.859 35.0934C64.6538 34.9678 64.4175 34.902 64.1768 34.9034C63.9362 34.9048 63.7007 34.9734 63.4969 35.1014L61.328 36.4408V29.2969ZM82.4217 26.5625H46.0936V21.0938H82.4217V26.5625Z" fill="url(#paint4_linear)"></path><path d="M8.20312 17.7734V65.4764C8.20312 70.5381 12.3553 74.6094 17.417 74.6094H48.6328V88.6719H33.8619C33.4993 88.6719 33.1516 88.8159 32.8952 89.0723C32.6388 89.3287 32.4947 89.6765 32.4947 90.0391C32.4947 90.4017 32.6388 90.7494 32.8952 91.0058C33.1516 91.2622 33.4993 91.4062 33.8619 91.4062H67.0723C67.4349 91.4062 67.7826 91.2622 68.039 91.0058C68.2954 90.7494 68.4395 90.4017 68.4395 90.0391C68.4395 89.6765 68.2954 89.3287 68.039 89.0723C67.7826 88.8159 67.4349 88.6719 67.0723 88.6719H51.3672V74.6094H82.583C87.6447 74.6094 91.7969 70.5381 91.7969 65.4764V17.7734C91.7862 15.3362 90.811 13.0023 89.0844 11.2821C87.3578 9.56189 85.0203 8.59533 82.583 8.59375H17.417C14.9797 8.59533 12.6422 9.56189 10.9156 11.2821C9.18901 13.0023 8.21376 15.3362 8.20312 17.7734ZM82.583 71.875H17.417C15.7095 71.8849 14.0679 71.2166 12.8529 70.0167C11.638 68.8169 10.949 67.1839 10.9375 65.4764V59.9609H89.0625V65.4764C89.051 67.1839 88.362 68.8169 87.1471 70.0167C85.9321 71.2166 84.2905 71.8849 82.583 71.875ZM89.0625 17.7734V57.2266H10.9375V17.7734C10.9473 16.0611 11.6342 14.4223 12.8482 13.2147C14.0622 12.0071 15.7047 11.3289 17.417 11.3281H82.583C84.2953 11.3289 85.9378 12.0071 87.1518 13.2147C88.3658 14.4223 89.0527 16.0611 89.0625 17.7734Z" fill="black"></path><defs><linearGradient id="paint0_linear" x1="33.058" y1="13.9227" x2="9.30191" y2="23.2265" gradientUnits="userSpaceOnUse"><stop stop-color="#F6EA93"></stop><stop offset="0.2458" stop-color="#C49C3C"></stop><stop offset="0.4751" stop-color="#F3DDA2"></stop><stop offset="0.9231" stop-color="#EAC140"></stop><stop offset="1" stop-color="#B4842A"></stop></linearGradient><linearGradient id="paint1_linear" x1="29.4663" y1="25.724" x2="19.6506" y2="31.3438" gradientUnits="userSpaceOnUse"><stop stop-color="#F6EA93"></stop><stop offset="0.2458" stop-color="#C49C3C"></stop><stop offset="0.4751" stop-color="#F3DDA2"></stop><stop offset="0.9231" stop-color="#EAC140"></stop><stop offset="1" stop-color="#B4842A"></stop></linearGradient><linearGradient id="paint2_linear" x1="31.2434" y1="43.6794" x2="28.4085" y2="51.5307" gradientUnits="userSpaceOnUse"><stop stop-color="#F6EA93"></stop><stop offset="0.2458" stop-color="#C49C3C"></stop><stop offset="0.4751" stop-color="#F3DDA2"></stop><stop offset="0.9231" stop-color="#EAC140"></stop><stop offset="1" stop-color="#B4842A"></stop></linearGradient><linearGradient id="paint3_linear" x1="26.6111" y1="49.5388" x2="23.0164" y2="56.578" gradientUnits="userSpaceOnUse"><stop stop-color="#F6EA93"></stop><stop offset="0.2458" stop-color="#C49C3C"></stop><stop offset="0.4751" stop-color="#F3DDA2"></stop><stop offset="0.9231" stop-color="#EAC140"></stop><stop offset="1" stop-color="#B4842A"></stop></linearGradient><linearGradient id="paint4_linear" x1="77.5422" y1="8.2587" x2="35.2037" y2="29.636" gradientUnits="userSpaceOnUse"><stop stop-color="#F6EA93"></stop><stop offset="0.2458" stop-color="#C49C3C"></stop><stop offset="0.4751" stop-color="#F3DDA2"></stop><stop offset="0.9231" stop-color="#EAC140"></stop><stop offset="1" stop-color="#B4842A"></stop></linearGradient></defs></svg>