<svg xmlns="http://www.w3.org/2000/svg" width="129" height="129" viewBox="0 0 129 129" fill="none"><g clip-path="url(#clip0)"><path d="M90.9191 61.1452C89.179 48.0328 77.9961 38.2377 64.7701 38.2397C51.5429 38.2418 40.3642 48.041 38.6282 61.1534C38.5156 62.0147 39.1219 62.8044 39.9832 62.9181C40.0518 62.9263 40.1204 62.9314 40.1901 62.9314C40.9787 62.9304 41.6454 62.3445 41.7478 61.5621C43.2779 50.0156 53.1232 41.387 64.7701 41.385C76.4179 41.3839 86.2663 50.0084 87.7994 61.5549C87.9131 62.4162 88.7028 63.0225 89.5651 62.9099C90.4264 62.7962 91.0327 62.0066 90.9201 61.1452H90.9191Z" fill="black"></path><path d="M41.7735 67.8501C41.7018 67.2889 41.3331 66.8086 40.8097 66.5945C40.2854 66.3794 39.6862 66.4634 39.2407 66.8137C38.7962 67.1629 38.5729 67.7252 38.658 68.2854C40.4912 81.2995 51.6259 90.9768 64.768 90.9809C77.9101 90.984 89.049 81.3108 90.8884 68.2977C90.9693 67.7405 90.745 67.1824 90.3005 66.8352C89.857 66.489 89.262 66.405 88.7397 66.617C88.2184 66.829 87.8497 67.3032 87.7729 67.8614C86.1782 79.2481 76.2909 87.8347 64.7742 87.8347C53.2513 87.8347 43.363 79.243 41.7735 67.8501Z" fill="black"></path><path d="M97.9583 54.2568C97.1185 54.477 96.6156 55.3373 96.8358 56.1781C98.3772 62.0834 98.2697 68.3001 96.5255 74.1491C96.3596 74.6889 96.4958 75.2757 96.8819 75.6874C97.268 76.0991 97.8457 76.2722 98.3946 76.1411C98.9436 76.01 99.3799 75.5942 99.5386 75.0524C101.45 68.6494 101.567 61.8448 99.8797 55.3793C99.6595 54.5384 98.7992 54.0366 97.9583 54.2568Z" fill="black"></path><path d="M31.8513 49.3231C31.4857 50.1107 31.8267 51.0468 32.6143 51.4135C33.4029 51.7801 34.338 51.438 34.7047 50.6505C36.1221 47.6077 37.9963 44.7994 40.2618 42.3219L41.6639 43.7251C42.2794 44.3303 43.2687 44.3262 43.8791 43.7158C44.4906 43.1044 44.4947 42.1161 43.8884 41.4995L42.4893 40.1005C48.1909 34.9264 55.5116 31.8898 63.2021 31.5088V33.5018C63.2021 34.3703 63.9057 35.0749 64.7752 35.0749C65.6437 35.0749 66.3483 34.3703 66.3483 33.5018V31.5088C72.1564 31.7751 77.7914 33.5715 82.6817 36.7167C84.2364 37.7173 85.7041 38.8459 87.0713 40.0893L85.66 41.5006C85.0455 42.1151 85.0455 43.1106 85.66 43.7251C86.2745 44.3396 87.27 44.3396 87.8845 43.7261L89.2948 42.3158C91.4783 44.7123 93.2972 47.4151 94.6962 50.3401C94.9349 50.8533 95.4306 51.1984 95.9949 51.2445C96.5592 51.2906 97.1041 51.0304 97.4226 50.5624C97.7411 50.0943 97.7841 49.4921 97.5352 48.9831C95.7563 45.2623 93.3566 41.8713 90.4388 38.9555C90.4367 38.9545 90.4357 38.9524 90.4347 38.9504L90.4296 38.9463C82.0488 30.5686 70.106 26.8099 58.4377 28.8767C46.7693 30.9445 36.8441 38.5776 31.8513 49.3242V49.3231Z" fill="black"></path><path d="M32.9218 73.8048C31.2729 68.051 31.2012 61.9593 32.7149 56.1676C32.9361 55.3267 32.4343 54.4664 31.5934 54.2463C30.7536 54.025 29.8933 54.5279 29.6721 55.3677C28.015 61.7083 28.0928 68.3767 29.8995 74.6763C30.1391 75.511 31.0117 75.9924 31.8464 75.7527C32.6811 75.512 33.1625 74.6395 32.9218 73.8048Z" fill="black"></path><path d="M96.4167 79.0003C95.6435 78.605 94.6951 78.9112 94.2998 79.6844C92.9601 82.3043 91.2805 84.7356 89.3039 86.9151L87.8844 85.4956C87.2699 84.8811 86.2744 84.8821 85.6599 85.4956C85.0454 86.1101 85.0454 87.1066 85.6599 87.7211L87.0825 89.1426C81.384 94.3341 74.0479 97.3667 66.3472 97.7129V95.7198C66.3472 94.8513 65.6436 94.1467 64.7741 94.1467C63.9056 94.1467 63.2009 94.8513 63.2009 95.7198V97.7129C55.5002 97.3667 48.1641 94.3341 42.4657 89.1426L43.8882 87.7211C44.4945 87.1045 44.4904 86.1162 43.88 85.5048C43.2686 84.8944 42.2793 84.8903 41.6637 85.4956L40.2442 86.9151C38.2666 84.7336 36.5859 82.3002 35.2453 79.6773C34.9913 79.1734 34.4874 78.8426 33.9231 78.8129C33.3588 78.7822 32.8221 79.0566 32.5169 79.5318C32.2107 80.0071 32.183 80.6093 32.4442 81.1101C38.6465 93.2547 51.1332 100.899 64.77 100.9C78.4067 100.902 90.8954 93.2608 97.1009 81.1173C97.4962 80.344 97.19 79.3967 96.4167 79.0003Z" fill="black"></path><path d="M61.0351 45.175C60.1666 45.175 59.462 45.8797 59.462 46.7482V49.7879H56.0956C55.2261 49.7879 54.5225 50.4925 54.5225 51.361V78.0661C54.5225 78.9356 55.2261 79.6393 56.0956 79.6393H59.462V82.4711C59.462 83.3396 60.1666 84.0442 61.0351 84.0442C61.9046 84.0442 62.6083 83.3396 62.6083 82.4711V79.6393H65.7821V82.4711C65.7821 83.3396 66.4868 84.0442 67.3553 84.0442C68.2248 84.0442 68.9284 83.3396 68.9284 82.4711V79.3535C71.9978 78.526 74.3165 76.0076 74.8901 72.8818C75.4636 69.755 74.1895 66.5781 71.6148 64.7151C74.1895 62.8521 75.4646 59.6742 74.8911 56.5474C74.3175 53.4216 71.9978 50.9032 68.9284 50.0757V46.7482C68.9284 45.8797 68.2248 45.175 67.3553 45.175C66.4868 45.175 65.7821 45.8797 65.7821 46.7482V49.7879H62.6083V46.7482C62.6083 45.8797 61.9046 45.175 61.0351 45.175ZM71.88 71.3896C71.877 74.2071 69.5941 76.4899 66.7776 76.493H57.6687V66.2882H66.7776C69.5941 66.2913 71.877 68.5731 71.88 71.3896ZM71.88 58.0375C71.878 60.855 69.5951 63.1389 66.7776 63.142H57.6687V52.9341H66.7776C69.5941 52.9372 71.877 55.2201 71.88 58.0375Z" fill="black"></path><path d="M124.054 78.1461C121.932 78.1492 120.047 79.5062 119.37 81.5177H116.523V77.0216C116.523 76.1531 115.819 75.4485 114.95 75.4485H100.37C99.5989 73.1513 97.2771 71.7502 94.8847 72.1414C92.4933 72.5316 90.7368 74.5984 90.7368 77.0216C90.7368 79.4448 92.4933 81.5115 94.8847 81.9017C97.2771 82.293 99.5989 80.8919 100.37 78.5947H113.377V83.0908C113.377 83.9603 114.082 84.6639 114.95 84.6639H119.37C120.174 87.0574 122.652 88.4595 125.117 87.9177C127.582 87.3769 129.243 85.0644 128.971 82.5552C128.698 80.0459 126.579 78.1451 124.054 78.1461ZM95.6856 78.82C94.6921 78.82 93.8872 78.015 93.8872 77.0216C93.8872 76.0281 94.6932 75.2232 95.6866 75.2232C96.6801 75.2232 97.485 76.0281 97.485 77.0216C97.484 78.015 96.679 78.82 95.6856 78.821V78.82ZM124.054 84.8902C123.061 84.8902 122.256 84.0842 122.256 83.0908C122.256 82.0973 123.061 81.2924 124.054 81.2924C125.048 81.2924 125.853 82.0973 125.853 83.0908C125.852 84.0842 125.047 84.8892 124.054 84.8902Z" fill="url(#paint0_linear)"></path><path d="M93.7612 66.455H110.834C111.69 68.7195 114.06 70.0304 116.433 69.5521C118.806 69.0728 120.483 66.9456 120.394 64.5265C120.304 62.1075 118.475 60.1093 116.073 59.8072C113.671 59.5051 111.405 60.987 110.718 63.3088H93.877C93.1918 60.9819 90.9202 59.4938 88.5124 59.7959C86.1056 60.098 84.2713 62.1003 84.1812 64.5245C84.0911 66.9497 85.7717 69.082 88.1509 69.5613C90.529 70.0406 92.904 68.7256 93.7602 66.455H93.7612ZM115.457 62.9155C116.451 62.9155 117.257 63.7215 117.257 64.715C117.257 65.7084 116.451 66.5144 115.457 66.5144C114.464 66.5144 113.658 65.7084 113.658 64.715C113.659 63.7215 114.463 62.9165 115.456 62.9145L115.457 62.9155ZM89.1382 66.5124C88.1447 66.5124 87.3387 65.7074 87.3387 64.7139C87.3387 63.7195 88.1447 62.9145 89.1382 62.9145C90.1316 62.9145 90.9376 63.7205 90.9376 64.7139C90.9356 65.7064 90.1316 66.5114 89.1382 66.5124Z" fill="url(#paint1_linear)"></path><path d="M124.054 41.3906C121.932 41.3947 120.048 42.7507 119.371 44.7622H114.951C114.082 44.7622 113.377 45.4668 113.377 46.3353V50.8324H102.757C101.987 48.5342 99.6638 47.1341 97.2724 47.5254C94.881 47.9156 93.1245 49.9824 93.1245 52.4055C93.1245 54.8287 94.881 56.8945 97.2724 57.2857C99.6638 57.6759 101.987 56.2759 102.757 53.9787H114.951C115.819 53.9787 116.524 53.274 116.524 52.4055V47.9084H119.371C120.175 50.3009 122.652 51.704 125.117 51.1622C127.583 50.6204 129.244 48.3089 128.971 45.7997C128.698 43.2905 126.579 41.3896 124.054 41.3906ZM98.0723 54.205C97.0788 54.205 96.2728 53.399 96.2728 52.4055C96.2738 51.4121 97.0788 50.6071 98.0723 50.6071C99.0657 50.6071 99.8707 51.4121 99.8707 52.4055C99.8697 53.399 99.0657 54.2029 98.0733 54.205H98.0723ZM124.054 48.1358C123.061 48.1358 122.256 47.3298 122.256 46.3363C122.255 45.3429 123.061 44.5369 124.054 44.5369C125.048 44.5369 125.854 45.3419 125.854 46.3353C125.853 47.3287 125.048 48.1337 124.054 48.1358Z" fill="url(#paint2_linear)"></path><path d="M33.3182 72.0768C31.1951 72.0799 29.3106 73.4359 28.6336 75.4483H14.0536C13.1851 75.4483 12.4805 76.153 12.4805 77.0215V81.5175H9.63331C8.86211 79.2203 6.54033 77.8203 4.14787 78.2105C1.75645 78.6017 0 80.6675 0 83.0907C0 85.5149 1.75645 87.5806 4.14787 87.9718C6.54033 88.362 8.86211 86.962 9.63331 84.6638H14.0536C14.9221 84.6638 15.6267 83.9602 15.6267 83.0907V78.5946H28.6347C29.4386 80.987 31.9161 82.3901 34.3813 81.8483C36.8464 81.3076 38.5087 78.995 38.2352 76.4858C37.9628 73.9766 35.8438 72.0758 33.3192 72.0768H33.3182ZM4.9498 84.8901C3.95635 84.8901 3.15034 84.0841 3.15034 83.0907C3.15034 82.0972 3.95635 81.2922 4.9498 81.2922C5.94324 81.2922 6.74823 82.0972 6.74823 83.0907C6.74721 84.0841 5.94221 84.8891 4.94877 84.8901H4.9498ZM33.3182 78.8199C32.3247 78.8209 31.5187 78.0149 31.5187 77.0215C31.5187 76.028 32.3237 75.223 33.3172 75.223C34.3106 75.223 35.1166 76.028 35.1166 77.0215C35.1156 78.0149 34.3106 78.8189 33.3182 78.8209V78.8199Z" fill="url(#paint3_linear)"></path><path d="M39.8657 59.7683C37.6771 59.7714 35.7507 61.2103 35.1259 63.3078H18.2866C17.6004 60.9809 15.3288 59.4938 12.922 59.7959C10.5142 60.0981 8.68091 62.1003 8.59078 64.5245C8.50168 66.9487 10.1823 69.081 12.5605 69.5603C14.9386 70.0396 17.3146 68.7246 18.1698 66.454H35.2416C36.1234 68.7943 38.6152 70.1072 41.0446 69.5122C43.4729 68.9161 45.0747 66.5995 44.7736 64.1169C44.4735 61.6343 42.3657 59.7673 39.8647 59.7683H39.8657ZM13.5477 66.5124C12.5543 66.5124 11.7483 65.7074 11.7483 64.714C11.7483 63.7195 12.5543 62.9145 13.5477 62.9145C14.5412 62.9145 15.3472 63.7205 15.3462 64.714C15.3452 65.7064 14.5412 66.5114 13.5477 66.5124ZM39.8657 66.5124C38.8713 66.5124 38.0663 65.7064 38.0673 64.713C38.0683 63.7185 38.8744 62.9135 39.8678 62.9145C40.8612 62.9155 41.6662 63.7216 41.6652 64.715C41.6642 65.7084 40.8582 66.5124 39.8657 66.5124Z" fill="url(#paint4_linear)"></path><path d="M4.94861 51.282C7.07171 51.2779 8.95617 49.9209 9.63315 47.9084H12.4803V52.4055C12.4803 53.274 13.185 53.9787 14.0534 53.9787H26.2461C27.0173 56.2759 29.3402 57.6759 31.7316 57.2857C34.124 56.8955 35.8795 54.8287 35.8795 52.4055C35.8795 49.9813 34.124 47.9156 31.7316 47.5244C29.3402 47.1342 27.0173 48.5342 26.2461 50.8324H15.6266V46.3353C15.6266 45.4668 14.9219 44.7622 14.0534 44.7622H9.63315C8.82918 42.3697 6.35172 40.9677 3.88655 41.5084C1.42138 42.0502 -0.239816 44.3628 0.0326123 46.872C0.30504 49.3812 2.42506 51.282 4.94861 51.281V51.282ZM30.9317 50.6071C31.9251 50.6071 32.7301 51.4121 32.7301 52.4055C32.7301 53.4 31.9251 54.205 30.9317 54.205C29.9383 54.205 29.1322 53.4 29.1322 52.4055C29.1343 51.4131 29.9383 50.6092 30.9307 50.6071H30.9317ZM4.94861 44.5369C5.94308 44.5369 6.74807 45.3429 6.74807 46.3363C6.74807 47.3298 5.94205 48.1358 4.94861 48.1358C3.95517 48.1358 3.14915 47.3298 3.15017 46.3353C3.1512 45.3429 3.95619 44.5389 4.94861 44.5369Z" fill="url(#paint5_linear)"></path></g><defs><linearGradient id="paint0_linear" x1="122.03" y1="67.1048" x2="96.1848" y2="91.3766" gradientUnits="userSpaceOnUse"><stop stop-color="#F6EA93"></stop><stop offset="0.2458" stop-color="#C49C3C"></stop><stop offset="0.4751" stop-color="#F3DDA2"></stop><stop offset="0.9231" stop-color="#EAC140"></stop><stop offset="1" stop-color="#B4842A"></stop></linearGradient><linearGradient id="paint1_linear" x1="113.799" y1="56.6721" x2="98.7144" y2="78.2816" gradientUnits="userSpaceOnUse"><stop stop-color="#F6EA93"></stop><stop offset="0.2458" stop-color="#C49C3C"></stop><stop offset="0.4751" stop-color="#F3DDA2"></stop><stop offset="0.9231" stop-color="#EAC140"></stop><stop offset="1" stop-color="#B4842A"></stop></linearGradient><linearGradient id="paint2_linear" x1="122.465" y1="36.4184" x2="96.7736" y2="59.037" gradientUnits="userSpaceOnUse"><stop stop-color="#F6EA93"></stop><stop offset="0.2458" stop-color="#C49C3C"></stop><stop offset="0.4751" stop-color="#F3DDA2"></stop><stop offset="0.9231" stop-color="#EAC140"></stop><stop offset="1" stop-color="#B4842A"></stop></linearGradient><linearGradient id="paint3_linear" x1="31.2942" y1="67.1046" x2="5.44502" y2="91.377" gradientUnits="userSpaceOnUse"><stop stop-color="#F6EA93"></stop><stop offset="0.2458" stop-color="#C49C3C"></stop><stop offset="0.4751" stop-color="#F3DDA2"></stop><stop offset="0.9231" stop-color="#EAC140"></stop><stop offset="1" stop-color="#B4842A"></stop></linearGradient><linearGradient id="paint4_linear" x1="38.2115" y1="56.6724" x2="23.1291" y2="78.2824" gradientUnits="userSpaceOnUse"><stop stop-color="#F6EA93"></stop><stop offset="0.2458" stop-color="#C49C3C"></stop><stop offset="0.4751" stop-color="#F3DDA2"></stop><stop offset="0.9231" stop-color="#EAC140"></stop><stop offset="1" stop-color="#B4842A"></stop></linearGradient><linearGradient id="paint5_linear" x1="29.3442" y1="36.4213" x2="3.6556" y2="59.0403" gradientUnits="userSpaceOnUse"><stop stop-color="#F6EA93"></stop><stop offset="0.2458" stop-color="#C49C3C"></stop><stop offset="0.4751" stop-color="#F3DDA2"></stop><stop offset="0.9231" stop-color="#EAC140"></stop><stop offset="1" stop-color="#B4842A"></stop></linearGradient><clipPath id="clip0"><rect width="129" height="129" fill="white"></rect></clipPath></defs></svg>